Dakkhinee-Regular.ufo
<glyph name=".notdef" format="2">
  <advance width="546"/>
  <unicode hex="0000"/>
  <outline>
    <contour>
      <point x="147" y="775" type="line"/>
      <point x="274" y="491" type="line"/>
      <point x="402" y="775" type="line"/>
    </contour>
    <contour>
      <point x="416" y="174" type="line"/>
      <point x="416" y="684" type="line"/>
      <point x="301" y="430" type="line"/>
    </contour>
    <contour>
      <point x="80" y="800" type="line" smooth="yes"/>
      <point x="80" y="814"/>
      <point x="91" y="825"/>
      <point x="105" y="825" type="curve" smooth="yes"/>
      <point x="441" y="825" type="line" smooth="yes"/>
      <point x="455" y="825"/>
      <point x="466" y="814"/>
      <point x="466" y="800" type="curve" smooth="yes"/>
      <point x="466" y="57" type="line" smooth="yes"/>
      <point x="466" y="43"/>
      <point x="455" y="32"/>
      <point x="441" y="32" type="curve" smooth="yes"/>
      <point x="105" y="32" type="line" smooth="yes"/>
      <point x="91" y="32"/>
      <point x="80" y="43"/>
      <point x="80" y="57" type="curve" smooth="yes"/>
    </contour>
    <contour>
      <point x="130" y="690" type="line"/>
      <point x="130" y="173" type="line"/>
      <point x="246" y="430" type="line"/>
    </contour>
    <contour>
      <point x="402" y="82" type="line"/>
      <point x="274" y="369" type="line"/>
      <point x="144" y="82" type="line"/>
    </contour>
  </outline>
</glyph>
<glyph name="exclam" format="2">
  <advance width="266"/>
  <unicode hex="0021"/>
  <outline>
    <contour>
      <point x="147" y="216" type="line" smooth="yes"/>
      <point x="147" y="195"/>
      <point x="129" y="177"/>
      <point x="108" y="177" type="curve" smooth="yes"/>
      <point x="86" y="177"/>
      <point x="69" y="194"/>
      <point x="69" y="216" type="curve" smooth="yes"/>
      <point x="69" y="742" type="line" smooth="yes"/>
      <point x="69" y="764"/>
      <point x="86" y="782"/>
      <point x="108" y="782" type="curve" smooth="yes"/>
      <point x="130" y="782"/>
      <point x="147" y="764"/>
      <point x="147" y="742" type="curve" smooth="yes"/>
    </contour>
    <contour>
      <point x="166" y="58" type="curve" smooth="yes"/>
      <point x="166" y="26"/>
      <point x="140" y="0"/>
      <point x="108" y="0" type="curve" smooth="yes"/>
      <point x="76" y="0"/>
      <point x="50" y="26"/>
      <point x="50" y="58" type="curve" smooth="yes"/>
      <point x="50" y="91"/>
      <point x="76" y="117"/>
      <point x="108" y="117" type="curve" smooth="yes"/>
      <point x="140" y="117"/>
      <point x="166" y="90"/>
    </contour>
  </outline>
</glyph>
<glyph name="quotedbl" format="2">
  <advance width="273"/>
  <unicode hex="0022"/>
  <outline>
    <contour>
      <point x="200" y="567" type="curve" smooth="yes"/>
      <point x="192" y="567"/>
      <point x="185" y="570"/>
      <point x="180" y="575" type="curve" smooth="yes"/>
      <point x="175" y="580"/>
      <point x="161" y="587"/>
      <point x="161" y="595" type="curve" smooth="yes"/>
      <point x="161" y="742" type="line" smooth="yes"/>
      <point x="161" y="753"/>
      <point x="164" y="762"/>
      <point x="172" y="770" type="curve" smooth="yes"/>
      <point x="180" y="778"/>
      <point x="189" y="782"/>
      <point x="200" y="782" type="curve" smooth="yes"/>
      <point x="211" y="782"/>
      <point x="221" y="778"/>
      <point x="228" y="770" type="curve" smooth="yes"/>
      <point x="235" y="762"/>
      <point x="239" y="753"/>
      <point x="239" y="742" type="curve" smooth="yes"/>
      <point x="239" y="595" type="line" smooth="yes"/>
      <point x="239" y="587"/>
      <point x="226" y="580"/>
      <point x="220" y="575" type="curve" smooth="yes"/>
      <point x="214" y="570"/>
      <point x="208" y="567"/>
    </contour>
    <contour>
      <point x="80" y="567" type="curve" smooth="yes"/>
      <point x="71" y="567"/>
      <point x="64" y="570"/>
      <point x="59" y="575" type="curve" smooth="yes"/>
      <point x="54" y="580"/>
      <point x="42" y="587"/>
      <point x="41" y="595" type="curve" smooth="yes"/>
      <point x="41" y="742" type="line" smooth="yes"/>
      <point x="41" y="753"/>
      <point x="44" y="763"/>
      <point x="52" y="770" type="curve" smooth="yes"/>
      <point x="60" y="777"/>
      <point x="69" y="781"/>
      <point x="80" y="781" type="curve" smooth="yes"/>
      <point x="91" y="781"/>
      <point x="100" y="777"/>
      <point x="107" y="770" type="curve" smooth="yes"/>
      <point x="114" y="763"/>
      <point x="118" y="753"/>
      <point x="118" y="742" type="curve" smooth="yes"/>
      <point x="118" y="595" type="line" smooth="yes"/>
      <point x="118" y="587"/>
      <point x="105" y="580"/>
      <point x="100" y="575" type="curve" smooth="yes"/>
      <point x="95" y="570"/>
      <point x="88" y="567"/>
    </contour>
  </outline>
</glyph>
<glyph name="numbersign" format="2">
  <advance width="934"/>
  <unicode hex="0023"/>
  <outline>
    <contour>
      <point x="166" y="500" type="line"/>
      <point x="166" y="561" type="line"/>
      <point x="360" y="561" type="line"/>
      <point x="409" y="718" type="line"/>
      <point x="470" y="718" type="line"/>
      <point x="421" y="561" type="line"/>
      <point x="626" y="561" type="line"/>
      <point x="675" y="718" type="line"/>
      <point x="738" y="718" type="line"/>
      <point x="688" y="561" type="line"/>
      <point x="835" y="561" type="line"/>
      <point x="835" y="500" type="line"/>
      <point x="667" y="500" type="line"/>
      <point x="601" y="295" type="line"/>
      <point x="768" y="295" type="line"/>
      <point x="768" y="231" type="line"/>
      <point x="581" y="231" type="line"/>
      <point x="523" y="49" type="line"/>
      <point x="461" y="49" type="line"/>
      <point x="519" y="231" type="line"/>
      <point x="314" y="231" type="line"/>
      <point x="256" y="49" type="line"/>
      <point x="194" y="49" type="line"/>
      <point x="253" y="231" type="line"/>
      <point x="100" y="231" type="line"/>
      <point x="100" y="295" type="line"/>
      <point x="272" y="295" type="line"/>
      <point x="338" y="500" type="line"/>
    </contour>
    <contour>
      <point x="606" y="500" type="line"/>
      <point x="401" y="500" type="line"/>
      <point x="333" y="295" type="line"/>
      <point x="539" y="295" type="line"/>
    </contour>
  </outline>
</glyph>
<glyph name="dollar" format="2">
  <advance width="712"/>
  <unicode hex="0024"/>
  <outline>
    <contour>
      <point x="100" y="275" type="curve"/>
      <point x="161" y="275" type="line"/>
      <point x="161" y="235"/>
      <point x="176" y="199"/>
      <point x="206" y="166" type="curve" smooth="yes"/>
      <point x="236" y="133"/>
      <point x="273" y="111"/>
      <point x="320" y="99" type="curve"/>
      <point x="320" y="391" type="line"/>
      <point x="262" y="397"/>
      <point x="213" y="419"/>
      <point x="174" y="456" type="curve" smooth="yes"/>
      <point x="135" y="493"/>
      <point x="116" y="536"/>
      <point x="116" y="585" type="curve" smooth="yes"/>
      <point x="116" y="632"/>
      <point x="135" y="674"/>
      <point x="174" y="710" type="curve" smooth="yes"/>
      <point x="213" y="746"/>
      <point x="261" y="767"/>
      <point x="320" y="774" type="curve"/>
      <point x="320" y="889" type="line"/>
      <point x="385" y="889" type="line"/>
      <point x="385" y="774" type="line"/>
      <point x="444" y="767"/>
      <point x="494" y="745"/>
      <point x="534" y="706" type="curve" smooth="yes"/>
      <point x="574" y="667"/>
      <point x="593" y="621"/>
      <point x="593" y="569" type="curve"/>
      <point x="529" y="569" type="line"/>
      <point x="529" y="606"/>
      <point x="516" y="638"/>
      <point x="488" y="665" type="curve" smooth="yes"/>
      <point x="460" y="692"/>
      <point x="426" y="709"/>
      <point x="385" y="716" type="curve"/>
      <point x="385" y="439" type="line"/>
      <point x="450" y="430"/>
      <point x="505" y="407"/>
      <point x="548" y="370" type="curve" smooth="yes"/>
      <point x="591" y="333"/>
      <point x="613" y="291"/>
      <point x="613" y="244" type="curve" smooth="yes"/>
      <point x="613" y="193"/>
      <point x="592" y="148"/>
      <point x="548" y="109" type="curve" smooth="yes"/>
      <point x="504" y="70"/>
      <point x="450" y="48"/>
      <point x="385" y="41" type="curve"/>
      <point x="385" y="-51" type="line"/>
      <point x="320" y="-51" type="line"/>
      <point x="320" y="41" type="line"/>
      <point x="257" y="50"/>
      <point x="204" y="76"/>
      <point x="162" y="120" type="curve" smooth="yes"/>
      <point x="120" y="164"/>
      <point x="100" y="216"/>
    </contour>
    <contour>
      <point x="385" y="99" type="line"/>
      <point x="433" y="104"/>
      <point x="474" y="120"/>
      <point x="506" y="148" type="curve" smooth="yes"/>
      <point x="538" y="176"/>
      <point x="554" y="208"/>
      <point x="554" y="244" type="curve" smooth="yes"/>
      <point x="554" y="280"/>
      <point x="538" y="311"/>
      <point x="506" y="337" type="curve" smooth="yes"/>
      <point x="474" y="363"/>
      <point x="433" y="378"/>
      <point x="385" y="382" type="curve"/>
    </contour>
    <contour>
      <point x="320" y="716" type="line"/>
      <point x="279" y="708"/>
      <point x="245" y="692"/>
      <point x="218" y="668" type="curve" smooth="yes"/>
      <point x="191" y="644"/>
      <point x="178" y="616"/>
      <point x="178" y="585" type="curve" smooth="yes"/>
      <point x="178" y="552"/>
      <point x="191" y="522"/>
      <point x="218" y="496" type="curve" smooth="yes"/>
      <point x="245" y="470"/>
      <point x="279" y="454"/>
      <point x="320" y="448" type="curve"/>
    </contour>
  </outline>
</glyph>
<glyph name="percent" format="2">
  <advance width="885"/>
  <unicode hex="0025"/>
  <outline>
    <contour>
      <point x="526" y="175"/>
      <point x="582" y="117"/>
      <point x="662" y="117"/>
      <point x="719" y="176"/>
      <point x="719" y="216" type="qcurve" smooth="yes"/>
      <point x="719" y="257"/>
      <point x="662" y="316"/>
      <point x="582" y="316"/>
      <point x="526" y="257"/>
    </contour>
    <contour>
      <point x="786" y="152"/>
      <point x="690" y="57"/>
      <point x="622" y="57" type="qcurve" smooth="yes"/>
      <point x="555" y="57"/>
      <point x="506" y="104" type="qcurve" smooth="yes"/>
      <point x="459" y="150"/>
      <point x="459" y="288"/>
      <point x="506" y="335" type="qcurve" smooth="yes"/>
      <point x="554" y="383"/>
      <point x="690" y="383"/>
      <point x="786" y="286"/>
    </contour>
    <contour>
      <point x="166" y="565"/>
      <point x="222" y="509"/>
      <point x="302" y="509"/>
      <point x="360" y="565"/>
      <point x="360" y="645"/>
      <point x="302" y="702"/>
      <point x="222" y="702"/>
      <point x="166" y="645"/>
    </contour>
    <contour>
      <point x="426" y="538"/>
      <point x="330" y="443"/>
      <point x="194" y="443"/>
      <point x="100" y="538"/>
      <point x="100" y="605" type="qcurve" smooth="yes"/>
      <point x="100" y="673"/>
      <point x="195" y="769"/>
      <point x="262" y="769" type="qcurve" smooth="yes"/>
      <point x="330" y="769"/>
      <point x="426" y="672"/>
    </contour>
    <contour>
      <point x="146" y="50" type="line"/>
      <point x="666" y="776" type="line"/>
      <point x="739" y="776" type="line"/>
      <point x="220" y="50" type="line"/>
    </contour>
  </outline>
</glyph>
<glyph name="ampersand" format="2">
  <advance width="761"/>
  <unicode hex="0026"/>
  <outline>
    <contour>
      <point x="345" y="732" type="qcurve" smooth="yes"/>
      <point x="380" y="732"/>
      <point x="426" y="669"/>
      <point x="426" y="628" type="qcurve" smooth="yes"/>
      <point x="426" y="547"/>
      <point x="322" y="484" type="qcurve"/>
      <point x="281" y="538"/>
      <point x="264" y="572" type="qcurve" smooth="yes"/>
      <point x="244" y="612"/>
      <point x="244" y="637" type="qcurve" smooth="yes"/>
      <point x="244" y="676"/>
      <point x="305" y="732"/>
    </contour>
    <contour>
      <point x="166" y="234" type="qcurve" smooth="yes"/>
      <point x="166" y="276"/>
      <point x="203" y="320" type="qcurve" smooth="yes"/>
      <point x="241" y="365"/>
      <point x="304" y="402" type="qcurve"/>
      <point x="474" y="190" type="line"/>
      <point x="405" y="95"/>
      <point x="316" y="95" type="qcurve" smooth="yes"/>
      <point x="256" y="95"/>
      <point x="166" y="176"/>
    </contour>
    <contour>
      <point x="502" y="139" type="qcurve"/>
      <point x="582" y="45" type="line"/>
      <point x="662" y="45" type="line"/>
      <point x="545" y="199" type="line"/>
      <point x="579" y="258"/>
      <point x="579" y="364" type="qcurve"/>
      <point x="522" y="364" type="line"/>
      <point x="522" y="320"/>
      <point x="505" y="250" type="qcurve"/>
      <point x="360" y="439" type="line"/>
      <point x="422" y="475"/>
      <point x="494" y="577"/>
      <point x="494" y="628" type="qcurve" smooth="yes"/>
      <point x="494" y="695"/>
      <point x="448" y="741" type="qcurve" smooth="yes"/>
      <point x="401" y="788"/>
      <point x="275" y="788"/>
      <point x="177" y="707"/>
      <point x="177" y="648" type="qcurve" smooth="yes"/>
      <point x="177" y="609"/>
      <point x="225" y="507"/>
      <point x="272" y="448" type="qcurve"/>
      <point x="192" y="401"/>
      <point x="100" y="283"/>
      <point x="100" y="224" type="qcurve" smooth="yes"/>
      <point x="100" y="148"/>
      <point x="160" y="92" type="qcurve" smooth="yes"/>
      <point x="219" y="37"/>
      <point x="305" y="37" type="qcurve" smooth="yes"/>
      <point x="368" y="37"/>
      <point x="472" y="94"/>
    </contour>
  </outline>
</glyph>
<glyph name="quotesingle" format="2">
  <advance width="156"/>
  <unicode hex="0027"/>
  <outline>
    <contour>
      <point x="41" y="596" type="curve" smooth="yes"/>
      <point x="41" y="743" type="line" smooth="yes"/>
      <point x="41" y="765"/>
      <point x="58" y="781"/>
      <point x="80" y="781" type="curve" smooth="yes"/>
      <point x="102" y="781"/>
      <point x="119" y="765"/>
      <point x="119" y="743" type="curve" smooth="yes"/>
      <point x="119" y="596" type="line" smooth="yes"/>
      <point x="119" y="588"/>
      <point x="106" y="582"/>
      <point x="100" y="576" type="curve" smooth="yes"/>
      <point x="94" y="570"/>
      <point x="88" y="567"/>
      <point x="80" y="567" type="curve" smooth="yes"/>
      <point x="72" y="567"/>
      <point x="66" y="570"/>
      <point x="60" y="576" type="curve" smooth="yes"/>
      <point x="54" y="582"/>
      <point x="41" y="588"/>
    </contour>
  </outline>
</glyph>
<glyph name="parenleft" format="2">
  <advance width="486"/>
  <unicode hex="0028"/>
  <outline>
    <contour>
      <point x="166" y="416" type="qcurve" smooth="yes"/>
      <point x="166" y="94"/>
      <point x="386" y="-170" type="qcurve"/>
      <point x="306" y="-170" type="line"/>
      <point x="211" y="-58"/>
      <point x="100" y="241"/>
      <point x="100" y="416" type="qcurve" smooth="yes"/>
      <point x="100" y="553"/>
      <point x="206" y="831"/>
      <point x="306" y="949" type="qcurve"/>
      <point x="386" y="949" type="line"/>
      <point x="280" y="823"/>
      <point x="223" y="685" type="qcurve" smooth="yes"/>
      <point x="166" y="548"/>
    </contour>
  </outline>
</glyph>
<glyph name="parenright" format="2">
  <advance width="466"/>
  <unicode hex="0029"/>
  <outline>
    <contour>
      <point x="100" y="-220" type="line"/>
      <point x="164.667" y="-142.667"/>
      <point x="214.167" y="-56"/>
      <point x="248.5" y="40" type="curve" smooth="yes"/>
      <point x="282.833" y="136"/>
      <point x="300" y="236"/>
      <point x="300" y="340" type="curve" smooth="yes"/>
      <point x="300" y="443.333"/>
      <point x="282.833" y="543"/>
      <point x="248.5" y="639" type="curve" smooth="yes"/>
      <point x="214.167" y="735"/>
      <point x="164.667" y="821.667"/>
      <point x="100" y="899" type="curve"/>
      <point x="166" y="899" type="line"/>
      <point x="231.333" y="821.667"/>
      <point x="281" y="735"/>
      <point x="315" y="639" type="curve" smooth="yes"/>
      <point x="349" y="543"/>
      <point x="366" y="443.333"/>
      <point x="366" y="340" type="curve" smooth="yes"/>
      <point x="366" y="236"/>
      <point x="349" y="136"/>
      <point x="315" y="40" type="curve" smooth="yes"/>
      <point x="281" y="-56"/>
      <point x="231.333" y="-142.667"/>
      <point x="166" y="-220" type="curve"/>
    </contour>
  </outline>
</glyph>
<glyph name="asterisk" format="2">
  <advance width="559"/>
  <unicode hex="002A"/>
  <outline>
    <contour>
      <point x="210" y="420" type="line"/>
      <point x="150" y="460" type="line"/>
      <point x="250" y="580" type="line"/>
      <point x="90" y="554" type="line"/>
      <point x="90" y="620" type="line"/>
      <point x="243" y="620" type="line"/>
      <point x="157" y="727" type="line"/>
      <point x="230" y="760" type="line"/>
      <point x="276" y="647" type="line"/>
      <point x="330" y="760" type="line"/>
      <point x="396" y="727" type="line"/>
      <point x="316" y="620" type="line"/>
      <point x="470" y="640" type="line"/>
      <point x="470" y="567" type="line"/>
      <point x="316" y="567" type="line"/>
      <point x="430" y="460" type="line"/>
      <point x="356" y="420" type="line"/>
      <point x="290" y="567" type="line"/>
    </contour>
  </outline>
</glyph>
<glyph name="plus" format="2">
  <advance width="872"/>
  <unicode hex="002B"/>
  <outline>
    <contour>
      <point x="393" y="70" type="line"/>
      <point x="393" y="350" type="line"/>
      <point x="100" y="350" type="line"/>
      <point x="100" y="436" type="line"/>
      <point x="393" y="436" type="line"/>
      <point x="393" y="709" type="line"/>
      <point x="479" y="709" type="line"/>
      <point x="479" y="436" type="line"/>
      <point x="772" y="436" type="line"/>
      <point x="772" y="350" type="line"/>
      <point x="479" y="350" type="line"/>
      <point x="479" y="70" type="line"/>
    </contour>
  </outline>
</glyph>
<glyph name="comma" format="2">
  <advance width="359"/>
  <unicode hex="002C"/>
  <outline>
    <contour>
      <point x="136" y="30" type="line"/>
      <point x="153" y="100" type="line"/>
      <point x="260" y="100" type="line"/>
      <point x="160" y="-133" type="line"/>
      <point x="100" y="-133" type="line"/>
    </contour>
  </outline>
</glyph>
<glyph name="hyphen" format="2">
  <advance width="391"/>
  <unicode hex="002D"/>
  <outline>
    <contour>
      <point x="76" y="235" type="line" smooth="yes"/>
      <point x="65" y="235"/>
      <point x="56" y="239"/>
      <point x="49" y="246" type="curve" smooth="yes"/>
      <point x="42" y="253"/>
      <point x="38" y="262"/>
      <point x="38" y="273" type="curve" smooth="yes"/>
      <point x="38" y="284"/>
      <point x="42" y="294"/>
      <point x="49" y="301" type="curve" smooth="yes"/>
      <point x="56" y="308"/>
      <point x="65" y="312"/>
      <point x="76" y="312" type="curve" smooth="yes"/>
      <point x="311" y="312" type="line" smooth="yes"/>
      <point x="322" y="312"/>
      <point x="332" y="308"/>
      <point x="339" y="301" type="curve" smooth="yes"/>
      <point x="346" y="294"/>
      <point x="350" y="284"/>
      <point x="350" y="273" type="curve" smooth="yes"/>
      <point x="350" y="262"/>
      <point x="346" y="253"/>
      <point x="339" y="246" type="curve" smooth="yes"/>
      <point x="332" y="239"/>
      <point x="322" y="235"/>
      <point x="311" y="235" type="curve" smooth="yes"/>
    </contour>
  </outline>
</glyph>
<glyph name="period" format="2">
  <advance width="216"/>
  <unicode hex="002E"/>
  <outline>
    <contour>
      <point x="166" y="42" type="curve" smooth="yes"/>
      <point x="166" y="11"/>
      <point x="140" y="-16"/>
      <point x="108" y="-16" type="curve" smooth="yes"/>
      <point x="76" y="-16"/>
      <point x="50" y="10"/>
      <point x="50" y="42" type="curve" smooth="yes"/>
      <point x="50" y="74"/>
      <point x="77" y="101"/>
      <point x="108" y="101" type="curve" smooth="yes"/>
      <point x="140" y="101"/>
      <point x="166" y="74"/>
    </contour>
  </outline>
</glyph>
<glyph name="slash" format="2">
  <advance width="672"/>
  <unicode hex="002F"/>
  <outline>
    <contour>
      <point x="100" y="-130" type="line"/>
      <point x="180" y="-130" type="line"/>
      <point x="573" y="936" type="line"/>
      <point x="493" y="936" type="line"/>
    </contour>
  </outline>
</glyph>
<glyph name="zero" format="2">
  <advance width="633"/>
  <unicode hex="0030"/>
  <outline>
    <contour>
      <point x="136" y="400" type="qcurve" smooth="yes"/>
      <point x="136" y="286"/>
      <point x="182" y="204" type="qcurve" smooth="yes"/>
      <point x="229" y="121"/>
      <point x="405" y="121"/>
      <point x="499" y="287"/>
      <point x="499" y="400" type="qcurve" smooth="yes"/>
      <point x="499" y="508"/>
      <point x="405" y="672"/>
      <point x="229" y="672"/>
      <point x="182" y="590" type="qcurve" smooth="yes"/>
      <point x="136" y="510"/>
    </contour>
    <contour>
      <point x="65" y="400" type="qcurve" smooth="yes"/>
      <point x="65" y="537"/>
      <point x="133" y="640" type="qcurve" smooth="yes"/>
      <point x="200" y="742"/>
      <point x="317" y="742" type="qcurve" smooth="yes"/>
      <point x="433" y="742"/>
      <point x="501" y="640" type="qcurve" smooth="yes"/>
      <point x="569" y="537"/>
      <point x="569" y="400" type="qcurve" smooth="yes"/>
      <point x="569" y="258"/>
      <point x="435" y="50"/>
      <point x="199" y="50"/>
      <point x="65" y="258"/>
    </contour>
  </outline>
</glyph>
<glyph name="one" format="2">
  <advance width="304"/>
  <unicode hex="0031"/>
  <outline>
    <contour>
      <point x="74.25" y="712" type="line"/>
      <point x="74.25" y="745.5" type="line"/>
      <point x="99.583" y="745.5"/>
      <point x="122" y="751.667"/>
      <point x="141.5" y="764" type="curve" smooth="yes"/>
      <point x="161" y="776.333"/>
      <point x="171.583" y="793.5"/>
      <point x="173.25" y="815.5" type="curve"/>
      <point x="198.75" y="815.5" type="line"/>
      <point x="198.75" y="458.5" type="line"/>
      <point x="158.75" y="458.5" type="line"/>
      <point x="158.75" y="712" type="line"/>
    </contour>
  </outline>
</glyph>
<glyph name="two" format="2">
  <advance width="633"/>
  <unicode hex="0032"/>
  <outline>
    <contour>
      <point x="474" y="579" type="qcurve" smooth="yes"/>
      <point x="474" y="633"/>
      <point x="382" y="702"/>
      <point x="321" y="702" type="qcurve" smooth="yes"/>
      <point x="256" y="702"/>
      <point x="212" y="658" type="qcurve" smooth="yes"/>
      <point x="166" y="612"/>
      <point x="166" y="549" type="qcurve" smooth="yes"/>
      <point x="166" y="505" type="line"/>
      <point x="85" y="505" type="line"/>
      <point x="85" y="549" type="line" smooth="yes"/>
      <point x="85" y="644"/>
      <point x="154" y="710" type="qcurve" smooth="yes"/>
      <point x="224" y="777"/>
      <point x="321" y="777" type="qcurve" smooth="yes"/>
      <point x="414" y="777"/>
      <point x="485" y="721" type="qcurve" smooth="yes"/>
      <point x="555" y="666"/>
      <point x="555" y="579" type="qcurve" smooth="yes"/>
      <point x="555" y="503"/>
      <point x="504" y="440" type="qcurve" smooth="yes"/>
      <point x="451" y="375"/>
      <point x="373" y="330" type="qcurve" smooth="yes"/>
      <point x="371" y="329"/>
      <point x="349" y="316"/>
      <point x="302" y="290"/>
      <point x="277" y="275" type="qcurve" smooth="yes"/>
      <point x="188" y="224"/>
      <point x="173" y="138" type="qcurve"/>
      <point x="555" y="138" type="line"/>
      <point x="555" y="57" type="line"/>
      <point x="79" y="57" type="line"/>
      <point x="79" y="159"/>
      <point x="146" y="242" type="qcurve" smooth="yes"/>
      <point x="215" y="327"/>
      <point x="321" y="388" type="qcurve" smooth="yes"/>
      <point x="392" y="430"/>
      <point x="432" y="474" type="qcurve" smooth="yes"/>
      <point x="474" y="520"/>
    </contour>
  </outline>
</glyph>
<glyph name="three" format="2">
  <advance width="635"/>
  <unicode hex="0033"/>
  <outline>
    <contour>
      <point x="449" y="424" type="qcurve"/>
      <point x="498" y="411"/>
      <point x="567" y="321"/>
      <point x="567" y="264" type="qcurve" smooth="yes"/>
      <point x="567" y="167"/>
      <point x="493" y="101" type="qcurve" smooth="yes"/>
      <point x="420" y="35"/>
      <point x="214" y="35"/>
      <point x="68" y="173"/>
      <point x="68" y="271" type="qcurve"/>
      <point x="140" y="271" type="line"/>
      <point x="140" y="203"/>
      <point x="244" y="117"/>
      <point x="317" y="117" type="qcurve" smooth="yes"/>
      <point x="386" y="117"/>
      <point x="486" y="199"/>
      <point x="486" y="264" type="qcurve" smooth="yes"/>
      <point x="486" y="320"/>
      <point x="386" y="382"/>
      <point x="317" y="382" type="qcurve" smooth="yes"/>
      <point x="250" y="382" type="line"/>
      <point x="250" y="463" type="line"/>
      <point x="317" y="463" type="line" smooth="yes"/>
      <point x="370" y="463"/>
      <point x="449" y="530"/>
      <point x="449" y="580" type="qcurve" smooth="yes"/>
      <point x="449" y="628"/>
      <point x="370" y="689"/>
      <point x="317" y="689" type="qcurve" smooth="yes"/>
      <point x="252" y="689"/>
      <point x="156" y="611"/>
      <point x="156" y="551" type="qcurve"/>
      <point x="75" y="551" type="line"/>
      <point x="75" y="640"/>
      <point x="144" y="702" type="qcurve" smooth="yes"/>
      <point x="214" y="764"/>
      <point x="309" y="764" type="qcurve" smooth="yes"/>
      <point x="398" y="764"/>
      <point x="463" y="712" type="qcurve" smooth="yes"/>
      <point x="529" y="660"/>
      <point x="529" y="580" type="qcurve" smooth="yes"/>
      <point x="529" y="528"/>
      <point x="485" y="446"/>
    </contour>
  </outline>
</glyph>
<glyph name="four" format="2">
  <advance width="635"/>
  <unicode hex="0034"/>
  <outline>
    <contour>
      <point x="76" y="235" type="line"/>
      <point x="76" y="307" type="line"/>
      <point x="384" y="764" type="line"/>
      <point x="465" y="764" type="line"/>
      <point x="465" y="307" type="line"/>
      <point x="559" y="307" type="line"/>
      <point x="559" y="235" type="line"/>
      <point x="465" y="235" type="line"/>
      <point x="465" y="50" type="line"/>
      <point x="384" y="50" type="line"/>
      <point x="384" y="235" type="line"/>
    </contour>
    <contour>
      <point x="164" y="307" type="line"/>
      <point x="384" y="307" type="line"/>
      <point x="384" y="624" type="line"/>
    </contour>
  </outline>
</glyph>
<glyph name="five" format="2">
  <advance width="635"/>
  <unicode hex="0035"/>
  <outline>
    <contour>
      <point x="177" y="499" type="line"/>
      <point x="213" y="543"/>
      <point x="309" y="543" type="qcurve" smooth="yes"/>
      <point x="413" y="543"/>
      <point x="491" y="470" type="qcurve" smooth="yes"/>
      <point x="567" y="398"/>
      <point x="567" y="294" type="qcurve" smooth="yes"/>
      <point x="567" y="191"/>
      <point x="490" y="120" type="qcurve" smooth="yes"/>
      <point x="414" y="50"/>
      <point x="309" y="50" type="qcurve" smooth="yes"/>
      <point x="209" y="50"/>
      <point x="139" y="114" type="qcurve" smooth="yes"/>
      <point x="68" y="179"/>
      <point x="68" y="271" type="qcurve"/>
      <point x="140" y="271" type="line"/>
      <point x="140" y="208"/>
      <point x="190" y="170" type="qcurve" smooth="yes"/>
      <point x="241" y="131"/>
      <point x="309" y="131" type="qcurve" smooth="yes"/>
      <point x="381" y="131"/>
      <point x="434" y="178" type="qcurve" smooth="yes"/>
      <point x="486" y="224"/>
      <point x="486" y="364"/>
      <point x="382" y="462"/>
      <point x="309" y="462" type="qcurve" smooth="yes"/>
      <point x="260" y="462"/>
      <point x="174" y="420"/>
      <point x="148" y="388" type="qcurve"/>
      <point x="68" y="388" type="line"/>
      <point x="140" y="754" type="line"/>
      <point x="515" y="754" type="line"/>
      <point x="515" y="683" type="line"/>
      <point x="206" y="683" type="line"/>
    </contour>
  </outline>
</glyph>
<glyph name="six" format="2">
  <advance width="635"/>
  <unicode hex="0036"/>
  <outline>
    <contour>
      <point x="68" y="316" type="curve" smooth="yes"/>
      <point x="68" y="404" type="line" smooth="yes"/>
      <point x="68" y="500"/>
      <point x="92" y="584"/>
      <point x="141" y="656" type="curve" smooth="yes"/>
      <point x="190" y="728"/>
      <point x="255" y="764"/>
      <point x="338" y="764" type="curve" smooth="yes"/>
      <point x="396" y="764"/>
      <point x="446" y="745"/>
      <point x="488" y="706" type="curve" smooth="yes"/>
      <point x="530" y="667"/>
      <point x="551" y="620"/>
      <point x="551" y="564" type="curve"/>
      <point x="478" y="564" type="line"/>
      <point x="478" y="599"/>
      <point x="464" y="629"/>
      <point x="436" y="653" type="curve" smooth="yes"/>
      <point x="408" y="677"/>
      <point x="376" y="689"/>
      <point x="338" y="689" type="curve" smooth="yes"/>
      <point x="278" y="689"/>
      <point x="231" y="661"/>
      <point x="198" y="606" type="curve" smooth="yes"/>
      <point x="165" y="551"/>
      <point x="148" y="486"/>
      <point x="148" y="411" type="curve"/>
      <point x="162" y="441"/>
      <point x="184" y="464"/>
      <point x="215" y="480" type="curve" smooth="yes"/>
      <point x="246" y="496"/>
      <point x="280" y="505"/>
      <point x="317" y="505" type="curve" smooth="yes"/>
      <point x="384" y="505"/>
      <point x="442" y="483"/>
      <point x="492" y="440" type="curve" smooth="yes"/>
      <point x="542" y="397"/>
      <point x="567" y="343"/>
      <point x="567" y="278" type="curve" smooth="yes"/>
      <point x="567" y="211"/>
      <point x="542" y="153"/>
      <point x="493" y="106" type="curve" smooth="yes"/>
      <point x="444" y="59"/>
      <point x="385" y="35"/>
      <point x="317" y="35" type="curve" smooth="yes"/>
      <point x="246" y="35"/>
      <point x="186" y="63"/>
      <point x="139" y="119" type="curve" smooth="yes"/>
      <point x="92" y="175"/>
      <point x="68" y="241"/>
    </contour>
    <contour>
      <point x="162" y="271" type="curve" smooth="yes"/>
      <point x="162" y="228"/>
      <point x="178" y="192"/>
      <point x="208" y="162" type="curve" smooth="yes"/>
      <point x="238" y="132"/>
      <point x="274" y="117"/>
      <point x="317" y="117" type="curve" smooth="yes"/>
      <point x="363" y="117"/>
      <point x="403" y="133"/>
      <point x="436" y="164" type="curve" smooth="yes"/>
      <point x="469" y="195"/>
      <point x="486" y="233"/>
      <point x="486" y="278" type="curve" smooth="yes"/>
      <point x="486" y="322"/>
      <point x="469" y="359"/>
      <point x="436" y="389" type="curve" smooth="yes"/>
      <point x="403" y="419"/>
      <point x="363" y="434"/>
      <point x="317" y="434" type="curve" smooth="yes"/>
      <point x="274" y="434"/>
      <point x="237" y="418"/>
      <point x="207" y="386" type="curve" smooth="yes"/>
      <point x="177" y="354"/>
      <point x="162" y="316"/>
    </contour>
  </outline>
</glyph>
<glyph name="seven" format="2">
  <advance width="635"/>
  <unicode hex="0037"/>
  <outline>
    <contour>
      <point x="216" y="50" type="line"/>
      <point x="216" y="328"/>
      <point x="313" y="550"/>
      <point x="471" y="683" type="curve"/>
      <point x="53" y="683" type="line"/>
      <point x="53" y="754" type="line"/>
      <point x="582" y="754" type="line"/>
      <point x="582" y="683" type="line"/>
      <point x="489" y="617"/>
      <point x="420" y="528"/>
      <point x="376" y="416" type="curve" smooth="yes"/>
      <point x="332" y="304"/>
      <point x="310" y="182"/>
      <point x="310" y="50" type="curve"/>
    </contour>
  </outline>
</glyph>
<glyph name="eight" format="2">
  <advance width="635"/>
  <unicode hex="0038"/>
  <outline>
    <contour>
      <point x="310" y="689" type="qcurve" smooth="yes"/>
      <point x="251" y="689"/>
      <point x="164" y="630"/>
      <point x="164" y="580" type="qcurve" smooth="yes"/>
      <point x="164" y="529"/>
      <point x="252" y="469"/>
      <point x="310" y="469" type="qcurve" smooth="yes"/>
      <point x="373" y="469"/>
      <point x="465" y="527"/>
      <point x="465" y="580" type="qcurve" smooth="yes"/>
      <point x="465" y="632"/>
      <point x="419" y="660" type="qcurve" smooth="yes"/>
      <point x="372" y="689"/>
    </contour>
    <contour>
      <point x="128" y="264" type="qcurve" smooth="yes"/>
      <point x="128" y="198"/>
      <point x="182" y="158" type="qcurve" smooth="yes"/>
      <point x="237" y="117"/>
      <point x="310" y="117" type="qcurve" smooth="yes"/>
      <point x="386" y="117"/>
      <point x="444" y="158" type="qcurve" smooth="yes"/>
      <point x="501" y="198"/>
      <point x="501" y="264" type="qcurve" smooth="yes"/>
      <point x="501" y="326"/>
      <point x="444" y="361" type="qcurve" smooth="yes"/>
      <point x="388" y="395"/>
      <point x="310" y="395" type="qcurve" smooth="yes"/>
      <point x="237" y="395"/>
      <point x="182" y="360" type="qcurve" smooth="yes"/>
      <point x="128" y="326"/>
    </contour>
    <contour>
      <point x="445" y="434" type="qcurve"/>
      <point x="503" y="412"/>
      <point x="582" y="325"/>
      <point x="582" y="264" type="qcurve" smooth="yes"/>
      <point x="582" y="165"/>
      <point x="418" y="35"/>
      <point x="310" y="35" type="qcurve" smooth="yes"/>
      <point x="205" y="35"/>
      <point x="130" y="100" type="qcurve" smooth="yes"/>
      <point x="53" y="166"/>
      <point x="53" y="264" type="qcurve" smooth="yes"/>
      <point x="53" y="325"/>
      <point x="133" y="413"/>
      <point x="190" y="434" type="qcurve"/>
      <point x="83" y="495"/>
      <point x="83" y="580" type="qcurve" smooth="yes"/>
      <point x="83" y="661"/>
      <point x="150" y="712" type="qcurve" smooth="yes"/>
      <point x="219" y="764"/>
      <point x="310" y="764" type="qcurve" smooth="yes"/>
      <point x="407" y="764"/>
      <point x="476" y="714" type="qcurve" smooth="yes"/>
      <point x="546" y="663"/>
      <point x="546" y="580" type="qcurve" smooth="yes"/>
      <point x="546" y="535"/>
      <point x="518" y="498" type="qcurve" smooth="yes"/>
      <point x="488" y="458"/>
    </contour>
  </outline>
</glyph>
<glyph name="nine" format="2">
  <advance width="635"/>
  <unicode hex="0039"/>
  <outline>
    <contour>
      <point x="76" y="485" type="curve"/>
      <point x="76" y="549"/>
      <point x="98.8333" y="603.167"/>
      <point x="144.5" y="647.5" type="curve" smooth="yes"/>
      <point x="190.167" y="691.833"/>
      <point x="245.333" y="714"/>
      <point x="310" y="714" type="curve" smooth="yes"/>
      <point x="380" y="714"/>
      <point x="439" y="687.167"/>
      <point x="487" y="633.5" type="curve" smooth="yes"/>
      <point x="535" y="579.833"/>
      <point x="559" y="516"/>
      <point x="559" y="442" type="curve" smooth="yes"/>
      <point x="559" y="354" type="line" smooth="yes"/>
      <point x="559" y="242"/>
      <point x="535.667" y="152.5"/>
      <point x="489" y="85.5" type="curve" smooth="yes"/>
      <point x="442.333" y="18.5"/>
      <point x="380.667" y="-15"/>
      <point x="304" y="-15" type="curve" smooth="yes"/>
      <point x="246.667" y="-15"/>
      <point x="198.167" y="5.33333"/>
      <point x="158.5" y="46" type="curve" smooth="yes"/>
      <point x="118.833" y="86.6667"/>
      <point x="99" y="135.333"/>
      <point x="99" y="192" type="curve"/>
      <point x="178" y="192" type="line"/>
      <point x="178" y="157.333"/>
      <point x="190.333" y="127.833"/>
      <point x="215" y="103.5" type="curve" smooth="yes"/>
      <point x="239.667" y="79.1667"/>
      <point x="269.333" y="67"/>
      <point x="304" y="67" type="curve" smooth="yes"/>
      <point x="354.667" y="67"/>
      <point x="395.167" y="91.1667"/>
      <point x="425.5" y="139.5" type="curve" smooth="yes"/>
      <point x="455.833" y="187.833"/>
      <point x="471" y="252"/>
      <point x="471" y="332" type="curve"/>
      <point x="449.667" y="310.667"/>
      <point x="425.167" y="294.333"/>
      <point x="397.5" y="283" type="curve" smooth="yes"/>
      <point x="369.833" y="271.667"/>
      <point x="340.667" y="266"/>
      <point x="310" y="266" type="curve" smooth="yes"/>
      <point x="246" y="266"/>
      <point x="191" y="287.167"/>
      <point x="145" y="329.5" type="curve" smooth="yes"/>
      <point x="99" y="371.833"/>
      <point x="76" y="423.667"/>
    </contour>
    <contour>
      <point x="157" y="485" type="curve"/>
      <point x="157" y="442.333"/>
      <point x="171.833" y="406.167"/>
      <point x="201.5" y="376.5" type="curve" smooth="yes"/>
      <point x="231.167" y="346.833"/>
      <point x="267.333" y="332"/>
      <point x="310" y="332" type="curve" smooth="yes"/>
      <point x="354.667" y="332"/>
      <point x="392.667" y="346.833"/>
      <point x="424" y="376.5" type="curve" smooth="yes"/>
      <point x="455.333" y="406.167"/>
      <point x="471" y="442.333"/>
      <point x="471" y="485" type="curve" smooth="yes"/>
      <point x="471" y="528.333"/>
      <point x="455.333" y="564.833"/>
      <point x="424" y="594.5" type="curve" smooth="yes"/>
      <point x="392.667" y="624.167"/>
      <point x="354.667" y="639"/>
      <point x="310" y="639" type="curve" smooth="yes"/>
      <point x="267.333" y="639"/>
      <point x="231.167" y="624"/>
      <point x="201.5" y="594" type="curve" smooth="yes"/>
      <point x="171.833" y="564"/>
      <point x="157" y="527.667"/>
    </contour>
  </outline>
</glyph>
<glyph name="equal" format="2">
  <advance width="661"/>
  <unicode hex="003D"/>
  <outline>
    <contour>
      <point x="31" y="153" type="line"/>
      <point x="31" y="220" type="line"/>
      <point x="630" y="220" type="line"/>
      <point x="630" y="153" type="line"/>
    </contour>
    <contour>
      <point x="31" y="366" type="line"/>
      <point x="31" y="433" type="line"/>
      <point x="630" y="433" type="line"/>
      <point x="630" y="366" type="line"/>
    </contour>
  </outline>
</glyph>
<glyph name="greater" format="2">
  <advance width="661"/>
  <unicode hex="003E"/>
  <outline>
    <contour>
      <point x="562" y="290" type="line"/>
      <point x="100" y="19" type="line"/>
      <point x="100" y="93" type="line"/>
      <point x="497" y="333" type="line"/>
      <point x="100" y="573" type="line"/>
      <point x="100" y="644" type="line"/>
      <point x="562" y="369" type="line"/>
    </contour>
  </outline>
</glyph>
<glyph name="question" format="2">
  <advance width="665"/>
  <unicode hex="003F"/>
  <outline>
    <contour>
      <point x="100" y="692" type="line"/>
      <point x="200" y="792"/>
      <point x="320" y="792" type="qcurve" smooth="yes"/>
      <point x="422" y="792"/>
      <point x="566" y="672"/>
      <point x="566" y="586" type="qcurve" smooth="yes"/>
      <point x="566" y="511"/>
      <point x="496" y="439" type="qcurve" smooth="yes"/>
      <point x="426" y="368"/>
      <point x="313" y="326" type="qcurve"/>
      <point x="313" y="166" type="line"/>
      <point x="246" y="166" type="line"/>
      <point x="246" y="373" type="line"/>
      <point x="359" y="403"/>
      <point x="428" y="462" type="qcurve" smooth="yes"/>
      <point x="499" y="522"/>
      <point x="499" y="586" type="qcurve" smooth="yes"/>
      <point x="499" y="642"/>
      <point x="446" y="684" type="qcurve" smooth="yes"/>
      <point x="394" y="726"/>
      <point x="320" y="726" type="qcurve" smooth="yes"/>
      <point x="227" y="726"/>
      <point x="140" y="639" type="qcurve"/>
    </contour>
    <contour>
      <point x="236" y="47" type="qcurve" smooth="yes"/>
      <point x="236" y="63"/>
      <point x="262" y="89"/>
      <point x="278" y="89" type="qcurve" smooth="yes"/>
      <point x="299" y="89"/>
      <point x="324" y="64"/>
      <point x="324" y="43" type="qcurve" smooth="yes"/>
      <point x="324" y="27"/>
      <point x="298" y="1"/>
      <point x="282" y="1" type="qcurve" smooth="yes"/>
      <point x="261" y="1"/>
      <point x="236" y="26"/>
    </contour>
  </outline>
</glyph>
<glyph name="at" format="2">
  <advance width="1043"/>
  <unicode hex="0040"/>
  <outline>
    <contour>
      <point x="317" y="320" type="curve" smooth="yes"/>
      <point x="317" y="372"/>
      <point x="335" y="416"/>
      <point x="371" y="454" type="curve" smooth="yes"/>
      <point x="407" y="492"/>
      <point x="451" y="511"/>
      <point x="502" y="511" type="curve" smooth="yes"/>
      <point x="525" y="511"/>
      <point x="547" y="506"/>
      <point x="568" y="497" type="curve" smooth="yes"/>
      <point x="589" y="488"/>
      <point x="607" y="474"/>
      <point x="622" y="457" type="curve"/>
      <point x="622" y="505" type="line"/>
      <point x="688" y="505" type="line"/>
      <point x="688" y="208" type="line" smooth="yes"/>
      <point x="688" y="195"/>
      <point x="694" y="183"/>
      <point x="706" y="173" type="curve" smooth="yes"/>
      <point x="718" y="163"/>
      <point x="731" y="158"/>
      <point x="748" y="158" type="curve" smooth="yes"/>
      <point x="785" y="158"/>
      <point x="816" y="176"/>
      <point x="842" y="212" type="curve" smooth="yes"/>
      <point x="868" y="248"/>
      <point x="880" y="292"/>
      <point x="880" y="344" type="curve" smooth="yes"/>
      <point x="880" y="431"/>
      <point x="846" y="506"/>
      <point x="779" y="568" type="curve" smooth="yes"/>
      <point x="712" y="630"/>
      <point x="630" y="662"/>
      <point x="535" y="662" type="curve" smooth="yes"/>
      <point x="432" y="662"/>
      <point x="345" y="628"/>
      <point x="272" y="560" type="curve" smooth="yes"/>
      <point x="199" y="492"/>
      <point x="162" y="410"/>
      <point x="162" y="314" type="curve" smooth="yes"/>
      <point x="162" y="227"/>
      <point x="199" y="153"/>
      <point x="272" y="92" type="curve" smooth="yes"/>
      <point x="345" y="31"/>
      <point x="432" y="0"/>
      <point x="535" y="0" type="curve" smooth="yes"/>
      <point x="575" y="0"/>
      <point x="613" y="5"/>
      <point x="648" y="16" type="curve" smooth="yes"/>
      <point x="683" y="27"/>
      <point x="713" y="42"/>
      <point x="740" y="63" type="curve"/>
      <point x="772" y="8" type="line"/>
      <point x="739" y="-15"/>
      <point x="702" y="-34"/>
      <point x="662" y="-46" type="curve" smooth="yes"/>
      <point x="622" y="-58"/>
      <point x="579" y="-64"/>
      <point x="535" y="-64" type="curve" smooth="yes"/>
      <point x="416" y="-64"/>
      <point x="313" y="-28"/>
      <point x="228" y="46" type="curve" smooth="yes"/>
      <point x="143" y="120"/>
      <point x="100" y="209"/>
      <point x="100" y="314" type="curve" smooth="yes"/>
      <point x="100" y="427"/>
      <point x="143" y="523"/>
      <point x="228" y="603" type="curve" smooth="yes"/>
      <point x="313" y="683"/>
      <point x="416" y="723"/>
      <point x="535" y="723" type="curve" smooth="yes"/>
      <point x="648" y="723"/>
      <point x="744" y="686"/>
      <point x="824" y="612" type="curve" smooth="yes"/>
      <point x="904" y="538"/>
      <point x="944" y="449"/>
      <point x="944" y="344" type="curve" smooth="yes"/>
      <point x="944" y="275"/>
      <point x="925" y="217"/>
      <point x="887" y="168" type="curve" smooth="yes"/>
      <point x="849" y="119"/>
      <point x="803" y="95"/>
      <point x="748" y="95" type="curve" smooth="yes"/>
      <point x="717" y="95"/>
      <point x="690" y="104"/>
      <point x="666" y="120" type="curve" smooth="yes"/>
      <point x="642" y="136"/>
      <point x="629" y="157"/>
      <point x="625" y="182" type="curve"/>
      <point x="613" y="162"/>
      <point x="596" y="147"/>
      <point x="574" y="136" type="curve" smooth="yes"/>
      <point x="552" y="125"/>
      <point x="528" y="119"/>
      <point x="502" y="119" type="curve" smooth="yes"/>
      <point x="449" y="119"/>
      <point x="405" y="139"/>
      <point x="370" y="178" type="curve" smooth="yes"/>
      <point x="335" y="217"/>
      <point x="317" y="265"/>
    </contour>
    <contour>
      <point x="382" y="320" type="curve" smooth="yes"/>
      <point x="382" y="283"/>
      <point x="393" y="252"/>
      <point x="416" y="225" type="curve" smooth="yes"/>
      <point x="439" y="198"/>
      <point x="468" y="185"/>
      <point x="502" y="185" type="curve" smooth="yes"/>
      <point x="536" y="185"/>
      <point x="565" y="198"/>
      <point x="588" y="225" type="curve" smooth="yes"/>
      <point x="611" y="252"/>
      <point x="622" y="283"/>
      <point x="622" y="320" type="curve" smooth="yes"/>
      <point x="622" y="356"/>
      <point x="611" y="388"/>
      <point x="588" y="414" type="curve" smooth="yes"/>
      <point x="565" y="440"/>
      <point x="536" y="453"/>
      <point x="502" y="453" type="curve" smooth="yes"/>
      <point x="468" y="453"/>
      <point x="439" y="440"/>
      <point x="416" y="414" type="curve" smooth="yes"/>
      <point x="393" y="388"/>
      <point x="382" y="356"/>
    </contour>
  </outline>
</glyph>
<glyph name="A" format="2">
  <advance width="562"/>
  <unicode hex="0041"/>
  <outline>
    <contour>
      <point x="111" y="390" type="line"/>
      <point x="449" y="390" type="line"/>
      <point x="449" y="428" type="line" smooth="yes"/>
      <point x="449" y="557"/>
      <point x="400" y="648" type="qcurve" smooth="yes"/>
      <point x="350" y="740"/>
      <point x="210" y="740"/>
      <point x="160" y="648" type="qcurve" smooth="yes"/>
      <point x="111" y="557"/>
      <point x="111" y="428" type="qcurve" smooth="yes"/>
    </contour>
    <contour>
      <point x="436" y="740" type="qcurve"/>
      <point x="540" y="614"/>
      <point x="540" y="428" type="qcurve" smooth="yes"/>
      <point x="540" y="61" type="line"/>
      <point x="449" y="61" type="line"/>
      <point x="449" y="306" type="line"/>
      <point x="111" y="306" type="line"/>
      <point x="111" y="56" type="line"/>
      <point x="20" y="56" type="line"/>
      <point x="20" y="428" type="line" smooth="yes"/>
      <point x="20" y="614"/>
      <point x="124" y="740" type="qcurve"/>
      <point x="0" y="740" type="line"/>
      <point x="0" y="818" type="line"/>
      <point x="397" y="818" type="line" smooth="yes"/>
      <point x="420" y="818"/>
      <point x="449" y="857"/>
      <point x="449" y="883" type="qcurve" smooth="yes"/>
      <point x="449" y="942"/>
      <point x="410" y="974" type="qcurve"/>
      <point x="462" y="1026" type="line"/>
      <point x="540" y="960"/>
      <point x="540" y="883" type="qcurve" smooth="yes"/>
      <point x="540" y="831"/>
      <point x="481" y="752"/>
    </contour>
  </outline>
</glyph>
<glyph name="B" format="2">
  <advance width="557"/>
  <unicode hex="0042"/>
  <outline>
    <contour>
      <point x="355" y="160" type="curve" smooth="yes"/>
      <point x="386" y="160"/>
      <point x="414" y="171"/>
      <point x="436" y="191" type="curve" smooth="yes"/>
      <point x="458" y="211"/>
      <point x="470" y="236"/>
      <point x="470" y="265" type="curve" smooth="yes"/>
      <point x="470" y="298"/>
      <point x="458" y="327"/>
      <point x="436" y="350" type="curve" smooth="yes"/>
      <point x="414" y="373"/>
      <point x="386" y="385"/>
      <point x="355" y="385" type="curve"/>
      <point x="355" y="474" type="line"/>
      <point x="386" y="474"/>
      <point x="414" y="486"/>
      <point x="436" y="509" type="curve" smooth="yes"/>
      <point x="458" y="532"/>
      <point x="470" y="561"/>
      <point x="470" y="594" type="curve" smooth="yes"/>
      <point x="470" y="623"/>
      <point x="457" y="648"/>
      <point x="433" y="668" type="curve" smooth="yes"/>
      <point x="409" y="688"/>
      <point x="380" y="699"/>
      <point x="345" y="699" type="curve" smooth="yes"/>
      <point x="287" y="699"/>
      <point x="239" y="673"/>
      <point x="198" y="620" type="curve" smooth="yes"/>
      <point x="157" y="567"/>
      <point x="137" y="504"/>
      <point x="137" y="430" type="curve" smooth="yes"/>
      <point x="137" y="356"/>
      <point x="158" y="292"/>
      <point x="201" y="239" type="curve" smooth="yes"/>
      <point x="244" y="186"/>
      <point x="295" y="160"/>
    </contour>
    <contour>
      <point x="74" y="585" type="line"/>
      <point x="99" y="628"/>
      <point x="193" y="745"/>
      <point x="229" y="768" type="curve" smooth="yes"/>
      <point x="263" y="790"/>
      <point x="299" y="802"/>
      <point x="338" y="803" type="curve"/>
      <point x="338" y="804" type="line"/>
      <point x="372" y="815" type="line"/>
      <point x="390" y="815"/>
      <point x="405" y="821"/>
      <point x="418" y="834" type="curve" smooth="yes"/>
      <point x="431" y="847"/>
      <point x="437" y="862"/>
      <point x="437" y="880" type="curve" smooth="yes"/>
      <point x="437" y="895"/>
      <point x="433" y="910"/>
      <point x="424" y="926" type="curve" smooth="yes"/>
      <point x="415" y="942"/>
      <point x="402" y="957"/>
      <point x="385" y="971" type="curve"/>
      <point x="437" y="1023" type="line"/>
      <point x="462" y="1002"/>
      <point x="480" y="979"/>
      <point x="494" y="954" type="curve" smooth="yes"/>
      <point x="508" y="929"/>
      <point x="515" y="905"/>
      <point x="515" y="880" type="curve" smooth="yes"/>
      <point x="515" y="841"/>
      <point x="501" y="807"/>
      <point x="473" y="779" type="curve" smooth="yes"/>
      <point x="468" y="774"/>
      <point x="463" y="770"/>
      <point x="458" y="766" type="curve"/>
      <point x="467" y="759"/>
      <point x="476" y="751"/>
      <point x="484" y="742" type="curve" smooth="yes"/>
      <point x="523" y="701"/>
      <point x="542" y="652"/>
      <point x="542" y="594" type="curve" smooth="yes"/>
      <point x="542" y="556"/>
      <point x="533" y="523"/>
      <point x="516" y="492" type="curve" smooth="yes"/>
      <point x="499" y="461"/>
      <point x="477" y="441"/>
      <point x="449" y="430" type="curve"/>
      <point x="477" y="419"/>
      <point x="499" y="398"/>
      <point x="516" y="367" type="curve" smooth="yes"/>
      <point x="533" y="336"/>
      <point x="542" y="303"/>
      <point x="542" y="265" type="curve" smooth="yes"/>
      <point x="542" y="207"/>
      <point x="525" y="158"/>
      <point x="488" y="117" type="curve" smooth="yes"/>
      <point x="451" y="76"/>
      <point x="407" y="56"/>
      <point x="355" y="56" type="curve" smooth="yes"/>
      <point x="311" y="56"/>
      <point x="270" y="68"/>
      <point x="232" y="91" type="curve" smooth="yes"/>
      <point x="194" y="114"/>
      <point x="162" y="147"/>
      <point x="137" y="190" type="curve"/>
      <point x="137" y="56" type="line"/>
      <point x="74" y="56" type="line"/>
    </contour>
  </outline>
</glyph>
<glyph name="C" format="2">
  <advance width="664"/>
  <unicode hex="0043"/>
  <anchor x="4.5" y="406.5" name="Anchor-0"/>
  <outline>
    <contour>
      <point x="496.5" y="568.5" type="curve" smooth="yes"/>
      <point x="481.833" y="568.5"/>
      <point x="469.5" y="563.5"/>
      <point x="459.5" y="553.5" type="curve" smooth="yes"/>
      <point x="449.5" y="543.5"/>
      <point x="444.5" y="531.167"/>
      <point x="444.5" y="516.5" type="curve" smooth="yes"/>
      <point x="444.5" y="501.833"/>
      <point x="449.5" y="489.5"/>
      <point x="459.5" y="479.5" type="curve" smooth="yes"/>
      <point x="469.5" y="469.5"/>
      <point x="481.833" y="464.5"/>
      <point x="496.5" y="464.5" type="curve" smooth="yes"/>
      <point x="511.167" y="464.5"/>
      <point x="523.5" y="469.5"/>
      <point x="533.5" y="479.5" type="curve" smooth="yes"/>
      <point x="543.5" y="489.5"/>
      <point x="548.5" y="501.833"/>
      <point x="548.5" y="516.5" type="curve" smooth="yes"/>
      <point x="548.5" y="531.167"/>
      <point x="543.5" y="543.5"/>
      <point x="533.5" y="553.5" type="curve" smooth="yes"/>
      <point x="523.5" y="563.5"/>
      <point x="511.167" y="568.5"/>
    </contour>
    <contour>
      <point x="119.5" y="405.5" type="curve" smooth="yes"/>
      <point x="119.5" y="328.833"/>
      <point x="142" y="267.5"/>
      <point x="187" y="221.5" type="curve" smooth="yes"/>
      <point x="232" y="175.5"/>
      <point x="291.833" y="152.5"/>
      <point x="366.5" y="152.5" type="curve" smooth="yes"/>
      <point x="403.833" y="152.5"/>
      <point x="438.833" y="164.333"/>
      <point x="471.5" y="188" type="curve" smooth="yes"/>
      <point x="504.167" y="211.667"/>
      <point x="529.833" y="243.167"/>
      <point x="548.5" y="282.5" type="curve"/>
      <point x="626.5" y="230.5" type="line"/>
      <point x="602.5" y="179.167"/>
      <point x="567" y="138.167"/>
      <point x="520" y="107.5" type="curve" smooth="yes"/>
      <point x="473" y="76.833"/>
      <point x="421.833" y="61.5"/>
      <point x="366.5" y="61.5" type="curve" smooth="yes"/>
      <point x="264.5" y="61.5"/>
      <point x="182.667" y="92.833"/>
      <point x="121" y="155.5" type="curve" smooth="yes"/>
      <point x="59.333" y="218.167"/>
      <point x="28.5" y="301.5"/>
      <point x="28.5" y="405.5" type="curve" smooth="yes"/>
      <point x="28.5" y="510.167"/>
      <point x="59.333" y="593.833"/>
      <point x="121" y="656.5" type="curve" smooth="yes"/>
      <point x="158.447" y="694.554"/>
      <point x="203.33" y="721.054"/>
      <point x="255.65" y="736" type="curve"/>
      <point x="2" y="736" type="line"/>
      <point x="2" y="814" type="line"/>
      <point x="509" y="814" type="line" smooth="yes"/>
      <point x="527" y="814"/>
      <point x="542.333" y="820.333"/>
      <point x="555" y="833" type="curve" smooth="yes"/>
      <point x="567.667" y="845.667"/>
      <point x="574" y="861"/>
      <point x="574" y="879" type="curve" smooth="yes"/>
      <point x="574" y="894.333"/>
      <point x="569.5" y="909.833"/>
      <point x="560.5" y="925.5" type="curve" smooth="yes"/>
      <point x="551.5" y="941.167"/>
      <point x="538.667" y="956"/>
      <point x="522" y="970" type="curve"/>
      <point x="574" y="1022" type="line"/>
      <point x="598.667" y="1001.33"/>
      <point x="617.833" y="978.5"/>
      <point x="631.5" y="953.5" type="curve" smooth="yes"/>
      <point x="645.167" y="928.5"/>
      <point x="652" y="903.667"/>
      <point x="652" y="879" type="curve" smooth="yes"/>
      <point x="652" y="839.667"/>
      <point x="638" y="806"/>
      <point x="610" y="778" type="curve" smooth="yes"/>
      <point x="582" y="750"/>
      <point x="548.333" y="736"/>
      <point x="509" y="736" type="curve" smooth="yes"/>
      <point x="459.105" y="736" type="line"/>
      <point x="492.679" y="724.656"/>
      <point x="523.144" y="706.656"/>
      <point x="550.5" y="682" type="curve" smooth="yes"/>
      <point x="601.167" y="636.333"/>
      <point x="626.5" y="581.167"/>
      <point x="626.5" y="516.5" type="curve" smooth="yes"/>
      <point x="626.5" y="477.167"/>
      <point x="613.833" y="443.5"/>
      <point x="588.5" y="415.5" type="curve" smooth="yes"/>
      <point x="563.167" y="387.5"/>
      <point x="532.5" y="373.5"/>
      <point x="496.5" y="373.5" type="curve" smooth="yes"/>
      <point x="459.167" y="373.5"/>
      <point x="427.167" y="387.5"/>
      <point x="400.5" y="415.5" type="curve" smooth="yes"/>
      <point x="373.833" y="443.5"/>
      <point x="360.5" y="477.167"/>
      <point x="360.5" y="516.5" type="curve" smooth="yes"/>
      <point x="360.5" y="547.833"/>
      <point x="368.5" y="575.167"/>
      <point x="384.5" y="598.5" type="curve" smooth="yes"/>
      <point x="400.5" y="621.833"/>
      <point x="420.5" y="635.5"/>
      <point x="444.5" y="639.5" type="curve"/>
      <point x="436.5" y="646.167"/>
      <point x="425.833" y="651.167"/>
      <point x="412.5" y="654.5" type="curve" smooth="yes"/>
      <point x="399.167" y="657.833"/>
      <point x="383.833" y="659.5"/>
      <point x="366.5" y="659.5" type="curve" smooth="yes"/>
      <point x="291.833" y="659.5"/>
      <point x="232" y="636.333"/>
      <point x="187" y="590" type="curve" smooth="yes"/>
      <point x="142" y="543.667"/>
      <point x="119.5" y="482.167"/>
    </contour>
  </outline>
</glyph>
<glyph name="D" format="2">
  <advance width="664"/>
  <unicode hex="0044"/>
  <outline>
    <contour>
      <point x="2" y="815" type="line"/>
      <point x="509" y="815" type="line" smooth="yes"/>
      <point x="527" y="815"/>
      <point x="542.333" y="821.333"/>
      <point x="555" y="834" type="curve" smooth="yes"/>
      <point x="567.667" y="846.667"/>
      <point x="574" y="862"/>
      <point x="574" y="880" type="curve" smooth="yes"/>
      <point x="574" y="895.333"/>
      <point x="569.5" y="910.833"/>
      <point x="560.5" y="926.5" type="curve" smooth="yes"/>
      <point x="551.5" y="942.167"/>
      <point x="538.667" y="957"/>
      <point x="522" y="971" type="curve"/>
      <point x="574" y="1023" type="line"/>
      <point x="598.667" y="1002.33"/>
      <point x="617.833" y="979.5"/>
      <point x="631.5" y="954.5" type="curve" smooth="yes"/>
      <point x="645.167" y="929.5"/>
      <point x="652" y="904.667"/>
      <point x="652" y="880" type="curve" smooth="yes"/>
      <point x="652" y="840.667"/>
      <point x="638" y="807"/>
      <point x="610" y="779" type="curve" smooth="yes"/>
      <point x="582" y="751"/>
      <point x="548.333" y="737"/>
      <point x="509" y="737" type="curve" smooth="yes"/>
      <point x="160" y="737" type="line"/>
      <point x="162" y="136" type="line"/>
      <point x="309.6" y="135.65" type="line" smooth="yes"/>
      <point x="364.716" y="135.52"/>
      <point x="411.75" y="159.65"/>
      <point x="450.45" y="207.65" type="curve" smooth="yes"/>
      <point x="489.15" y="255.649"/>
      <point x="508.5" y="313.551"/>
      <point x="508.5" y="381.35" type="curve" smooth="yes"/>
      <point x="508.5" y="449.149"/>
      <point x="496.5" y="507.051"/>
      <point x="472.5" y="555.05" type="curve" smooth="yes"/>
      <point x="448.5" y="603.05"/>
      <point x="419.4" y="627.05"/>
      <point x="385.2" y="627.05" type="curve" smooth="yes"/>
      <point x="367.801" y="627.05"/>
      <point x="352.8" y="617.899"/>
      <point x="340.2" y="599.6" type="curve" smooth="yes"/>
      <point x="327.6" y="581.301"/>
      <point x="321.3" y="559.25"/>
      <point x="321.3" y="533.45" type="curve" smooth="yes"/>
      <point x="321.3" y="517.25"/>
      <point x="325.8" y="503.45"/>
      <point x="334.8" y="492.05" type="curve" smooth="yes"/>
      <point x="343.8" y="480.649"/>
      <point x="354.899" y="474.95"/>
      <point x="368.1" y="474.95" type="curve" smooth="yes"/>
      <point x="372.899" y="474.95"/>
      <point x="377.55" y="478.25"/>
      <point x="382.05" y="484.85" type="curve" smooth="yes"/>
      <point x="386.55" y="491.449"/>
      <point x="389.7" y="499.851"/>
      <point x="391.5" y="510.05" type="curve"/>
      <point x="438.3" y="510.05" type="line"/>
      <point x="438.3" y="481.25"/>
      <point x="431.399" y="456.5"/>
      <point x="417.6" y="435.8" type="curve" smooth="yes"/>
      <point x="403.801" y="415.1"/>
      <point x="387.3" y="404.75"/>
      <point x="368.1" y="404.75" type="curve" smooth="yes"/>
      <point x="335.7" y="404.75"/>
      <point x="308.1" y="417.35"/>
      <point x="285.3" y="442.55" type="curve" smooth="yes"/>
      <point x="262.5" y="467.75"/>
      <point x="251.1" y="498.051"/>
      <point x="251.1" y="533.45" type="curve" smooth="yes"/>
      <point x="251.1" y="578.45"/>
      <point x="263.7" y="617"/>
      <point x="288.9" y="649.1" type="curve" smooth="yes"/>
      <point x="314.1" y="681.2"/>
      <point x="344.4" y="697.25"/>
      <point x="379.8" y="697.25" type="curve" smooth="yes"/>
      <point x="438" y="697.25"/>
      <point x="487.649" y="666.351"/>
      <point x="528.75" y="604.55" type="curve" smooth="yes"/>
      <point x="569.851" y="542.75"/>
      <point x="590.4" y="468.351"/>
      <point x="590.4" y="381.35" type="curve" smooth="yes"/>
      <point x="590.4" y="290.75"/>
      <point x="562.95" y="213.5"/>
      <point x="508.05" y="149.6" type="curve" smooth="yes"/>
      <point x="453.15" y="85.7002"/>
      <point x="387" y="53.75"/>
      <point x="309.6" y="53.75" type="curve" smooth="yes"/>
      <point x="75.5996" y="53.75" type="line"/>
      <point x="75.5996" y="115.85" type="line"/>
      <point x="75.5996" y="135.65" type="line"/>
      <point x="74.1768" y="737" type="line"/>
      <point x="2" y="737" type="line"/>
    </contour>
  </outline>
</glyph>
<glyph name="E" format="2">
  <advance width="412"/>
  <unicode hex="0045"/>
  <outline>
    <contour>
      <point x="84" y="262" type="curve" smooth="yes"/>
      <point x="84" y="194"/>
      <point x="169" y="159"/>
      <point x="242" y="159" type="curve" smooth="yes"/>
      <point x="252" y="159"/>
      <point x="255" y="117"/>
      <point x="255" y="117" type="curve"/>
      <point x="255" y="117"/>
      <point x="252" y="68"/>
      <point x="242" y="68" type="curve" smooth="yes"/>
      <point x="177" y="68"/>
      <point x="120" y="86"/>
      <point x="74" y="124" type="curve" smooth="yes"/>
      <point x="28" y="162"/>
      <point x="6" y="208"/>
      <point x="6" y="262" type="curve" smooth="yes"/>
      <point x="6" y="339"/>
      <point x="62" y="396"/>
      <point x="122" y="418" type="curve"/>
      <point x="61" y="441"/>
      <point x="6" y="497"/>
      <point x="6" y="575" type="curve" smooth="yes"/>
      <point x="6" y="622"/>
      <point x="23" y="661"/>
      <point x="59" y="694" type="curve" smooth="yes"/>
      <point x="81" y="714"/>
      <point x="105" y="733"/>
      <point x="132" y="744" type="curve"/>
      <point x="-3" y="744" type="line"/>
      <point x="-3" y="822" type="line"/>
      <point x="248" y="822" type="line" smooth="yes"/>
      <point x="284" y="822"/>
      <point x="313" y="851"/>
      <point x="313" y="887" type="curve" smooth="yes"/>
      <point x="313" y="928"/>
      <point x="287" y="956"/>
      <point x="261" y="978" type="curve"/>
      <point x="313" y="1030" type="line"/>
      <point x="352" y="998"/>
      <point x="391" y="949"/>
      <point x="391" y="887" type="curve" smooth="yes"/>
      <point x="391" y="809"/>
      <point x="326" y="744"/>
      <point x="248" y="744" type="curve" smooth="yes"/>
      <point x="241" y="744" type="line"/>
      <point x="286" y="725"/>
      <point x="318" y="669"/>
      <point x="318" y="614" type="curve" smooth="yes"/>
      <point x="318" y="554"/>
      <point x="258" y="515"/>
      <point x="200" y="510" type="curve"/>
      <point x="200" y="575" type="line"/>
      <point x="222" y="575"/>
      <point x="240" y="592"/>
      <point x="240" y="614" type="curve" smooth="yes"/>
      <point x="240" y="639"/>
      <point x="202" y="652"/>
      <point x="174" y="652" type="curve" smooth="yes"/>
      <point x="127" y="652"/>
      <point x="84" y="621"/>
      <point x="84" y="575" type="curve" smooth="yes"/>
      <point x="84" y="503"/>
      <point x="163" y="458"/>
      <point x="240" y="458" type="curve"/>
      <point x="240" y="380" type="line"/>
      <point x="164" y="380"/>
      <point x="84" y="334"/>
    </contour>
  </outline>
</glyph>
<glyph name="F" format="2">
  <advance width="664"/>
  <unicode hex="0046"/>
  <outline>
    <contour>
      <point x="2" y="815" type="line"/>
      <point x="509" y="815" type="line" smooth="yes"/>
      <point x="527" y="815"/>
      <point x="542.333" y="821.333"/>
      <point x="555" y="834" type="curve" smooth="yes"/>
      <point x="567.667" y="846.667"/>
      <point x="574" y="862"/>
      <point x="574" y="880" type="curve" smooth="yes"/>
      <point x="574" y="895.333"/>
      <point x="569.5" y="910.833"/>
      <point x="560.5" y="926.5" type="curve" smooth="yes"/>
      <point x="551.5" y="942.167"/>
      <point x="538.667" y="957"/>
      <point x="522" y="971" type="curve"/>
      <point x="574" y="1023" type="line"/>
      <point x="598.667" y="1002.33"/>
      <point x="617.833" y="979.5"/>
      <point x="631.5" y="954.5" type="curve" smooth="yes"/>
      <point x="645.167" y="929.5"/>
      <point x="652" y="904.667"/>
      <point x="652" y="880" type="curve" smooth="yes"/>
      <point x="652" y="840.667"/>
      <point x="638" y="807"/>
      <point x="610" y="779" type="curve" smooth="yes"/>
      <point x="582" y="751"/>
      <point x="548.333" y="737"/>
      <point x="509" y="737" type="curve" smooth="yes"/>
      <point x="288" y="737" type="line"/>
      <point x="288" y="453" type="line"/>
      <point x="422" y="453" type="line" smooth="yes"/>
      <point x="447.333" y="453"/>
      <point x="468.833" y="460.667"/>
      <point x="486.5" y="476" type="curve" smooth="yes"/>
      <point x="504.167" y="491.333"/>
      <point x="513" y="509.667"/>
      <point x="513" y="531" type="curve" smooth="yes"/>
      <point x="513" y="549"/>
      <point x="506.667" y="564.333"/>
      <point x="494" y="577" type="curve" smooth="yes"/>
      <point x="481.333" y="589.667"/>
      <point x="466" y="596"/>
      <point x="448" y="596" type="curve" smooth="yes"/>
      <point x="440" y="596"/>
      <point x="433" y="594.833"/>
      <point x="427" y="592.5" type="curve" smooth="yes"/>
      <point x="421" y="590.167"/>
      <point x="417.333" y="587"/>
      <point x="416" y="583" type="curve"/>
      <point x="427.333" y="581"/>
      <point x="436.667" y="575.167"/>
      <point x="444" y="565.5" type="curve" smooth="yes"/>
      <point x="451.333" y="555.833"/>
      <point x="455" y="544.333"/>
      <point x="455" y="531" type="curve" smooth="yes"/>
      <point x="455" y="516.333"/>
      <point x="449.167" y="504"/>
      <point x="437.5" y="494" type="curve" smooth="yes"/>
      <point x="425.833" y="484"/>
      <point x="412" y="479"/>
      <point x="396" y="479" type="curve" smooth="yes"/>
      <point x="378" y="479"/>
      <point x="362.667" y="486.667"/>
      <point x="350" y="502" type="curve" smooth="yes"/>
      <point x="337.333" y="517.333"/>
      <point x="331" y="535.667"/>
      <point x="331" y="557" type="curve" smooth="yes"/>
      <point x="331" y="589"/>
      <point x="342.5" y="616.5"/>
      <point x="365.5" y="639.5" type="curve" smooth="yes"/>
      <point x="388.5" y="662.5"/>
      <point x="416" y="674"/>
      <point x="448" y="674" type="curve" smooth="yes"/>
      <point x="487.333" y="674"/>
      <point x="521" y="660"/>
      <point x="549" y="632" type="curve" smooth="yes"/>
      <point x="577" y="604"/>
      <point x="591" y="570.333"/>
      <point x="591" y="531" type="curve" smooth="yes"/>
      <point x="591" y="487.667"/>
      <point x="574.5" y="450.833"/>
      <point x="541.5" y="420.5" type="curve" smooth="yes"/>
      <point x="508.5" y="390.167"/>
      <point x="468.667" y="375"/>
      <point x="422" y="375" type="curve" smooth="yes"/>
      <point x="288" y="375" type="line"/>
      <point x="288" y="202.263" type="line" smooth="yes"/>
      <point x="288" y="162.93"/>
      <point x="274" y="129.263"/>
      <point x="246" y="101.263" type="curve" smooth="yes"/>
      <point x="218" y="73.2627"/>
      <point x="184.333" y="59.2627"/>
      <point x="145" y="59.2627" type="curve" smooth="yes"/>
      <point x="120.333" y="59.2627"/>
      <point x="95.5" y="66.0957"/>
      <point x="70.5" y="79.7627" type="curve" smooth="yes"/>
      <point x="45.5" y="93.4297"/>
      <point x="22.667" y="112.596"/>
      <point x="2" y="137.263" type="curve"/>
      <point x="54" y="189.263" type="line"/>
      <point x="68" y="172.596"/>
      <point x="82.833" y="159.763"/>
      <point x="98.5" y="150.763" type="curve" smooth="yes"/>
      <point x="114.167" y="141.763"/>
      <point x="129.667" y="137.263"/>
      <point x="145" y="137.263" type="curve" smooth="yes"/>
      <point x="163" y="137.263"/>
      <point x="178.333" y="143.596"/>
      <point x="191" y="156.263" type="curve" smooth="yes"/>
      <point x="203.667" y="168.93"/>
      <point x="210" y="184.263"/>
      <point x="210" y="202.263" type="curve" smooth="yes"/>
      <point x="210" y="737" type="line"/>
      <point x="2" y="737" type="line"/>
    </contour>
  </outline>
</glyph>
<glyph name="G" format="2">
  <advance width="664"/>
  <unicode hex="0047"/>
  <outline>
    <contour>
      <point x="596" y="228" type="qcurve" smooth="yes"/>
      <point x="596" y="299"/>
      <point x="517" y="392"/>
      <point x="453" y="392" type="qcurve" smooth="yes"/>
      <point x="423" y="392"/>
      <point x="359" y="356"/>
      <point x="349" y="337" type="qcurve"/>
      <point x="349" y="449" type="line"/>
      <point x="258" y="449" type="line"/>
      <point x="258" y="222" type="line"/>
      <point x="349" y="222" type="line"/>
      <point x="362" y="263"/>
      <point x="401" y="302"/>
      <point x="437" y="302" type="qcurve" smooth="yes"/>
      <point x="466" y="302"/>
      <point x="504" y="259"/>
      <point x="504" y="231" type="qcurve" smooth="yes"/>
      <point x="504" y="222" type="line" smooth="yes"/>
      <point x="501" y="186"/>
      <point x="435" y="160" type="qcurve" smooth="yes"/>
      <point x="393" y="144"/>
      <point x="347" y="144" type="qcurve" smooth="yes"/>
      <point x="252" y="144"/>
      <point x="154" y="221" type="qcurve" smooth="yes"/>
      <point x="92" y="271"/>
      <point x="82" y="405" type="qcurve" smooth="yes"/>
      <point x="82" y="408"/>
      <point x="81" y="418"/>
      <point x="81" y="421" type="qcurve" smooth="yes"/>
      <point x="81" y="504"/>
      <point x="153" y="584" type="qcurve" smooth="yes"/>
      <point x="212" y="650"/>
      <point x="323" y="650" type="qcurve"/>
      <point x="310" y="611"/>
      <point x="310" y="592" type="qcurve" smooth="yes"/>
      <point x="310" y="537"/>
      <point x="396" y="462"/>
      <point x="453" y="462" type="qcurve" smooth="yes"/>
      <point x="509" y="462"/>
      <point x="596" y="533"/>
      <point x="596" y="585" type="qcurve" smooth="yes"/>
      <point x="596" y="649"/>
      <point x="487" y="727"/>
      <point x="409" y="737" type="qcurve"/>
      <point x="509" y="737" type="line" smooth="yes"/>
      <point x="568" y="737"/>
      <point x="652" y="822"/>
      <point x="652" y="880" type="qcurve" smooth="yes"/>
      <point x="652" y="957"/>
      <point x="574" y="1023" type="qcurve"/>
      <point x="522" y="971" type="line"/>
      <point x="574" y="927"/>
      <point x="574" y="880" type="qcurve" smooth="yes"/>
      <point x="574" y="853"/>
      <point x="536" y="815"/>
      <point x="509" y="815" type="qcurve" smooth="yes"/>
      <point x="2" y="815" type="line"/>
      <point x="2" y="737" type="line"/>
      <point x="280" y="737" type="line"/>
      <point x="165" y="722"/>
      <point x="92" y="650" type="qcurve" smooth="yes"/>
      <point x="-2" y="560"/>
      <point x="-2" y="410" type="qcurve" smooth="yes"/>
      <point x="-2" y="258"/>
      <point x="93" y="155" type="qcurve" smooth="yes"/>
      <point x="188" y="53"/>
      <point x="345" y="53" type="qcurve" smooth="yes"/>
      <point x="449" y="53"/>
      <point x="596" y="145"/>
    </contour>
    <contour>
      <point x="512" y="592" type="qcurve" smooth="yes"/>
      <point x="512" y="574"/>
      <point x="475" y="553"/>
      <point x="431" y="553"/>
      <point x="395" y="574"/>
      <point x="395" y="592" type="qcurve" smooth="yes"/>
      <point x="395" y="612"/>
      <point x="430" y="637"/>
      <point x="453" y="637" type="qcurve" smooth="yes"/>
      <point x="475" y="637"/>
      <point x="512" y="611"/>
    </contour>
  </outline>
</glyph>
<glyph name="H" format="2">
  <advance width="770"/>
  <unicode hex="0048"/>
  <outline>
    <contour>
      <point x="457" y="723.35" type="curve" smooth="yes"/>
      <point x="457" y="708.684"/>
      <point x="459.833" y="692.366"/>
      <point x="465.5" y="674.4" type="curve" smooth="yes"/>
      <point x="471.167" y="656.434"/>
      <point x="479.333" y="637.184"/>
      <point x="490" y="616.65" type="curve"/>
      <point x="506.667" y="648.184"/>
      <point x="518.333" y="671.65"/>
      <point x="525" y="687.05" type="curve" smooth="yes"/>
      <point x="531.667" y="702.45"/>
      <point x="535" y="714.55"/>
      <point x="535" y="723.35" type="curve" smooth="yes"/>
      <point x="535" y="735.084"/>
      <point x="531.167" y="745.166"/>
      <point x="523.5" y="753.6" type="curve" smooth="yes"/>
      <point x="515.833" y="762.034"/>
      <point x="506.667" y="766.25"/>
      <point x="496" y="766.25" type="curve" smooth="yes"/>
      <point x="485.333" y="766.25"/>
      <point x="476.167" y="762.034"/>
      <point x="468.5" y="753.6" type="curve" smooth="yes"/>
      <point x="460.833" y="745.166"/>
      <point x="457" y="735.084"/>
    </contour>
    <contour>
      <point x="106" y="194.25" type="curve" smooth="yes"/>
      <point x="106" y="178.116"/>
      <point x="109.833" y="164.55"/>
      <point x="117.5" y="153.55" type="curve" smooth="yes"/>
      <point x="125.167" y="142.55"/>
      <point x="134.333" y="137.05"/>
      <point x="145" y="137.05" type="curve" smooth="yes"/>
      <point x="173" y="137.05"/>
      <point x="198.167" y="159.05"/>
      <point x="220.5" y="203.05" type="curve" smooth="yes"/>
      <point x="242.833" y="247.05"/>
      <point x="256.667" y="301.316"/>
      <point x="262" y="365.85" type="curve"/>
      <point x="215.333" y="346.784"/>
      <point x="177.667" y="321.666"/>
      <point x="149" y="290.5" type="curve" smooth="yes"/>
      <point x="120.333" y="259.334"/>
      <point x="106" y="227.25"/>
    </contour>
    <contour>
      <point x="15" y="694.75" type="curve" smooth="yes"/>
      <point x="15" y="734.35"/>
      <point x="27.667" y="768.084"/>
      <point x="53" y="795.95" type="curve" smooth="yes"/>
      <point x="78.333" y="823.816"/>
      <point x="109" y="837.75"/>
      <point x="145" y="837.75" type="curve" smooth="yes"/>
      <point x="197" y="837.75"/>
      <point x="241.5" y="802.184"/>
      <point x="278.5" y="731.05" type="curve" smooth="yes"/>
      <point x="315.5" y="659.916"/>
      <point x="334" y="574.116"/>
      <point x="334" y="473.65" type="curve"/>
      <point x="354.667" y="483.916"/>
      <point x="373.667" y="495.65"/>
      <point x="391" y="508.85" type="curve" smooth="yes"/>
      <point x="408.333" y="522.05"/>
      <point x="424" y="536.35"/>
      <point x="438" y="551.75" type="curve"/>
      <point x="422.667" y="580.35"/>
      <point x="411.167" y="609.316"/>
      <point x="403.5" y="638.65" type="curve" smooth="yes"/>
      <point x="395.833" y="667.983"/>
      <point x="392" y="696.216"/>
      <point x="392" y="723.35" type="curve" smooth="yes"/>
      <point x="392" y="754.884"/>
      <point x="402.167" y="781.834"/>
      <point x="422.5" y="804.2" type="curve" smooth="yes"/>
      <point x="442.833" y="826.566"/>
      <point x="467.333" y="837.75"/>
      <point x="496" y="837.75" type="curve" smooth="yes"/>
      <point x="517.995" y="837.75"/>
      <point x="537.537" y="831.167"/>
      <point x="554.625" y="818" type="curve"/>
      <point x="616" y="818" type="line" smooth="yes"/>
      <point x="634" y="818"/>
      <point x="649.333" y="824.333"/>
      <point x="662" y="837" type="curve" smooth="yes"/>
      <point x="674.667" y="849.667"/>
      <point x="681" y="865"/>
      <point x="681" y="883" type="curve" smooth="yes"/>
      <point x="681" y="898.333"/>
      <point x="676.5" y="913.833"/>
      <point x="667.5" y="929.5" type="curve" smooth="yes"/>
      <point x="658.5" y="945.167"/>
      <point x="645.667" y="960"/>
      <point x="629" y="974" type="curve"/>
      <point x="681" y="1026" type="line"/>
      <point x="705.667" y="1005.33"/>
      <point x="724.833" y="982.5"/>
      <point x="738.5" y="957.5" type="curve" smooth="yes"/>
      <point x="752.167" y="932.5"/>
      <point x="759" y="907.667"/>
      <point x="759" y="883" type="curve" smooth="yes"/>
      <point x="759" y="843.667"/>
      <point x="745" y="810"/>
      <point x="717" y="782" type="curve" smooth="yes"/>
      <point x="689" y="754"/>
      <point x="655.333" y="740"/>
      <point x="616" y="740" type="curve" smooth="yes"/>
      <point x="599.003" y="740" type="line"/>
      <point x="599.668" y="734.6"/>
      <point x="600" y="729.05"/>
      <point x="600" y="723.35" type="curve" smooth="yes"/>
      <point x="600" y="691.084"/>
      <point x="592.667" y="659.55"/>
      <point x="578" y="628.75" type="curve" smooth="yes"/>
      <point x="563.333" y="597.95"/>
      <point x="542.667" y="570.084"/>
      <point x="516" y="545.15" type="curve"/>
      <point x="535.333" y="500.416"/>
      <point x="549.833" y="455.684"/>
      <point x="559.5" y="410.95" type="curve" smooth="yes"/>
      <point x="569.167" y="366.216"/>
      <point x="574" y="322.584"/>
      <point x="574" y="280.05" type="curve" smooth="yes"/>
      <point x="574" y="234.584"/>
      <point x="562.333" y="191.5"/>
      <point x="539" y="150.8" type="curve" smooth="yes"/>
      <point x="515.667" y="110.1"/>
      <point x="484" y="76.916"/>
      <point x="444" y="51.25" type="curve"/>
      <point x="392" y="122.75" type="line"/>
      <point x="424" y="143.283"/>
      <point x="449.333" y="167.483"/>
      <point x="468" y="195.35" type="curve" smooth="yes"/>
      <point x="486.667" y="223.216"/>
      <point x="496" y="251.45"/>
      <point x="496" y="280.05" type="curve" smooth="yes"/>
      <point x="496" y="325.517"/>
      <point x="493.333" y="366.4"/>
      <point x="488" y="402.7" type="curve" smooth="yes"/>
      <point x="482.667" y="439"/>
      <point x="474.667" y="469.616"/>
      <point x="464" y="494.55" type="curve"/>
      <point x="440.667" y="473.284"/>
      <point x="418.667" y="454.767"/>
      <point x="398" y="439" type="curve" smooth="yes"/>
      <point x="377.333" y="423.233"/>
      <point x="358" y="410.95"/>
      <point x="340" y="402.15" type="curve"/>
      <point x="340" y="305.35"/>
      <point x="321" y="222.666"/>
      <point x="283" y="154.1" type="curve" smooth="yes"/>
      <point x="245" y="85.5332"/>
      <point x="199" y="51.25"/>
      <point x="145" y="51.25" type="curve" smooth="yes"/>
      <point x="109" y="51.25"/>
      <point x="78.333" y="65.1836"/>
      <point x="53" y="93.0498" type="curve" smooth="yes"/>
      <point x="27.667" y="120.916"/>
      <point x="15" y="154.65"/>
      <point x="15" y="194.25" type="curve" smooth="yes"/>
      <point x="15" y="239.716"/>
      <point x="37.667" y="285.55"/>
      <point x="83" y="331.75" type="curve" smooth="yes"/>
      <point x="128.333" y="377.95"/>
      <point x="188" y="415.716"/>
      <point x="262" y="445.05" type="curve"/>
      <point x="262" y="530.116"/>
      <point x="250.5" y="602.534"/>
      <point x="227.5" y="662.3" type="curve" smooth="yes"/>
      <point x="204.5" y="722.066"/>
      <point x="177" y="751.95"/>
      <point x="145" y="751.95" type="curve" smooth="yes"/>
      <point x="130.333" y="751.95"/>
      <point x="118" y="746.45"/>
      <point x="108" y="735.45" type="curve" smooth="yes"/>
      <point x="98" y="724.45"/>
      <point x="93" y="710.884"/>
      <point x="93" y="694.75" type="curve" smooth="yes"/>
      <point x="93" y="678.616"/>
      <point x="98" y="665.05"/>
      <point x="108" y="654.05" type="curve" smooth="yes"/>
      <point x="118" y="643.05"/>
      <point x="130.333" y="637.55"/>
      <point x="145" y="637.55" type="curve" smooth="yes"/>
      <point x="149.667" y="637.55"/>
      <point x="154.333" y="638.834"/>
      <point x="159" y="641.4" type="curve" smooth="yes"/>
      <point x="163.667" y="643.966"/>
      <point x="167.667" y="647.45"/>
      <point x="171" y="651.85" type="curve"/>
      <point x="210" y="594.65" type="line"/>
      <point x="194.667" y="580.716"/>
      <point x="181.5" y="570.084"/>
      <point x="170.5" y="562.75" type="curve" smooth="yes"/>
      <point x="159.5" y="555.416"/>
      <point x="151" y="551.75"/>
      <point x="145" y="551.75" type="curve" smooth="yes"/>
      <point x="109" y="551.75"/>
      <point x="78.333" y="565.684"/>
      <point x="53" y="593.55" type="curve" smooth="yes"/>
      <point x="27.667" y="621.416"/>
      <point x="15" y="655.15"/>
    </contour>
  </outline>
</glyph>
<glyph name="I" format="2">
  <advance width="372"/>
  <unicode hex="0049"/>
  <outline>
    <contour>
      <point x="-2" y="814" type="line"/>
      <point x="211" y="815" type="line" smooth="yes"/>
      <point x="229" y="815"/>
      <point x="244" y="821"/>
      <point x="257" y="834" type="curve" smooth="yes"/>
      <point x="270" y="847"/>
      <point x="276" y="862"/>
      <point x="276" y="880" type="curve" smooth="yes"/>
      <point x="276" y="895"/>
      <point x="271" y="910"/>
      <point x="262" y="926" type="curve" smooth="yes"/>
      <point x="253" y="942"/>
      <point x="241" y="957"/>
      <point x="224" y="971" type="curve"/>
      <point x="276" y="1023" type="line"/>
      <point x="301" y="1002"/>
      <point x="320" y="979"/>
      <point x="334" y="954" type="curve" smooth="yes"/>
      <point x="348" y="929"/>
      <point x="354" y="905"/>
      <point x="354" y="880" type="curve" smooth="yes"/>
      <point x="354" y="841"/>
      <point x="340" y="807"/>
      <point x="312" y="779" type="curve" smooth="yes"/>
      <point x="284" y="751"/>
      <point x="250" y="737"/>
      <point x="211" y="737" type="curve" smooth="yes"/>
      <point x="146" y="737" type="line"/>
      <point x="146" y="57" type="line"/>
      <point x="72" y="57" type="line"/>
      <point x="72" y="736" type="line"/>
      <point x="-2" y="736" type="line"/>
    </contour>
  </outline>
</glyph>
<glyph name="J" format="2">
  <advance width="654"/>
  <unicode hex="004A"/>
  <outline>
    <contour>
      <point x="250.04" y="338.351" type="curve" smooth="yes"/>
      <point x="246.94" y="331.704"/>
      <point x="246.6" y="325.059"/>
      <point x="249.019" y="318.415" type="curve" smooth="yes"/>
      <point x="251.437" y="311.77"/>
      <point x="255.969" y="306.897"/>
      <point x="262.615" y="303.798" type="curve" smooth="yes"/>
      <point x="269.262" y="300.699"/>
      <point x="275.907" y="300.358"/>
      <point x="282.552" y="302.778" type="curve" smooth="yes"/>
      <point x="289.197" y="305.195"/>
      <point x="294.068" y="309.729"/>
      <point x="297.167" y="316.374" type="curve" smooth="yes"/>
      <point x="300.268" y="323.021"/>
      <point x="300.606" y="329.666"/>
      <point x="298.189" y="336.312" type="curve" smooth="yes"/>
      <point x="295.771" y="342.955"/>
      <point x="291.237" y="347.827"/>
      <point x="284.592" y="350.926" type="curve" smooth="yes"/>
      <point x="277.945" y="354.025"/>
      <point x="271.3" y="354.366"/>
      <point x="264.655" y="351.948" type="curve" smooth="yes"/>
      <point x="258.011" y="349.528"/>
      <point x="253.139" y="344.996"/>
    </contour>
    <contour>
      <point x="113.573" y="322.543" type="curve" smooth="yes"/>
      <point x="132.732" y="363.628"/>
      <point x="161.691" y="392.604"/>
      <point x="200.45" y="409.471" type="curve" smooth="yes"/>
      <point x="239.209" y="426.338"/>
      <point x="276.413" y="426.459"/>
      <point x="312.062" y="409.836" type="curve" smooth="yes"/>
      <point x="335.022" y="399.13"/>
      <point x="350.773" y="382.038"/>
      <point x="359.318" y="358.561" type="curve" smooth="yes"/>
      <point x="367.863" y="335.083"/>
      <point x="366.783" y="311.864"/>
      <point x="356.077" y="288.904" type="curve" smooth="yes"/>
      <point x="345.371" y="265.944"/>
      <point x="328.279" y="250.191"/>
      <point x="304.801" y="241.646" type="curve" smooth="yes"/>
      <point x="281.324" y="233.102"/>
      <point x="258.105" y="234.182"/>
      <point x="235.146" y="244.888" type="curve" smooth="yes"/>
      <point x="222.456" y="250.806"/>
      <point x="212.869" y="260.61"/>
      <point x="206.381" y="274.301" type="curve" smooth="yes"/>
      <point x="199.892" y="287.991"/>
      <point x="197.169" y="303.054"/>
      <point x="198.211" y="319.486" type="curve"/>
      <point x="193.54" y="315.78"/>
      <point x="189.333" y="311.488"/>
      <point x="185.589" y="306.614" type="curve" smooth="yes"/>
      <point x="181.845" y="301.741"/>
      <point x="178.846" y="296.887"/>
      <point x="176.592" y="292.053" type="curve" smooth="yes"/>
      <point x="163.913" y="264.863"/>
      <point x="164.093" y="236.461"/>
      <point x="177.13" y="206.843" type="curve" smooth="yes"/>
      <point x="190.168" y="177.224"/>
      <point x="212.396" y="155.09"/>
      <point x="243.814" y="140.438" type="curve" smooth="yes"/>
      <point x="276.441" y="125.224"/>
      <point x="310.646" y="126.01"/>
      <point x="346.425" y="142.794" type="curve" smooth="yes"/>
      <point x="382.203" y="159.579"/>
      <point x="409.25" y="187.608"/>
      <point x="427.562" y="226.882" type="curve" smooth="yes"/>
      <point x="448.131" y="270.988"/>
      <point x="461.74" y="315.95"/>
      <point x="468.393" y="361.765" type="curve" smooth="yes"/>
      <point x="475.045" y="407.579"/>
      <point x="474.497" y="776.152"/>
      <point x="466.752" y="819.485" type="curve"/>
      <point x="526.696" y="819.093" type="line" smooth="yes"/>
      <point x="537.274" y="822.845"/>
      <point x="546.708" y="829.708"/>
      <point x="555" y="838" type="curve" smooth="yes"/>
      <point x="567.667" y="850.667"/>
      <point x="574" y="866"/>
      <point x="574" y="884" type="curve" smooth="yes"/>
      <point x="574" y="899.333"/>
      <point x="569.5" y="914.833"/>
      <point x="560.5" y="930.5" type="curve" smooth="yes"/>
      <point x="551.5" y="946.167"/>
      <point x="538.667" y="961"/>
      <point x="522" y="975" type="curve"/>
      <point x="574" y="1027" type="line"/>
      <point x="598.667" y="1006.33"/>
      <point x="617.833" y="983.5"/>
      <point x="631.5" y="958.5" type="curve" smooth="yes"/>
      <point x="645.167" y="933.5"/>
      <point x="652" y="908.667"/>
      <point x="652" y="884" type="curve" smooth="yes"/>
      <point x="652" y="844.667"/>
      <point x="638" y="811"/>
      <point x="610" y="783" type="curve" smooth="yes"/>
      <point x="591.776" y="764.776"/>
      <point x="571.152" y="752.483"/>
      <point x="548.127" y="746.12" type="curve"/>
      <point x="549.705" y="618.184"/>
      <point x="547.294" y="376.617"/>
      <point x="540.894" y="336.231" type="curve" smooth="yes"/>
      <point x="532.755" y="284.858"/>
      <point x="518.54" y="237.42"/>
      <point x="498.256" y="193.918" type="curve" smooth="yes"/>
      <point x="471.771" y="137.122"/>
      <point x="430.663" y="97.0771"/>
      <point x="374.93" y="73.7822" type="curve" smooth="yes"/>
      <point x="319.195" y="50.4863"/>
      <point x="265.348" y="50.9541"/>
      <point x="213.386" y="75.1846" type="curve" smooth="yes"/>
      <point x="164.445" y="98.0059"/>
      <point x="130.293" y="133.607"/>
      <point x="110.926" y="181.993" type="curve" smooth="yes"/>
      <point x="91.5596" y="230.377"/>
      <point x="92.4424" y="277.227"/>
    </contour>
  </outline>
</glyph>
<glyph name="K" format="2">
  <advance width="745"/>
  <unicode hex="004B"/>
  <outline>
    <contour>
      <point x="298" y="534.727" type="curve"/>
      <point x="298" y="390.383" type="line"/>
      <point x="298.911" y="394.147"/>
      <point x="299.911" y="397.852"/>
      <point x="301" y="401.5" type="curve" smooth="yes"/>
      <point x="307.667" y="423.833"/>
      <point x="317.333" y="442.667"/>
      <point x="330" y="458" type="curve"/>
      <point x="317.333" y="480"/>
      <point x="307.667" y="502"/>
      <point x="301" y="524" type="curve" smooth="yes"/>
      <point x="299.911" y="527.593"/>
      <point x="298.911" y="531.169"/>
    </contour>
    <contour>
      <point x="428" y="447" type="curve"/>
      <point x="450" y="428.333"/>
      <point x="471.667" y="414"/>
      <point x="493" y="404" type="curve" smooth="yes"/>
      <point x="514.333" y="394"/>
      <point x="533.667" y="389"/>
      <point x="551" y="389" type="curve" smooth="yes"/>
      <point x="565.667" y="389"/>
      <point x="578" y="394.667"/>
      <point x="588" y="406" type="curve" smooth="yes"/>
      <point x="598" y="417.333"/>
      <point x="603" y="431"/>
      <point x="603" y="447" type="curve" smooth="yes"/>
      <point x="603" y="463"/>
      <point x="596.667" y="476.833"/>
      <point x="584" y="488.5" type="curve" smooth="yes"/>
      <point x="571.333" y="500.167"/>
      <point x="556" y="506"/>
      <point x="538" y="506" type="curve" smooth="yes"/>
      <point x="525.333" y="506"/>
      <point x="509.5" y="501"/>
      <point x="490.5" y="491" type="curve" smooth="yes"/>
      <point x="471.5" y="481"/>
      <point x="450.667" y="466.333"/>
    </contour>
    <contour>
      <point x="220" y="823" type="line"/>
      <point x="298" y="823" type="line"/>
      <point x="298" y="651.309" type="line"/>
      <point x="308.71" y="690.153"/>
      <point x="331.71" y="724.55"/>
      <point x="367" y="754.5" type="curve" smooth="yes"/>
      <point x="417.667" y="797.5"/>
      <point x="479" y="819"/>
      <point x="551" y="819" type="curve"/>
      <point x="569" y="817.531" type="line"/>
      <point x="569" y="819" type="line"/>
      <point x="603" y="815" type="line" smooth="yes"/>
      <point x="621" y="815"/>
      <point x="636.333" y="821.333"/>
      <point x="649" y="834" type="curve" smooth="yes"/>
      <point x="661.667" y="846.667"/>
      <point x="668" y="862"/>
      <point x="668" y="880" type="curve" smooth="yes"/>
      <point x="668" y="895.333"/>
      <point x="663.5" y="910.833"/>
      <point x="654.5" y="926.5" type="curve" smooth="yes"/>
      <point x="645.5" y="942.167"/>
      <point x="632.667" y="957"/>
      <point x="616" y="971" type="curve"/>
      <point x="668" y="1023" type="line"/>
      <point x="692.667" y="1002.33"/>
      <point x="711.833" y="979.5"/>
      <point x="725.5" y="954.5" type="curve" smooth="yes"/>
      <point x="739.167" y="929.5"/>
      <point x="746" y="904.667"/>
      <point x="746" y="880" type="curve" smooth="yes"/>
      <point x="746" y="840.667"/>
      <point x="732" y="807"/>
      <point x="704" y="779" type="curve" smooth="yes"/>
      <point x="676" y="751"/>
      <point x="642.333" y="737"/>
      <point x="603" y="737" type="curve"/>
      <point x="569" y="741" type="line"/>
      <point x="551" y="741" type="line" smooth="yes"/>
      <point x="504.333" y="741"/>
      <point x="464.5" y="727"/>
      <point x="431.5" y="699" type="curve" smooth="yes"/>
      <point x="398.5" y="671"/>
      <point x="382" y="637.333"/>
      <point x="382" y="598" type="curve" smooth="yes"/>
      <point x="382" y="584"/>
      <point x="382.667" y="572"/>
      <point x="384" y="562" type="curve" smooth="yes"/>
      <point x="385.333" y="552"/>
      <point x="387" y="543.667"/>
      <point x="389" y="537" type="curve"/>
      <point x="408.333" y="556.333"/>
      <point x="432" y="571.333"/>
      <point x="460" y="582" type="curve" smooth="yes"/>
      <point x="488" y="592.667"/>
      <point x="518.333" y="598"/>
      <point x="551" y="598" type="curve" smooth="yes"/>
      <point x="587" y="598"/>
      <point x="617.667" y="585.333"/>
      <point x="643" y="560" type="curve" smooth="yes"/>
      <point x="668.333" y="534.667"/>
      <point x="681" y="504"/>
      <point x="681" y="468" type="curve" smooth="yes"/>
      <point x="681" y="432"/>
      <point x="668.333" y="401.333"/>
      <point x="643" y="376" type="curve" smooth="yes"/>
      <point x="617.667" y="350.667"/>
      <point x="587" y="338"/>
      <point x="551" y="338" type="curve" smooth="yes"/>
      <point x="520.333" y="338"/>
      <point x="491.667" y="342.5"/>
      <point x="465" y="351.5" type="curve" smooth="yes"/>
      <point x="438.333" y="360.5"/>
      <point x="415" y="373.333"/>
      <point x="395" y="390" type="curve"/>
      <point x="391" y="378"/>
      <point x="387.833" y="367.667"/>
      <point x="385.5" y="359" type="curve" smooth="yes"/>
      <point x="383.167" y="350.333"/>
      <point x="382" y="343.333"/>
      <point x="382" y="338" type="curve" smooth="yes"/>
      <point x="382" y="301.333"/>
      <point x="392.833" y="268.5"/>
      <point x="414.5" y="239.5" type="curve" smooth="yes"/>
      <point x="436.167" y="210.5"/>
      <point x="594.333" y="191.333"/>
      <point x="629" y="182" type="curve"/>
      <point x="629" y="104" type="line"/>
      <point x="569" y="114.667"/>
      <point x="389.333" y="142"/>
      <point x="350" y="186" type="curve" smooth="yes"/>
      <point x="324.215" y="214.845"/>
      <point x="306.882" y="246.554"/>
      <point x="298" y="281.128" type="curve"/>
      <point x="298" y="216" type="line" smooth="yes"/>
      <point x="298" y="176.667"/>
      <point x="284" y="143"/>
      <point x="256" y="115" type="curve" smooth="yes"/>
      <point x="228" y="87"/>
      <point x="194.333" y="73"/>
      <point x="155" y="73" type="curve" smooth="yes"/>
      <point x="130.333" y="73"/>
      <point x="105.5" y="79.833"/>
      <point x="80.5" y="93.5" type="curve" smooth="yes"/>
      <point x="55.5" y="107.167"/>
      <point x="32.667" y="126.333"/>
      <point x="12" y="151" type="curve"/>
      <point x="64" y="203" type="line"/>
      <point x="78" y="186.333"/>
      <point x="92.833" y="173.5"/>
      <point x="108.5" y="164.5" type="curve" smooth="yes"/>
      <point x="124.167" y="155.5"/>
      <point x="139.667" y="151"/>
      <point x="155" y="151" type="curve" smooth="yes"/>
      <point x="173" y="151"/>
      <point x="188.333" y="157.333"/>
      <point x="201" y="170" type="curve" smooth="yes"/>
      <point x="213.667" y="182.667"/>
      <point x="220" y="198"/>
      <point x="220" y="216" type="curve" smooth="yes"/>
    </contour>
  </outline>
</glyph>
<glyph name="L" format="2">
  <advance width="601"/>
  <unicode hex="004C"/>
  <anchor x="300" y="-25" name="Anchor-0"/>
  <outline>
    <contour>
      <point x="-2" y="814" type="line"/>
      <point x="211" y="815" type="line" smooth="yes"/>
      <point x="229" y="815"/>
      <point x="244.333" y="821.333"/>
      <point x="257" y="834" type="curve" smooth="yes"/>
      <point x="269.667" y="846.667"/>
      <point x="276" y="862"/>
      <point x="276" y="880" type="curve" smooth="yes"/>
      <point x="276" y="895.333"/>
      <point x="271.5" y="910.833"/>
      <point x="262.5" y="926.5" type="curve" smooth="yes"/>
      <point x="253.5" y="942.167"/>
      <point x="240.667" y="957"/>
      <point x="224" y="971" type="curve"/>
      <point x="276" y="1023" type="line"/>
      <point x="300.667" y="1002.33"/>
      <point x="319.833" y="979.5"/>
      <point x="333.5" y="954.5" type="curve" smooth="yes"/>
      <point x="347.167" y="929.5"/>
      <point x="354" y="904.667"/>
      <point x="354" y="880" type="curve" smooth="yes"/>
      <point x="354" y="840.667"/>
      <point x="340" y="807"/>
      <point x="312" y="779" type="curve" smooth="yes"/>
      <point x="284" y="751"/>
      <point x="250.333" y="737"/>
      <point x="211" y="737" type="curve" smooth="yes"/>
      <point x="146" y="736.695" type="line"/>
      <point x="146" y="258.787" type="line"/>
      <point x="173.954" y="283.596"/>
      <point x="205.621" y="296"/>
      <point x="241" y="296" type="curve" smooth="yes"/>
      <point x="268.333" y="296"/>
      <point x="294.167" y="288.5"/>
      <point x="318.5" y="273.5" type="curve" smooth="yes"/>
      <point x="342.833" y="258.5"/>
      <point x="362.667" y="238"/>
      <point x="378" y="212" type="curve" smooth="yes"/>
      <point x="388.667" y="194"/>
      <point x="400.333" y="179.667"/>
      <point x="413" y="169" type="curve" smooth="yes"/>
      <point x="425.667" y="158.333"/>
      <point x="437.667" y="153"/>
      <point x="449" y="153" type="curve" smooth="yes"/>
      <point x="463.667" y="153"/>
      <point x="476" y="163.167"/>
      <point x="486" y="183.5" type="curve" smooth="yes"/>
      <point x="496" y="203.833"/>
      <point x="501" y="228.333"/>
      <point x="501" y="257" type="curve" smooth="yes"/>
      <point x="501" y="283"/>
      <point x="496.667" y="310.333"/>
      <point x="488" y="339" type="curve" smooth="yes"/>
      <point x="479.333" y="367.667"/>
      <point x="466.333" y="396.667"/>
      <point x="449" y="426" type="curve"/>
      <point x="514" y="472" type="line"/>
      <point x="537.333" y="444"/>
      <point x="555.167" y="411.667"/>
      <point x="567.5" y="375" type="curve" smooth="yes"/>
      <point x="579.833" y="338.333"/>
      <point x="586" y="299"/>
      <point x="586" y="257" type="curve" smooth="yes"/>
      <point x="586" y="201"/>
      <point x="572.667" y="153.333"/>
      <point x="546" y="114" type="curve" smooth="yes"/>
      <point x="519.333" y="74.667"/>
      <point x="487" y="55"/>
      <point x="449" y="55" type="curve" smooth="yes"/>
      <point x="425" y="55"/>
      <point x="401.5" y="63.167"/>
      <point x="378.5" y="79.5" type="curve" smooth="yes"/>
      <point x="355.5" y="95.833"/>
      <point x="335.667" y="118.333"/>
      <point x="319" y="147" type="curve" smooth="yes"/>
      <point x="306.333" y="169"/>
      <point x="293.667" y="186.333"/>
      <point x="281" y="199" type="curve" smooth="yes"/>
      <point x="268.333" y="211.667"/>
      <point x="257.333" y="218"/>
      <point x="248" y="218" type="curve" smooth="yes"/>
      <point x="222.667" y="218"/>
      <point x="201.167" y="202.833"/>
      <point x="183.5" y="172.5" type="curve" smooth="yes"/>
      <point x="168.126" y="146.103"/>
      <point x="150.354" y="111.754"/>
      <point x="146" y="74.7258" type="curve"/>
      <point x="146" y="56.7374" type="line"/>
      <point x="72" y="56.7373" type="line"/>
      <point x="72" y="57" type="line"/>
      <point x="72" y="736.347" type="line"/>
      <point x="-2" y="736" type="line"/>
    </contour>
  </outline>
</glyph>
<glyph name="M" format="2">
  <advance width="964"/>
  <unicode hex="004D"/>
  <outline>
    <contour>
      <point x="180" y="229" type="curve" smooth="yes"/>
      <point x="180" y="210"/>
      <point x="184" y="194"/>
      <point x="192" y="181" type="curve" smooth="yes"/>
      <point x="200" y="168"/>
      <point x="210" y="162"/>
      <point x="222" y="162" type="curve" smooth="yes"/>
      <point x="234" y="162"/>
      <point x="243" y="168"/>
      <point x="251" y="181" type="curve" smooth="yes"/>
      <point x="259" y="194"/>
      <point x="263" y="210"/>
      <point x="263" y="229" type="curve" smooth="yes"/>
      <point x="263" y="248"/>
      <point x="259" y="264"/>
      <point x="251" y="277" type="curve" smooth="yes"/>
      <point x="243" y="290"/>
      <point x="234" y="297"/>
      <point x="222" y="297" type="curve" smooth="yes"/>
      <point x="210" y="297"/>
      <point x="200" y="290"/>
      <point x="192" y="277" type="curve" smooth="yes"/>
      <point x="184" y="264"/>
      <point x="180" y="248"/>
    </contour>
    <contour>
      <point x="742" y="702" type="curve" smooth="yes"/>
      <point x="719" y="702"/>
      <point x="699" y="686"/>
      <point x="683" y="653" type="curve" smooth="yes"/>
      <point x="667" y="620"/>
      <point x="659" y="580"/>
      <point x="659" y="533" type="curve" smooth="yes"/>
      <point x="659" y="398" type="line" smooth="yes"/>
      <point x="659" y="300"/>
      <point x="645" y="216"/>
      <point x="616" y="147" type="curve" smooth="yes"/>
      <point x="587" y="78"/>
      <point x="553" y="43"/>
      <point x="513" y="43" type="curve" smooth="yes"/>
      <point x="476" y="43"/>
      <point x="443" y="70"/>
      <point x="417" y="123" type="curve" smooth="yes"/>
      <point x="391" y="176"/>
      <point x="378" y="239"/>
      <point x="378" y="314" type="curve" smooth="yes"/>
      <point x="378" y="337"/>
      <point x="380" y="370"/>
      <point x="383" y="415" type="curve" smooth="yes"/>
      <point x="386" y="460"/>
      <point x="388" y="493"/>
      <point x="388" y="516" type="curve" smooth="yes"/>
      <point x="388" y="567"/>
      <point x="380" y="612"/>
      <point x="364" y="648" type="curve" smooth="yes"/>
      <point x="348" y="684"/>
      <point x="328" y="702"/>
      <point x="305" y="702" type="curve" smooth="yes"/>
      <point x="263" y="702"/>
      <point x="227" y="673"/>
      <point x="197" y="614" type="curve" smooth="yes"/>
      <point x="167" y="555"/>
      <point x="153" y="484"/>
      <point x="153" y="400" type="curve" smooth="yes"/>
      <point x="153" y="396"/>
      <point x="153" y="390"/>
      <point x="153" y="386" type="curve" smooth="yes"/>
      <point x="153" y="382"/>
      <point x="154" y="377"/>
      <point x="154" y="372" type="curve"/>
      <point x="163" y="386"/>
      <point x="172" y="397"/>
      <point x="184" y="404" type="curve" smooth="yes"/>
      <point x="196" y="411"/>
      <point x="209" y="415"/>
      <point x="222" y="415" type="curve" smooth="yes"/>
      <point x="253" y="415"/>
      <point x="281" y="396"/>
      <point x="303" y="360" type="curve" smooth="yes"/>
      <point x="325" y="324"/>
      <point x="336" y="280"/>
      <point x="336" y="229" type="curve" smooth="yes"/>
      <point x="336" y="178"/>
      <point x="325" y="134"/>
      <point x="303" y="98" type="curve" smooth="yes"/>
      <point x="281" y="62"/>
      <point x="253" y="43"/>
      <point x="222" y="43" type="curve" smooth="yes"/>
      <point x="179" y="43"/>
      <point x="145" y="76"/>
      <point x="119" y="142" type="curve" smooth="yes"/>
      <point x="93" y="208"/>
      <point x="81" y="296"/>
      <point x="81" y="406" type="curve" smooth="yes"/>
      <point x="81" y="520"/>
      <point x="103" y="618"/>
      <point x="147" y="699" type="curve" smooth="yes"/>
      <point x="191" y="780"/>
      <point x="243" y="821"/>
      <point x="305" y="821" type="curve" smooth="yes"/>
      <point x="348" y="821"/>
      <point x="385" y="791"/>
      <point x="415" y="732" type="curve" smooth="yes"/>
      <point x="445" y="673"/>
      <point x="461" y="600"/>
      <point x="461" y="516" type="curve" smooth="yes"/>
      <point x="461" y="493"/>
      <point x="459" y="460"/>
      <point x="456" y="415" type="curve" smooth="yes"/>
      <point x="453" y="370"/>
      <point x="451" y="337"/>
      <point x="451" y="314" type="curve" smooth="yes"/>
      <point x="451" y="272"/>
      <point x="457" y="236"/>
      <point x="469" y="206" type="curve" smooth="yes"/>
      <point x="481" y="176"/>
      <point x="496" y="162"/>
      <point x="513" y="162" type="curve" smooth="yes"/>
      <point x="533" y="162"/>
      <point x="551" y="185"/>
      <point x="565" y="231" type="curve" smooth="yes"/>
      <point x="579" y="277"/>
      <point x="586" y="333"/>
      <point x="586" y="398" type="curve" smooth="yes"/>
      <point x="586" y="533" type="line" smooth="yes"/>
      <point x="586" y="613"/>
      <point x="601" y="681"/>
      <point x="631" y="737" type="curve" smooth="yes"/>
      <point x="661" y="793"/>
      <point x="699" y="821"/>
      <point x="742" y="821" type="curve" smooth="yes"/>
      <point x="754" y="821"/>
      <point x="765" y="819"/>
      <point x="776" y="815" type="curve"/>
      <point x="799" y="815" type="line" smooth="yes"/>
      <point x="817" y="815"/>
      <point x="832" y="821"/>
      <point x="845" y="834" type="curve" smooth="yes"/>
      <point x="858" y="847"/>
      <point x="864" y="862"/>
      <point x="864" y="880" type="curve" smooth="yes"/>
      <point x="864" y="895"/>
      <point x="859" y="910"/>
      <point x="850" y="926" type="curve" smooth="yes"/>
      <point x="841" y="942"/>
      <point x="829" y="957"/>
      <point x="812" y="971" type="curve"/>
      <point x="864" y="1023" type="line"/>
      <point x="889" y="1002"/>
      <point x="908" y="979"/>
      <point x="922" y="954" type="curve" smooth="yes"/>
      <point x="936" y="929"/>
      <point x="942" y="905"/>
      <point x="942" y="880" type="curve" smooth="yes"/>
      <point x="942" y="841"/>
      <point x="928" y="807"/>
      <point x="900" y="779" type="curve" smooth="yes"/>
      <point x="886" y="765"/>
      <point x="871" y="754"/>
      <point x="854" y="747" type="curve"/>
      <point x="861" y="736"/>
      <point x="867" y="725"/>
      <point x="874" y="712" type="curve" smooth="yes"/>
      <point x="911" y="639"/>
      <point x="929" y="551"/>
      <point x="929" y="449" type="curve" smooth="yes"/>
      <point x="929" y="359"/>
      <point x="918" y="278"/>
      <point x="895" y="208" type="curve" smooth="yes"/>
      <point x="872" y="138"/>
      <point x="842" y="89"/>
      <point x="804" y="60" type="curve"/>
      <point x="763" y="162" type="line"/>
      <point x="791" y="178"/>
      <point x="814" y="213"/>
      <point x="831" y="266" type="curve" smooth="yes"/>
      <point x="848" y="319"/>
      <point x="856" y="380"/>
      <point x="856" y="449" type="curve" smooth="yes"/>
      <point x="856" y="519"/>
      <point x="845" y="579"/>
      <point x="823" y="628" type="curve" smooth="yes"/>
      <point x="801" y="677"/>
      <point x="773" y="702"/>
    </contour>
  </outline>
</glyph>
<glyph name="N" format="2">
  <advance width="774"/>
  <unicode hex="004E"/>
  <outline>
    <contour>
      <point x="81" y="428" type="curve" smooth="yes"/>
      <point x="81" y="530"/>
      <point x="96" y="617"/>
      <point x="125" y="690" type="curve" smooth="yes"/>
      <point x="154" y="763"/>
      <point x="189" y="799"/>
      <point x="230" y="799" type="curve" smooth="yes"/>
      <point x="265" y="799"/>
      <point x="295" y="771"/>
      <point x="319" y="715" type="curve" smooth="yes"/>
      <point x="343" y="659"/>
      <point x="346" y="592"/>
      <point x="355" y="512" type="curve" smooth="yes"/>
      <point x="357" y="498"/>
      <point x="357" y="486"/>
      <point x="357" y="475" type="curve" smooth="yes"/>
      <point x="357" y="449"/>
      <point x="354" y="428"/>
      <point x="354" y="400" type="curve" smooth="yes"/>
      <point x="354" y="393"/>
      <point x="355" y="385"/>
      <point x="355" y="377" type="curve" smooth="yes"/>
      <point x="359" y="312"/>
      <point x="361" y="257"/>
      <point x="372" y="211" type="curve" smooth="yes"/>
      <point x="383" y="165"/>
      <point x="397" y="141"/>
      <point x="413" y="141" type="curve" smooth="yes"/>
      <point x="427" y="141"/>
      <point x="439" y="156"/>
      <point x="449" y="186" type="curve" smooth="yes"/>
      <point x="459" y="216"/>
      <point x="463" y="252"/>
      <point x="463" y="293" type="curve" smooth="yes"/>
      <point x="463" y="330"/>
      <point x="455" y="458"/>
      <point x="455" y="495" type="curve" smooth="yes"/>
      <point x="455" y="579"/>
      <point x="468" y="651"/>
      <point x="492" y="710" type="curve" smooth="yes"/>
      <point x="516" y="769"/>
      <point x="519" y="760"/>
      <point x="547" y="781" type="curve"/>
      <point x="677" y="803" type="line"/>
      <point x="677" y="803"/>
      <point x="696" y="831"/>
      <point x="696" y="849" type="curve" smooth="yes"/>
      <point x="696" y="889"/>
      <point x="644" y="940"/>
      <point x="644" y="940" type="curve"/>
      <point x="696" y="992" type="line"/>
      <point x="696" y="991"/>
      <point x="722" y="965"/>
      <point x="753" y="923" type="curve" smooth="yes"/>
      <point x="770" y="900"/>
      <point x="774" y="874"/>
      <point x="774" y="849" type="curve" smooth="yes"/>
      <point x="774" y="810"/>
      <point x="765" y="775"/>
      <point x="732" y="748" type="curve" smooth="yes"/>
      <point x="721" y="739"/>
      <point x="710" y="737"/>
      <point x="699" y="737" type="curve" smooth="yes"/>
      <point x="687" y="737"/>
      <point x="674" y="739"/>
      <point x="660" y="739" type="curve" smooth="yes"/>
      <point x="653" y="739"/>
      <point x="647" y="739"/>
      <point x="640" y="737" type="curve" smooth="yes"/>
      <point x="618" y="731"/>
      <point x="608" y="721"/>
      <point x="588" y="710" type="curve" smooth="yes"/>
      <point x="580" y="706"/>
      <point x="573" y="706"/>
      <point x="568" y="699" type="curve" smooth="yes"/>
      <point x="551" y="673"/>
      <point x="546" y="662"/>
      <point x="533" y="626" type="curve" smooth="yes"/>
      <point x="520" y="590"/>
      <point x="513" y="546"/>
      <point x="513" y="495" type="curve" smooth="yes"/>
      <point x="513" y="457"/>
      <point x="522" y="329"/>
      <point x="522" y="293" type="curve" smooth="yes"/>
      <point x="522" y="219"/>
      <point x="511" y="156"/>
      <point x="490" y="103" type="curve" smooth="yes"/>
      <point x="469" y="50"/>
      <point x="443" y="23"/>
      <point x="413" y="23" type="curve" smooth="yes"/>
      <point x="381" y="23"/>
      <point x="354" y="58"/>
      <point x="331" y="127" type="curve" smooth="yes"/>
      <point x="308" y="196"/>
      <point x="306" y="279"/>
      <point x="297" y="377" type="curve" smooth="yes"/>
      <point x="296" y="389"/>
      <point x="295" y="400"/>
      <point x="295" y="410" type="curve" smooth="yes"/>
      <point x="295" y="436"/>
      <point x="298" y="458"/>
      <point x="298" y="484" type="curve" smooth="yes"/>
      <point x="298" y="493"/>
      <point x="298" y="502"/>
      <point x="297" y="512" type="curve" smooth="yes"/>
      <point x="293" y="559"/>
      <point x="290" y="599"/>
      <point x="277" y="632" type="curve" smooth="yes"/>
      <point x="264" y="665"/>
      <point x="248" y="681"/>
      <point x="230" y="681" type="curve" smooth="yes"/>
      <point x="205" y="681"/>
      <point x="184" y="656"/>
      <point x="166" y="607" type="curve" smooth="yes"/>
      <point x="148" y="558"/>
      <point x="139" y="498"/>
      <point x="139" y="428" type="curve" smooth="yes"/>
      <point x="139" y="359"/>
      <point x="145" y="298"/>
      <point x="159" y="245" type="curve" smooth="yes"/>
      <point x="173" y="192"/>
      <point x="209" y="187"/>
      <point x="214" y="141" type="curve" smooth="yes"/>
      <point x="214" y="137"/>
      <point x="215" y="133"/>
      <point x="215" y="129" type="curve" smooth="yes"/>
      <point x="215" y="92"/>
      <point x="202" y="31"/>
      <point x="189" y="31" type="curve" smooth="yes"/>
      <point x="186" y="31"/>
      <point x="184" y="34"/>
      <point x="181" y="40" type="curve" smooth="yes"/>
      <point x="115" y="182"/>
      <point x="81" y="276"/>
    </contour>
  </outline>
</glyph>
<glyph name="O" format="2">
  <advance width="687"/>
  <unicode hex="004F"/>
  <outline>
    <contour>
      <point x="153.25" y="436.325" type="curve" smooth="yes"/>
      <point x="153.25" y="353.725"/>
      <point x="173.2" y="283.025"/>
      <point x="213.1" y="224.225" type="curve" smooth="yes"/>
      <point x="253" y="165.425"/>
      <point x="301.3" y="136.025"/>
      <point x="358" y="136.025" type="curve" smooth="yes"/>
      <point x="414.7" y="136.025"/>
      <point x="463" y="165.425"/>
      <point x="502.9" y="224.225" type="curve" smooth="yes"/>
      <point x="542.8" y="283.025"/>
      <point x="562.75" y="353.725"/>
      <point x="562.75" y="436.325" type="curve" smooth="yes"/>
      <point x="562.75" y="515.425"/>
      <point x="542.8" y="582.976"/>
      <point x="502.9" y="638.975" type="curve" smooth="yes"/>
      <point x="463" y="694.975"/>
      <point x="414.7" y="722.975"/>
      <point x="358" y="722.975" type="curve" smooth="yes"/>
      <point x="301.3" y="722.975"/>
      <point x="253" y="694.975"/>
      <point x="213.1" y="638.975" type="curve" smooth="yes"/>
      <point x="173.2" y="582.976"/>
      <point x="153.25" y="515.425"/>
    </contour>
    <contour>
      <point x="57.7002" y="436.325" type="curve" smooth="yes"/>
      <point x="57.7002" y="537.825"/>
      <point x="87.0996" y="624.625"/>
      <point x="145.9" y="696.725" type="curve" smooth="yes"/>
      <point x="204.7" y="768.825"/>
      <point x="275.399" y="804.875"/>
      <point x="358" y="804.875" type="curve" smooth="yes"/>
      <point x="373.062" y="804.875"/>
      <point x="387.729" y="803.676"/>
      <point x="402" y="801.279" type="curve"/>
      <point x="402" y="805" type="line"/>
      <point x="436" y="815" type="line"/>
      <point x="454" y="815"/>
      <point x="469.333" y="821.333"/>
      <point x="482" y="834" type="curve" smooth="yes"/>
      <point x="494.667" y="846.667"/>
      <point x="501" y="862"/>
      <point x="501" y="880" type="curve" smooth="yes"/>
      <point x="501" y="895.333"/>
      <point x="496.5" y="910.833"/>
      <point x="487.5" y="926.5" type="curve" smooth="yes"/>
      <point x="478.5" y="942.167"/>
      <point x="465.667" y="957"/>
      <point x="449" y="971" type="curve"/>
      <point x="501" y="1023" type="line"/>
      <point x="525.667" y="1002.33"/>
      <point x="544.833" y="979.5"/>
      <point x="558.5" y="954.5" type="curve" smooth="yes"/>
      <point x="572.167" y="929.5"/>
      <point x="579" y="904.667"/>
      <point x="579" y="880" type="curve" smooth="yes"/>
      <point x="579" y="840.667"/>
      <point x="565" y="807"/>
      <point x="537" y="779" type="curve" smooth="yes"/>
      <point x="527.958" y="769.958"/>
      <point x="518.325" y="762.376"/>
      <point x="508.101" y="756.254" type="curve"/>
      <point x="530.059" y="740.325"/>
      <point x="550.725" y="720.482"/>
      <point x="570.1" y="696.725" type="curve" smooth="yes"/>
      <point x="628.9" y="624.625"/>
      <point x="658.3" y="537.825"/>
      <point x="658.3" y="436.325" type="curve" smooth="yes"/>
      <point x="658.3" y="330.625"/>
      <point x="628.9" y="240.5"/>
      <point x="570.1" y="165.95" type="curve" smooth="yes"/>
      <point x="511.3" y="91.4004"/>
      <point x="440.601" y="54.125"/>
      <point x="358" y="54.125" type="curve" smooth="yes"/>
      <point x="275.399" y="54.125"/>
      <point x="204.7" y="91.4004"/>
      <point x="145.9" y="165.95" type="curve" smooth="yes"/>
      <point x="87.0996" y="240.5"/>
      <point x="57.7002" y="330.625"/>
    </contour>
  </outline>
</glyph>
<glyph name="P" format="2">
  <advance width="769"/>
  <unicode hex="0050"/>
  <outline>
    <contour>
      <point x="465" y="279" type="curve"/>
      <point x="522.333" y="279"/>
      <point x="571.333" y="298"/>
      <point x="612" y="336" type="curve" smooth="yes"/>
      <point x="652.667" y="374"/>
      <point x="673" y="420"/>
      <point x="673" y="474" type="curve" smooth="yes"/>
      <point x="673" y="528"/>
      <point x="652.667" y="619"/>
      <point x="612" y="657" type="curve" smooth="yes"/>
      <point x="571.333" y="695"/>
      <point x="522.333" y="714"/>
      <point x="465" y="714" type="curve" smooth="yes"/>
      <point x="418.96" y="714"/>
      <point x="378.293" y="701.748"/>
      <point x="343" y="677.243" type="curve" smooth="yes"/>
      <point x="334.343" y="671.232"/>
      <point x="326.01" y="664.485"/>
      <point x="318" y="657" type="curve" smooth="yes"/>
      <point x="277.333" y="619"/>
      <point x="257" y="528"/>
      <point x="257" y="474" type="curve" smooth="yes"/>
      <point x="257" y="420"/>
      <point x="277.333" y="374"/>
      <point x="318" y="336" type="curve" smooth="yes"/>
      <point x="358.667" y="298"/>
      <point x="407.667" y="279"/>
    </contour>
    <contour>
      <point x="350.5" y="779.5" type="line"/>
      <point x="386.833" y="796.5"/>
      <point x="425" y="818"/>
      <point x="465" y="818" type="curve" smooth="yes"/>
      <point x="478.133" y="818"/>
      <point x="490.959" y="816.965"/>
      <point x="503.477" y="815" type="curve" smooth="yes"/>
      <point x="509" y="815" type="line" smooth="yes"/>
      <point x="527" y="815"/>
      <point x="542.333" y="821.333"/>
      <point x="555" y="834" type="curve" smooth="yes"/>
      <point x="567.667" y="846.667"/>
      <point x="574" y="862"/>
      <point x="574" y="880" type="curve" smooth="yes"/>
      <point x="574" y="895.333"/>
      <point x="569.5" y="910.833"/>
      <point x="560.5" y="926.5" type="curve" smooth="yes"/>
      <point x="551.5" y="942.167"/>
      <point x="538.667" y="957"/>
      <point x="522" y="971" type="curve"/>
      <point x="574" y="1023" type="line"/>
      <point x="598.667" y="1002.33"/>
      <point x="617.833" y="979.5"/>
      <point x="631.5" y="954.5" type="curve" smooth="yes"/>
      <point x="645.167" y="929.5"/>
      <point x="652" y="904.667"/>
      <point x="652" y="880" type="curve" smooth="yes"/>
      <point x="652" y="840.667"/>
      <point x="638" y="807"/>
      <point x="610" y="779" type="curve" smooth="yes"/>
      <point x="608.893" y="777.893"/>
      <point x="607.777" y="776.808"/>
      <point x="606.652" y="775.745" type="curve"/>
      <point x="631.605" y="760.437"/>
      <point x="654.888" y="741.748"/>
      <point x="676.5" y="721" type="curve" smooth="yes"/>
      <point x="734.833" y="665"/>
      <point x="764" y="552.667"/>
      <point x="764" y="474" type="curve" smooth="yes"/>
      <point x="764" y="395.333"/>
      <point x="734.833" y="328"/>
      <point x="676.5" y="272" type="curve" smooth="yes"/>
      <point x="618.167" y="216"/>
      <point x="547.667" y="188"/>
      <point x="465" y="188" type="curve" smooth="yes"/>
      <point x="425" y="188"/>
      <point x="386.833" y="196.5"/>
      <point x="350.5" y="213.5" type="curve" smooth="yes"/>
      <point x="314.167" y="230.5"/>
      <point x="283" y="254.333"/>
      <point x="257" y="285" type="curve"/>
      <point x="257" y="55" type="line"/>
      <point x="179" y="55" type="line"/>
      <point x="179" y="656" type="line" smooth="yes"/>
      <point x="179" y="674"/>
      <point x="172.667" y="689.333"/>
      <point x="160" y="702" type="curve" smooth="yes"/>
      <point x="147.333" y="714.667"/>
      <point x="132" y="721"/>
      <point x="114" y="721" type="curve" smooth="yes"/>
      <point x="97.333" y="721"/>
      <point x="81" y="717"/>
      <point x="65" y="709" type="curve" smooth="yes"/>
      <point x="49" y="701"/>
      <point x="47" y="689.667"/>
      <point x="35" y="675" type="curve"/>
      <point x="-17" y="721" type="line"/>
      <point x="-3" y="745"/>
      <point x="4.83301" y="764"/>
      <point x="30.5" y="778" type="curve" smooth="yes"/>
      <point x="56.167" y="792"/>
      <point x="84" y="799"/>
      <point x="114" y="799" type="curve" smooth="yes"/>
      <point x="153.333" y="799"/>
      <point x="193" y="782.667"/>
      <point x="221" y="756" type="curve" smooth="yes"/>
      <point x="249" y="729.333"/>
      <point x="294" y="741.785"/>
      <point x="296" y="740.737" type="curve" smooth="yes"/>
    </contour>
  </outline>
</glyph>
<glyph name="Q" format="2">
  <advance width="691"/>
  <unicode hex="0051"/>
  <outline>
    <contour>
      <point x="329" y="-6.33398" type="curve" smooth="yes"/>
      <point x="329" y="-10"/>
      <point x="331.5" y="-13.084"/>
      <point x="336.5" y="-15.584" type="curve" smooth="yes"/>
      <point x="341.5" y="-18.084"/>
      <point x="347.667" y="-19.334"/>
      <point x="355" y="-19.334" type="curve" smooth="yes"/>
      <point x="362.333" y="-19.334"/>
      <point x="368.5" y="-18.084"/>
      <point x="373.5" y="-15.584" type="curve" smooth="yes"/>
      <point x="378.5" y="-13.084"/>
      <point x="381" y="-10"/>
      <point x="381" y="-6.33398" type="curve" smooth="yes"/>
      <point x="381" y="-2.66797"/>
      <point x="378.5" y="0.416016"/>
      <point x="373.5" y="2.91602" type="curve" smooth="yes"/>
      <point x="368.5" y="5.41602"/>
      <point x="362.333" y="6.66602"/>
      <point x="355" y="6.66602" type="curve" smooth="yes"/>
      <point x="347.667" y="6.66602"/>
      <point x="341.5" y="5.41602"/>
      <point x="336.5" y="2.91602" type="curve" smooth="yes"/>
      <point x="331.5" y="0.416016"/>
      <point x="329" y="-2.66797"/>
    </contour>
    <contour>
      <point x="153.25" y="435.741" type="curve" smooth="yes"/>
      <point x="153.25" y="353.141"/>
      <point x="173.2" y="282.441"/>
      <point x="213.1" y="223.641" type="curve" smooth="yes"/>
      <point x="253" y="164.841"/>
      <point x="301.3" y="135.441"/>
      <point x="358" y="135.441" type="curve" smooth="yes"/>
      <point x="414.7" y="135.441"/>
      <point x="463" y="164.841"/>
      <point x="502.9" y="223.641" type="curve" smooth="yes"/>
      <point x="542.8" y="282.441"/>
      <point x="562.75" y="353.141"/>
      <point x="562.75" y="435.741" type="curve" smooth="yes"/>
      <point x="562.75" y="514.841"/>
      <point x="542.8" y="582.392"/>
      <point x="502.9" y="638.391" type="curve" smooth="yes"/>
      <point x="463" y="694.391"/>
      <point x="414.7" y="722.391"/>
      <point x="358" y="722.391" type="curve" smooth="yes"/>
      <point x="301.3" y="722.391"/>
      <point x="253" y="694.391"/>
      <point x="213.1" y="638.391" type="curve" smooth="yes"/>
      <point x="173.2" y="582.392"/>
      <point x="153.25" y="514.841"/>
    </contour>
    <contour>
      <point x="57.7002" y="435.741" type="curve" smooth="yes"/>
      <point x="57.7002" y="537.241"/>
      <point x="87.0996" y="624.041"/>
      <point x="145.9" y="696.141" type="curve" smooth="yes"/>
      <point x="204.7" y="768.241"/>
      <point x="275.399" y="816.291"/>
      <point x="358" y="816.291" type="curve" smooth="yes"/>
      <point x="366.951" y="816.291"/>
      <point x="375.762" y="815.727"/>
      <point x="384.433" y="814.629" type="curve"/>
      <point x="384" y="815" type="line"/>
      <point x="509" y="815" type="line" smooth="yes"/>
      <point x="527" y="815"/>
      <point x="542.333" y="821.333"/>
      <point x="555" y="834" type="curve" smooth="yes"/>
      <point x="567.667" y="846.667"/>
      <point x="574" y="862"/>
      <point x="574" y="880" type="curve" smooth="yes"/>
      <point x="574" y="895.333"/>
      <point x="569.5" y="910.833"/>
      <point x="560.5" y="926.5" type="curve" smooth="yes"/>
      <point x="551.5" y="942.167"/>
      <point x="538.667" y="957"/>
      <point x="522" y="971" type="curve"/>
      <point x="574" y="1023" type="line"/>
      <point x="598.667" y="1002.33"/>
      <point x="617.833" y="979.5"/>
      <point x="631.5" y="954.5" type="curve" smooth="yes"/>
      <point x="645.167" y="929.5"/>
      <point x="652" y="904.667"/>
      <point x="652" y="880" type="curve" smooth="yes"/>
      <point x="652" y="840.667"/>
      <point x="638" y="807"/>
      <point x="610" y="779" type="curve" smooth="yes"/>
      <point x="587.386" y="756.386"/>
      <point x="561.075" y="742.904"/>
      <point x="531.068" y="738.554" type="curve"/>
      <point x="544.614" y="725.652"/>
      <point x="557.625" y="711.437"/>
      <point x="570.1" y="696.141" type="curve" smooth="yes"/>
      <point x="628.9" y="624.041"/>
      <point x="658.3" y="537.241"/>
      <point x="658.3" y="435.741" type="curve" smooth="yes"/>
      <point x="658.3" y="330.041"/>
      <point x="628.9" y="239.916"/>
      <point x="570.1" y="165.366" type="curve" smooth="yes"/>
      <point x="558.673" y="150.879"/>
      <point x="546.796" y="137.799"/>
      <point x="534.471" y="126.126" type="curve"/>
      <point x="560.103" y="103.418"/>
      <point x="579.78" y="80.097"/>
      <point x="593.5" y="56.166" type="curve" smooth="yes"/>
      <point x="607.833" y="31.166"/>
      <point x="615" y="6.66602"/>
      <point x="615" y="-17.334" type="curve" smooth="yes"/>
      <point x="615" y="-48.668"/>
      <point x="594.667" y="-75.5"/>
      <point x="554" y="-97.834" type="curve" smooth="yes"/>
      <point x="513.333" y="-120.168"/>
      <point x="464.333" y="-131.334"/>
      <point x="407" y="-131.334" type="curve" smooth="yes"/>
      <point x="353" y="-131.334"/>
      <point x="307" y="-122.418"/>
      <point x="269" y="-104.584" type="curve" smooth="yes"/>
      <point x="231" y="-86.75"/>
      <point x="212" y="-65.334"/>
      <point x="212" y="-40.334" type="curve" smooth="yes"/>
      <point x="212" y="-17.668"/>
      <point x="226" y="1.58203"/>
      <point x="254" y="17.416" type="curve" smooth="yes"/>
      <point x="282" y="33.25"/>
      <point x="315.667" y="41.166"/>
      <point x="355" y="41.166" type="curve" smooth="yes"/>
      <point x="380.333" y="41.166"/>
      <point x="401.833" y="36.75"/>
      <point x="419.5" y="27.916" type="curve" smooth="yes"/>
      <point x="437.167" y="19.082"/>
      <point x="446" y="8.33203"/>
      <point x="446" y="-4.33398" type="curve" smooth="yes"/>
      <point x="446" y="-17"/>
      <point x="437.167" y="-27.75"/>
      <point x="419.5" y="-36.584" type="curve" smooth="yes"/>
      <point x="401.833" y="-45.418"/>
      <point x="380.333" y="-49.834"/>
      <point x="355" y="-49.834" type="curve" smooth="yes"/>
      <point x="341" y="-49.834"/>
      <point x="328.167" y="-47.418"/>
      <point x="316.5" y="-42.584" type="curve" smooth="yes"/>
      <point x="304.833" y="-37.75"/>
      <point x="296" y="-31.5"/>
      <point x="290" y="-23.834" type="curve"/>
      <point x="287.333" y="-26.5"/>
      <point x="285.333" y="-29.334"/>
      <point x="284" y="-32.334" type="curve" smooth="yes"/>
      <point x="282.667" y="-35.334"/>
      <point x="282" y="-38.168"/>
      <point x="282" y="-40.834" type="curve" smooth="yes"/>
      <point x="282" y="-55.834"/>
      <point x="294.167" y="-68.668"/>
      <point x="318.5" y="-79.334" type="curve" smooth="yes"/>
      <point x="342.833" y="-90"/>
      <point x="372.333" y="-95.334"/>
      <point x="407" y="-95.334" type="curve" smooth="yes"/>
      <point x="443" y="-95.334"/>
      <point x="473.667" y="-87.75"/>
      <point x="499" y="-72.584" type="curve" smooth="yes"/>
      <point x="524.333" y="-57.418"/>
      <point x="537" y="-38.416"/>
      <point x="537" y="-17.334" type="curve" smooth="yes"/>
      <point x="537" y="7.58398"/>
      <point x="530.333" y="30.25"/>
      <point x="517" y="52.416" type="curve" smooth="yes"/>
      <point x="509.122" y="65.513"/>
      <point x="499.149" y="77.8831"/>
      <point x="487.082" y="89.526" type="curve"/>
      <point x="447.884" y="65.5361"/>
      <point x="404.857" y="53.541"/>
      <point x="358" y="53.541" type="curve" smooth="yes"/>
      <point x="275.399" y="53.541"/>
      <point x="204.7" y="90.8164"/>
      <point x="145.9" y="165.366" type="curve" smooth="yes"/>
      <point x="87.0996" y="239.916"/>
      <point x="57.7002" y="330.041"/>
    </contour>
  </outline>
</glyph>
<glyph name="R" format="2">
  <advance width="702"/>
  <unicode hex="0052"/>
  <outline>
    <contour>
      <point x="425.2" y="707.75" type="curve" smooth="yes"/>
      <point x="370.8" y="707.75"/>
      <point x="324.267" y="677.541"/>
      <point x="285.6" y="617.125" type="curve" smooth="yes"/>
      <point x="246.934" y="556.709"/>
      <point x="227.6" y="484"/>
      <point x="227.6" y="399" type="curve" smooth="yes"/>
      <point x="227.6" y="66.5" type="line"/>
      <point x="165.2" y="66.5" type="line"/>
      <point x="165.2" y="619" type="line" smooth="yes"/>
      <point x="165.2" y="641.5"/>
      <point x="160.134" y="660.666"/>
      <point x="150" y="676.5" type="curve" smooth="yes"/>
      <point x="139.866" y="692.334"/>
      <point x="127.6" y="700.25"/>
      <point x="113.2" y="700.25" type="curve" smooth="yes"/>
      <point x="100.934" y="700.25"/>
      <point x="88.5332" y="694.625"/>
      <point x="76" y="683.375" type="curve" smooth="yes"/>
      <point x="63.4668" y="672.125"/>
      <point x="51.5996" y="656.084"/>
      <point x="40.4004" y="635.25" type="curve"/>
      <point x="-1.2002" y="700.25" type="line"/>
      <point x="15.334" y="731.084"/>
      <point x="33.5996" y="755.041"/>
      <point x="53.5996" y="772.125" type="curve" smooth="yes"/>
      <point x="73.5996" y="789.209"/>
      <point x="93.4668" y="797.75"/>
      <point x="113.2" y="797.75" type="curve" smooth="yes"/>
      <point x="144.666" y="797.75"/>
      <point x="171.6" y="783.375"/>
      <point x="194" y="754.625" type="curve" smooth="yes"/>
      <point x="216.4" y="725.875"/>
      <point x="227.6" y="691.5"/>
      <point x="227.6" y="651.5" type="curve"/>
      <point x="246.8" y="704"/>
      <point x="274.134" y="745.459"/>
      <point x="309.6" y="775.875" type="curve" smooth="yes"/>
      <point x="345.066" y="806.291"/>
      <point x="383.6" y="821.5"/>
      <point x="425.2" y="821.5" type="curve" smooth="yes"/>
      <point x="445.198" y="821.5"/>
      <point x="463.93" y="819.333"/>
      <point x="481.396" y="815" type="curve"/>
      <point x="509" y="815" type="line" smooth="yes"/>
      <point x="527" y="815"/>
      <point x="542.333" y="821.333"/>
      <point x="555" y="834" type="curve" smooth="yes"/>
      <point x="567.667" y="846.667"/>
      <point x="574" y="862"/>
      <point x="574" y="880" type="curve" smooth="yes"/>
      <point x="574" y="895.333"/>
      <point x="569.5" y="910.833"/>
      <point x="560.5" y="926.5" type="curve" smooth="yes"/>
      <point x="551.5" y="942.167"/>
      <point x="538.667" y="957"/>
      <point x="522" y="971" type="curve"/>
      <point x="574" y="1023" type="line"/>
      <point x="598.667" y="1002.33"/>
      <point x="617.833" y="979.5"/>
      <point x="631.5" y="954.5" type="curve" smooth="yes"/>
      <point x="645.167" y="929.5"/>
      <point x="652" y="904.667"/>
      <point x="652" y="880" type="curve" smooth="yes"/>
      <point x="652" y="840.667"/>
      <point x="638" y="807"/>
      <point x="610" y="779" type="curve" smooth="yes"/>
      <point x="600.19" y="769.19"/>
      <point x="589.685" y="761.099"/>
      <point x="578.485" y="754.726" type="curve"/>
      <point x="614.961" y="712.098"/>
      <point x="633.2" y="656.022"/>
      <point x="633.2" y="586.5" type="curve" smooth="yes"/>
      <point x="633.2" y="539.834"/>
      <point x="618.533" y="497.334"/>
      <point x="589.2" y="459" type="curve" smooth="yes"/>
      <point x="559.866" y="420.666"/>
      <point x="522.533" y="395.25"/>
      <point x="477.2" y="382.75" type="curve" smooth="yes"/>
      <point x="447.334" y="374.416"/>
      <point x="422.533" y="358.791"/>
      <point x="402.8" y="335.875" type="curve" smooth="yes"/>
      <point x="383.066" y="312.959"/>
      <point x="373.2" y="288.166"/>
      <point x="373.2" y="261.5" type="curve" smooth="yes"/>
      <point x="373.2" y="239"/>
      <point x="381.334" y="219.834"/>
      <point x="397.6" y="204" type="curve" smooth="yes"/>
      <point x="413.866" y="188.166"/>
      <point x="433.467" y="180.25"/>
      <point x="456.4" y="180.25" type="curve" smooth="yes"/>
      <point x="496.934" y="180.25"/>
      <point x="533.733" y="191.709"/>
      <point x="566.8" y="214.625" type="curve" smooth="yes"/>
      <point x="599.866" y="237.541"/>
      <point x="625.467" y="269.416"/>
      <point x="643.6" y="310.25" type="curve"/>
      <point x="685.2" y="220.25" type="line"/>
      <point x="659.066" y="171.916"/>
      <point x="626" y="134.209"/>
      <point x="586" y="107.125" type="curve" smooth="yes"/>
      <point x="546" y="80.041"/>
      <point x="502.8" y="66.5"/>
      <point x="456.4" y="66.5" type="curve" smooth="yes"/>
      <point x="413.2" y="66.5"/>
      <point x="376.4" y="85.459"/>
      <point x="346" y="123.375" type="curve" smooth="yes"/>
      <point x="315.6" y="161.291"/>
      <point x="300.4" y="207.334"/>
      <point x="300.4" y="261.5" type="curve" smooth="yes"/>
      <point x="300.4" y="315.666"/>
      <point x="317.066" y="364.834"/>
      <point x="350.4" y="409" type="curve" smooth="yes"/>
      <point x="383.733" y="453.166"/>
      <point x="426" y="482.334"/>
      <point x="477.2" y="496.5" type="curve" smooth="yes"/>
      <point x="501.2" y="503.166"/>
      <point x="521.066" y="515.041"/>
      <point x="536.8" y="532.125" type="curve" smooth="yes"/>
      <point x="552.533" y="549.209"/>
      <point x="560.4" y="567.334"/>
      <point x="560.4" y="586.5" type="curve" smooth="yes"/>
      <point x="560.4" y="619.834"/>
      <point x="547.2" y="648.375"/>
      <point x="520.8" y="672.125" type="curve" smooth="yes"/>
      <point x="494.4" y="695.875"/>
      <point x="462.533" y="707.75"/>
    </contour>
  </outline>
</glyph>
<glyph name="S" format="2">
  <advance width="659"/>
  <unicode hex="0053"/>
  <outline>
    <contour>
      <point x="72" y="232" type="curve"/>
      <point x="137" y="295" type="line"/>
      <point x="166" y="238"/>
      <point x="198" y="194"/>
      <point x="235" y="162" type="curve" smooth="yes"/>
      <point x="272" y="130"/>
      <point x="308" y="113"/>
      <point x="345" y="113" type="curve" smooth="yes"/>
      <point x="381" y="113"/>
      <point x="412" y="125"/>
      <point x="437" y="150" type="curve" smooth="yes"/>
      <point x="462" y="175"/>
      <point x="475" y="206"/>
      <point x="475" y="241" type="curve" smooth="yes"/>
      <point x="475" y="273"/>
      <point x="464" y="301"/>
      <point x="440" y="325" type="curve" smooth="yes"/>
      <point x="416" y="349"/>
      <point x="386" y="363"/>
      <point x="351" y="368" type="curve" smooth="yes"/>
      <point x="283" y="376"/>
      <point x="226" y="405"/>
      <point x="180" y="454" type="curve" smooth="yes"/>
      <point x="134" y="503"/>
      <point x="111" y="560"/>
      <point x="111" y="623" type="curve" smooth="yes"/>
      <point x="111" y="678"/>
      <point x="128" y="725"/>
      <point x="164" y="764" type="curve" smooth="yes"/>
      <point x="200" y="803"/>
      <point x="243" y="823"/>
      <point x="293" y="823" type="curve" smooth="yes"/>
      <point x="527" y="823" type="line"/>
      <point x="527" y="817" type="line"/>
      <point x="537" y="820"/>
      <point x="547" y="826"/>
      <point x="555" y="834" type="curve" smooth="yes"/>
      <point x="568" y="847"/>
      <point x="574" y="862"/>
      <point x="574" y="880" type="curve" smooth="yes"/>
      <point x="574" y="895"/>
      <point x="569" y="910"/>
      <point x="560" y="926" type="curve" smooth="yes"/>
      <point x="551" y="942"/>
      <point x="539" y="957"/>
      <point x="522" y="971" type="curve"/>
      <point x="574" y="1023" type="line"/>
      <point x="599" y="1002"/>
      <point x="618" y="979"/>
      <point x="632" y="954" type="curve" smooth="yes"/>
      <point x="646" y="929"/>
      <point x="652" y="905"/>
      <point x="652" y="880" type="curve" smooth="yes"/>
      <point x="652" y="841"/>
      <point x="638" y="807"/>
      <point x="610" y="779" type="curve" smooth="yes"/>
      <point x="582" y="751"/>
      <point x="548" y="737"/>
      <point x="509" y="737" type="curve" smooth="yes"/>
      <point x="475" y="737" type="line"/>
      <point x="475" y="739" type="line"/>
      <point x="293" y="739" type="line" smooth="yes"/>
      <point x="268" y="739"/>
      <point x="246" y="730"/>
      <point x="228" y="712" type="curve" smooth="yes"/>
      <point x="210" y="694"/>
      <point x="202" y="648"/>
      <point x="202" y="623" type="curve" smooth="yes"/>
      <point x="202" y="588"/>
      <point x="217" y="556"/>
      <point x="248" y="528" type="curve" smooth="yes"/>
      <point x="279" y="500"/>
      <point x="318" y="483"/>
      <point x="364" y="477" type="curve" smooth="yes"/>
      <point x="421" y="470"/>
      <point x="469" y="445"/>
      <point x="508" y="399" type="curve" smooth="yes"/>
      <point x="547" y="353"/>
      <point x="566" y="301"/>
      <point x="566" y="241" type="curve" smooth="yes"/>
      <point x="566" y="176"/>
      <point x="545" y="119"/>
      <point x="502" y="73" type="curve" smooth="yes"/>
      <point x="459" y="27"/>
      <point x="406" y="4"/>
      <point x="345" y="4" type="curve" smooth="yes"/>
      <point x="295" y="4"/>
      <point x="246" y="24"/>
      <point x="198" y="64" type="curve" smooth="yes"/>
      <point x="150" y="104"/>
      <point x="108" y="160"/>
    </contour>
  </outline>
</glyph>
<glyph name="T" format="2">
  <advance width="613"/>
  <unicode hex="0054"/>
  <outline>
    <contour>
      <point x="-3" y="813" type="line"/>
      <point x="464" y="815" type="line" smooth="yes"/>
      <point x="482" y="815"/>
      <point x="497.333" y="821.333"/>
      <point x="510" y="834" type="curve" smooth="yes"/>
      <point x="522.667" y="846.667"/>
      <point x="529" y="862"/>
      <point x="529" y="880" type="curve" smooth="yes"/>
      <point x="529" y="895.333"/>
      <point x="524.5" y="910.833"/>
      <point x="515.5" y="926.5" type="curve" smooth="yes"/>
      <point x="506.5" y="942.167"/>
      <point x="493.667" y="957"/>
      <point x="477" y="971" type="curve"/>
      <point x="529" y="1023" type="line"/>
      <point x="553.667" y="1002.33"/>
      <point x="572.833" y="979.5"/>
      <point x="586.5" y="954.5" type="curve" smooth="yes"/>
      <point x="600.167" y="929.5"/>
      <point x="607" y="904.667"/>
      <point x="607" y="880" type="curve" smooth="yes"/>
      <point x="607" y="840.667"/>
      <point x="593" y="807"/>
      <point x="565" y="779" type="curve" smooth="yes"/>
      <point x="537" y="751"/>
      <point x="503.333" y="737"/>
      <point x="464" y="737" type="curve" smooth="yes"/>
      <point x="305" y="736.651" type="line"/>
      <point x="305" y="56.7373" type="line"/>
      <point x="231" y="56.7373" type="line"/>
      <point x="231" y="736.255" type="line"/>
      <point x="-3" y="735" type="line"/>
    </contour>
  </outline>
</glyph>
<glyph name="U" format="2">
  <advance width="681"/>
  <unicode hex="0055"/>
  <outline>
    <contour>
      <point x="681" y="105" type="curve" smooth="yes"/>
      <point x="691" y="80"/>
      <point x="656" y="47"/>
      <point x="631" y="56.7374" type="curve" smooth="yes"/>
      <point x="583.933" y="74.9331"/>
      <point x="556.639" y="101.724"/>
      <point x="535.957" y="142.916" type="curve"/>
      <point x="485.036" y="90.3053"/>
      <point x="425.717" y="64"/>
      <point x="358" y="64" type="curve" smooth="yes"/>
      <point x="279.333" y="64"/>
      <point x="212" y="99.5"/>
      <point x="156" y="170.5" type="curve" smooth="yes"/>
      <point x="100" y="241.5"/>
      <point x="72" y="327.333"/>
      <point x="72" y="428" type="curve" smooth="yes"/>
      <point x="72" y="491.333"/>
      <point x="83.167" y="553.167"/>
      <point x="105.5" y="613.5" type="curve" smooth="yes"/>
      <point x="127.833" y="673.833"/>
      <point x="172" y="747"/>
      <point x="214" y="797" type="curve"/>
      <point x="292" y="745" type="line"/>
      <point x="254" y="699.667"/>
      <point x="213" y="633.333"/>
      <point x="193" y="582" type="curve" smooth="yes"/>
      <point x="173" y="530.667"/>
      <point x="163" y="479.333"/>
      <point x="163" y="428" type="curve" smooth="yes"/>
      <point x="163" y="349.333"/>
      <point x="182" y="282"/>
      <point x="220" y="226" type="curve" smooth="yes"/>
      <point x="258" y="170"/>
      <point x="304" y="142"/>
      <point x="358" y="142" type="curve" smooth="yes"/>
      <point x="412" y="142"/>
      <point x="458" y="170"/>
      <point x="496" y="226" type="curve" smooth="yes"/>
      <point x="534" y="282"/>
      <point x="553" y="349.333"/>
      <point x="553" y="428" type="curve" smooth="yes"/>
      <point x="553" y="479.333"/>
      <point x="543" y="530.667"/>
      <point x="523" y="582" type="curve" smooth="yes"/>
      <point x="503" y="633.333"/>
      <point x="457" y="703.667"/>
      <point x="419" y="749" type="curve"/>
      <point x="475" y="812.724" type="line"/>
      <point x="475" y="815" type="line"/>
      <point x="477" y="815" type="line"/>
      <point x="509" y="815" type="line" smooth="yes"/>
      <point x="527" y="815"/>
      <point x="542.333" y="821.333"/>
      <point x="555" y="834" type="curve" smooth="yes"/>
      <point x="567.667" y="846.667"/>
      <point x="574" y="862"/>
      <point x="574" y="880" type="curve" smooth="yes"/>
      <point x="574" y="895.333"/>
      <point x="569.5" y="910.833"/>
      <point x="560.5" y="926.5" type="curve" smooth="yes"/>
      <point x="551.5" y="942.167"/>
      <point x="538.667" y="957"/>
      <point x="522" y="971" type="curve"/>
      <point x="574" y="1023" type="line"/>
      <point x="598.667" y="1002.33"/>
      <point x="617.833" y="979.5"/>
      <point x="631.5" y="954.5" type="curve" smooth="yes"/>
      <point x="645.167" y="929.5"/>
      <point x="652" y="904.667"/>
      <point x="652" y="880" type="curve" smooth="yes"/>
      <point x="652" y="840.667"/>
      <point x="638" y="807"/>
      <point x="610" y="779" type="curve" smooth="yes"/>
      <point x="588.647" y="757.647"/>
      <point x="563.998" y="744.436"/>
      <point x="536.054" y="739.367" type="curve"/>
      <point x="567.066" y="696.646"/>
      <point x="597.15" y="649.564"/>
      <point x="610.5" y="613.5" type="curve" smooth="yes"/>
      <point x="632.833" y="553.167"/>
      <point x="644" y="491.333"/>
      <point x="644" y="428" type="curve" smooth="yes"/>
      <point x="644" y="346.516"/>
      <point x="625.655" y="274.751"/>
      <point x="588.964" y="212.705" type="curve"/>
      <point x="633.256" y="189.257"/>
      <point x="659.961" y="156.336"/>
    </contour>
  </outline>
</glyph>
<glyph name="V" format="2">
  <advance width="793"/>
  <unicode hex="0056"/>
  <outline>
    <contour>
      <point x="585" y="727" type="qcurve" smooth="yes"/>
      <point x="643" y="737" type="line"/>
      <point x="644" y="737" type="line" smooth="yes"/>
      <point x="702" y="737"/>
      <point x="787" y="822"/>
      <point x="787" y="880" type="qcurve" smooth="yes"/>
      <point x="787" y="916"/>
      <point x="766" y="954" type="qcurve" smooth="yes"/>
      <point x="744" y="994"/>
      <point x="709" y="1023" type="qcurve"/>
      <point x="657" y="971" type="line"/>
      <point x="709" y="929"/>
      <point x="709" y="880" type="qcurve" smooth="yes"/>
      <point x="709" y="853"/>
      <point x="671" y="815"/>
      <point x="644" y="815" type="qcurve" smooth="yes"/>
      <point x="610" y="815" type="line"/>
      <point x="610" y="808" type="line"/>
      <point x="585" y="808" type="line" smooth="yes"/>
      <point x="529" y="808"/>
      <point x="493" y="769" type="qcurve" smooth="yes"/>
      <point x="455" y="728"/>
      <point x="455" y="672" type="qcurve" smooth="yes"/>
      <point x="455" y="608"/>
      <point x="500" y="488" type="qcurve" smooth="yes"/>
      <point x="546" y="365"/>
      <point x="546" y="304" type="qcurve" smooth="yes"/>
      <point x="546" y="237"/>
      <point x="446" y="140"/>
      <point x="377" y="140" type="qcurve" smooth="yes"/>
      <point x="276" y="140"/>
      <point x="152" y="354"/>
      <point x="152" y="531" type="qcurve" smooth="yes"/>
      <point x="152" y="571"/>
      <point x="156" y="590" type="qcurve"/>
      <point x="191" y="536"/>
      <point x="260" y="536" type="qcurve" smooth="yes"/>
      <point x="314" y="536"/>
      <point x="390" y="617"/>
      <point x="390" y="672" type="qcurve" smooth="yes"/>
      <point x="390" y="728"/>
      <point x="314" y="809"/>
      <point x="260" y="809" type="qcurve" smooth="yes"/>
      <point x="179" y="809"/>
      <point x="122" y="729" type="qcurve" smooth="yes"/>
      <point x="65" y="650"/>
      <point x="65" y="536" type="qcurve" smooth="yes"/>
      <point x="65" y="300"/>
      <point x="144" y="179" type="qcurve" smooth="yes"/>
      <point x="224" y="58"/>
      <point x="377" y="58" type="qcurve" smooth="yes"/>
      <point x="484" y="58"/>
      <point x="561" y="130" type="qcurve" smooth="yes"/>
      <point x="637" y="202"/>
      <point x="637" y="304" type="qcurve" smooth="yes"/>
      <point x="637" y="368"/>
      <point x="592" y="488" type="qcurve" smooth="yes"/>
      <point x="546" y="611"/>
      <point x="546" y="672" type="qcurve" smooth="yes"/>
      <point x="546" y="693"/>
      <point x="568" y="727"/>
    </contour>
    <contour>
      <point x="282" y="727"/>
      <point x="312" y="695"/>
      <point x="312" y="649"/>
      <point x="282" y="618"/>
      <point x="238" y="618"/>
      <point x="208" y="649"/>
      <point x="208" y="695"/>
      <point x="238" y="727"/>
    </contour>
  </outline>
</glyph>
<glyph name="W" format="2">
  <advance width="761"/>
  <unicode hex="0057"/>
  <anchor x="381" y="-18" name="Anchor-0"/>
  <outline>
    <contour>
      <point x="645" y="406" type="curve" smooth="yes"/>
      <point x="645" y="459"/>
      <point x="634" y="511"/>
      <point x="611" y="563" type="curve" smooth="yes"/>
      <point x="588" y="615"/>
      <point x="540" y="695"/>
      <point x="499" y="737" type="curve"/>
      <point x="499" y="815" type="line"/>
      <point x="533" y="815" type="line" smooth="yes"/>
      <point x="551" y="815"/>
      <point x="566" y="821"/>
      <point x="579" y="834" type="curve" smooth="yes"/>
      <point x="592" y="847"/>
      <point x="598" y="862"/>
      <point x="598" y="880" type="curve" smooth="yes"/>
      <point x="598" y="895"/>
      <point x="593" y="910"/>
      <point x="584" y="926" type="curve" smooth="yes"/>
      <point x="575" y="942"/>
      <point x="563" y="957"/>
      <point x="546" y="971" type="curve"/>
      <point x="598" y="1023" type="line"/>
      <point x="623" y="1002"/>
      <point x="642" y="979"/>
      <point x="656" y="954" type="curve" smooth="yes"/>
      <point x="670" y="929"/>
      <point x="676" y="905"/>
      <point x="676" y="880" type="curve" smooth="yes"/>
      <point x="676" y="841"/>
      <point x="662" y="807"/>
      <point x="634" y="779" type="curve" smooth="yes"/>
      <point x="623" y="768"/>
      <point x="612" y="760"/>
      <point x="599" y="753" type="curve"/>
      <point x="640" y="708"/>
      <point x="671" y="658"/>
      <point x="695" y="602" type="curve" smooth="yes"/>
      <point x="722" y="538"/>
      <point x="736" y="472"/>
      <point x="736" y="406" type="curve" smooth="yes"/>
      <point x="736" y="300"/>
      <point x="717" y="214"/>
      <point x="679" y="150" type="curve" smooth="yes"/>
      <point x="641" y="86"/>
      <point x="591" y="54"/>
      <point x="528" y="54" type="curve" smooth="yes"/>
      <point x="491" y="54"/>
      <point x="457" y="67"/>
      <point x="428" y="92" type="curve" smooth="yes"/>
      <point x="399" y="117"/>
      <point x="381" y="149"/>
      <point x="372" y="188" type="curve"/>
      <point x="363" y="149"/>
      <point x="345" y="117"/>
      <point x="316" y="92" type="curve" smooth="yes"/>
      <point x="287" y="67"/>
      <point x="253" y="54"/>
      <point x="216" y="54" type="curve" smooth="yes"/>
      <point x="169" y="54"/>
      <point x="129" y="74"/>
      <point x="96" y="114" type="curve" smooth="yes"/>
      <point x="63" y="154"/>
      <point x="47" y="201"/>
      <point x="47" y="257" type="curve" smooth="yes"/>
      <point x="47" y="294"/>
      <point x="54" y="330"/>
      <point x="68" y="364" type="curve" smooth="yes"/>
      <point x="82" y="398"/>
      <point x="100" y="428"/>
      <point x="125" y="453" type="curve" smooth="yes"/>
      <point x="150" y="478"/>
      <point x="168" y="505"/>
      <point x="182" y="533" type="curve" smooth="yes"/>
      <point x="196" y="561"/>
      <point x="203" y="589"/>
      <point x="203" y="616" type="curve" smooth="yes"/>
      <point x="203" y="634"/>
      <point x="198" y="648"/>
      <point x="188" y="660" type="curve" smooth="yes"/>
      <point x="178" y="672"/>
      <point x="166" y="678"/>
      <point x="151" y="678" type="curve" smooth="yes"/>
      <point x="136" y="678"/>
      <point x="124" y="672"/>
      <point x="114" y="660" type="curve" smooth="yes"/>
      <point x="104" y="648"/>
      <point x="99" y="634"/>
      <point x="99" y="616" type="curve" smooth="yes"/>
      <point x="99" y="605"/>
      <point x="100" y="594"/>
      <point x="102" y="583" type="curve" smooth="yes"/>
      <point x="104" y="572"/>
      <point x="108" y="563"/>
      <point x="112" y="554" type="curve"/>
      <point x="34" y="522" type="line"/>
      <point x="25" y="534"/>
      <point x="18" y="548"/>
      <point x="14" y="564" type="curve" smooth="yes"/>
      <point x="10" y="580"/>
      <point x="8" y="598"/>
      <point x="8" y="616" type="curve" smooth="yes"/>
      <point x="8" y="662"/>
      <point x="22" y="700"/>
      <point x="50" y="732" type="curve" smooth="yes"/>
      <point x="78" y="764"/>
      <point x="112" y="780"/>
      <point x="151" y="780" type="curve" smooth="yes"/>
      <point x="190" y="780"/>
      <point x="224" y="764"/>
      <point x="252" y="732" type="curve" smooth="yes"/>
      <point x="280" y="700"/>
      <point x="294" y="662"/>
      <point x="294" y="616" type="curve" smooth="yes"/>
      <point x="294" y="586"/>
      <point x="286" y="554"/>
      <point x="270" y="519" type="curve" smooth="yes"/>
      <point x="254" y="484"/>
      <point x="232" y="448"/>
      <point x="203" y="413" type="curve" smooth="yes"/>
      <point x="182" y="388"/>
      <point x="166" y="362"/>
      <point x="155" y="335" type="curve" smooth="yes"/>
      <point x="144" y="308"/>
      <point x="138" y="282"/>
      <point x="138" y="257" type="curve" smooth="yes"/>
      <point x="138" y="231"/>
      <point x="146" y="209"/>
      <point x="161" y="191" type="curve" smooth="yes"/>
      <point x="176" y="173"/>
      <point x="195" y="164"/>
      <point x="216" y="164" type="curve" smooth="yes"/>
      <point x="248" y="164"/>
      <point x="275" y="180"/>
      <point x="298" y="214" type="curve" smooth="yes"/>
      <point x="321" y="248"/>
      <point x="333" y="288"/>
      <point x="333" y="335" type="curve"/>
      <point x="411" y="335" type="line"/>
      <point x="411" y="288"/>
      <point x="423" y="248"/>
      <point x="446" y="214" type="curve" smooth="yes"/>
      <point x="469" y="180"/>
      <point x="496" y="164"/>
      <point x="528" y="164" type="curve" smooth="yes"/>
      <point x="563" y="164"/>
      <point x="592" y="186"/>
      <point x="613" y="230" type="curve" smooth="yes"/>
      <point x="634" y="274"/>
      <point x="645" y="332"/>
    </contour>
  </outline>
</glyph>
<glyph name="X" format="2">
  <advance width="906"/>
  <unicode hex="0058"/>
  <outline>
    <contour>
      <point x="255" y="621.2" type="curve"/>
      <point x="255" y="638.801"/>
      <point x="250" y="653.601"/>
      <point x="240" y="665.601" type="curve" smooth="yes"/>
      <point x="230" y="677.601"/>
      <point x="217.667" y="683.601"/>
      <point x="203" y="683.601" type="curve" smooth="yes"/>
      <point x="188.333" y="683.601"/>
      <point x="176" y="677.601"/>
      <point x="166" y="665.601" type="curve" smooth="yes"/>
      <point x="156" y="653.601"/>
      <point x="151" y="638.801"/>
      <point x="151" y="621.2" type="curve" smooth="yes"/>
      <point x="151" y="603.6"/>
      <point x="156" y="588.801"/>
      <point x="166" y="576.801" type="curve" smooth="yes"/>
      <point x="176" y="564.801"/>
      <point x="188.333" y="558.801"/>
      <point x="203" y="558.801" type="curve" smooth="yes"/>
      <point x="217.667" y="558.801"/>
      <point x="230" y="564.801"/>
      <point x="240" y="576.801" type="curve" smooth="yes"/>
      <point x="250" y="588.801"/>
      <point x="255" y="603.6"/>
    </contour>
    <contour>
      <point x="667" y="215.601" type="curve"/>
      <point x="667" y="198"/>
      <point x="672" y="183.2"/>
      <point x="682" y="171.2" type="curve" smooth="yes"/>
      <point x="692" y="159.2"/>
      <point x="704.333" y="153.2"/>
      <point x="719" y="153.2" type="curve" smooth="yes"/>
      <point x="733.667" y="153.2"/>
      <point x="746" y="159.2"/>
      <point x="756" y="171.2" type="curve" smooth="yes"/>
      <point x="766" y="183.2"/>
      <point x="771" y="198"/>
      <point x="771" y="215.601" type="curve" smooth="yes"/>
      <point x="771" y="233.201"/>
      <point x="766" y="248"/>
      <point x="756" y="260" type="curve" smooth="yes"/>
      <point x="746" y="272"/>
      <point x="733.667" y="278"/>
      <point x="719" y="278" type="curve" smooth="yes"/>
      <point x="704.333" y="278"/>
      <point x="692" y="272"/>
      <point x="682" y="260" type="curve" smooth="yes"/>
      <point x="672" y="248"/>
      <point x="667" y="233.201"/>
    </contour>
    <contour>
      <point x="459" y="371.601" type="curve" smooth="yes"/>
      <point x="459" y="452.4"/>
      <point x="477.5" y="529.001"/>
      <point x="514.5" y="601.4" type="curve" smooth="yes"/>
      <point x="551.5" y="673.8"/>
      <point x="602.333" y="767.4"/>
      <point x="667" y="812.2" type="curve"/>
      <point x="717" y="812.2" type="line"/>
      <point x="717" y="816.4" type="line"/>
      <point x="751" y="816.4" type="line" smooth="yes"/>
      <point x="769" y="816.4"/>
      <point x="784.333" y="822.733"/>
      <point x="797" y="835.4" type="curve" smooth="yes"/>
      <point x="809.667" y="848.067"/>
      <point x="816" y="863.4"/>
      <point x="816" y="881.4" type="curve" smooth="yes"/>
      <point x="816" y="896.733"/>
      <point x="811.5" y="912.233"/>
      <point x="802.5" y="927.9" type="curve" smooth="yes"/>
      <point x="793.5" y="943.567"/>
      <point x="780.667" y="958.4"/>
      <point x="764" y="972.4" type="curve"/>
      <point x="816" y="1024.4" type="line"/>
      <point x="840.667" y="1003.73"/>
      <point x="859.833" y="980.9"/>
      <point x="873.5" y="955.9" type="curve" smooth="yes"/>
      <point x="887.167" y="930.9"/>
      <point x="894" y="906.067"/>
      <point x="894" y="881.4" type="curve" smooth="yes"/>
      <point x="894" y="842.067"/>
      <point x="880" y="808.4"/>
      <point x="852" y="780.4" type="curve" smooth="yes"/>
      <point x="824" y="752.4"/>
      <point x="790.333" y="738.4"/>
      <point x="751" y="738.4" type="curve" smooth="yes"/>
      <point x="721.125" y="738.4" type="line"/>
      <point x="681.902" y="695.156"/>
      <point x="648.361" y="644.43"/>
      <point x="620.5" y="600.801" type="curve" smooth="yes"/>
      <point x="573.5" y="527.201"/>
      <point x="550" y="450.801"/>
      <point x="550" y="371.601" type="curve" smooth="yes"/>
      <point x="550" y="339.6"/>
      <point x="553.333" y="310.2"/>
      <point x="560" y="283.4" type="curve" smooth="yes"/>
      <point x="566.667" y="256.601"/>
      <point x="576.333" y="234"/>
      <point x="589" y="215.601" type="curve"/>
      <point x="589" y="258.801"/>
      <point x="601.667" y="295.601"/>
      <point x="627" y="326" type="curve" smooth="yes"/>
      <point x="652.333" y="356.4"/>
      <point x="683" y="371.601"/>
      <point x="719" y="371.601" type="curve" smooth="yes"/>
      <point x="755" y="371.601"/>
      <point x="785.667" y="356.4"/>
      <point x="811" y="326" type="curve" smooth="yes"/>
      <point x="836.333" y="295.601"/>
      <point x="849" y="258.801"/>
      <point x="849" y="215.601" type="curve" smooth="yes"/>
      <point x="849" y="172.4"/>
      <point x="835" y="135.6"/>
      <point x="807" y="105.2" type="curve" smooth="yes"/>
      <point x="779" y="74.8008"/>
      <point x="745.333" y="59.6006"/>
      <point x="706" y="59.6006" type="curve" smooth="yes"/>
      <point x="638" y="59.6006"/>
      <point x="589.046" y="98.6348"/>
      <point x="531.5" y="150.801" type="curve" smooth="yes"/>
      <point x="464.378" y="211.647"/>
      <point x="460.859" y="285.195"/>
    </contour>
    <contour>
      <point x="463" y="465.2" type="curve" smooth="yes"/>
      <point x="463" y="384.4"/>
      <point x="444.5" y="307.8"/>
      <point x="407.5" y="235.4" type="curve" smooth="yes"/>
      <point x="370.5" y="163.001"/>
      <point x="319.667" y="104.4"/>
      <point x="255" y="59.6006" type="curve"/>
      <point x="112" y="59.6006" type="line"/>
      <point x="191.333" y="103.601"/>
      <point x="254.5" y="162.4"/>
      <point x="301.5" y="236" type="curve" smooth="yes"/>
      <point x="348.5" y="309.6"/>
      <point x="372" y="386"/>
      <point x="372" y="465.2" type="curve" smooth="yes"/>
      <point x="372" y="497.201"/>
      <point x="368.667" y="526.601"/>
      <point x="362" y="553.4" type="curve" smooth="yes"/>
      <point x="355.333" y="580.2"/>
      <point x="345.667" y="602.801"/>
      <point x="333" y="621.2" type="curve"/>
      <point x="333" y="578"/>
      <point x="320.333" y="541.2"/>
      <point x="295" y="510.801" type="curve" smooth="yes"/>
      <point x="269.667" y="480.4"/>
      <point x="239" y="465.2"/>
      <point x="203" y="465.2" type="curve" smooth="yes"/>
      <point x="167" y="465.2"/>
      <point x="136.333" y="480.4"/>
      <point x="111" y="510.801" type="curve" smooth="yes"/>
      <point x="85.667" y="541.2"/>
      <point x="73" y="578"/>
      <point x="73" y="621.2" type="curve" smooth="yes"/>
      <point x="73" y="664.4"/>
      <point x="87" y="701.201"/>
      <point x="115" y="731.601" type="curve" smooth="yes"/>
      <point x="143" y="762"/>
      <point x="176.667" y="777.2"/>
      <point x="216" y="777.2" type="curve" smooth="yes"/>
      <point x="284" y="777.2"/>
      <point x="342.167" y="746.801"/>
      <point x="390.5" y="686" type="curve" smooth="yes"/>
      <point x="438.833" y="625.2"/>
      <point x="463" y="551.601"/>
    </contour>
  </outline>
</glyph>
<glyph name="Y" format="2">
  <advance width="673"/>
  <unicode hex="0059"/>
  <outline>
    <contour>
      <point x="337" y="422" type="qcurve" smooth="yes"/>
      <point x="302" y="422"/>
      <point x="259" y="485"/>
      <point x="259" y="526" type="qcurve" smooth="yes"/>
      <point x="259" y="818" type="line"/>
      <point x="323" y="818" type="line"/>
      <point x="323" y="526" type="line" smooth="yes"/>
      <point x="323" y="502"/>
      <point x="349" y="502" type="qcurve" smooth="yes"/>
      <point x="370" y="502"/>
      <point x="460" y="516"/>
      <point x="466" y="526" type="qcurve"/>
      <point x="466" y="818" type="line"/>
      <point x="542" y="818" type="line"/>
      <point x="562" y="824"/>
      <point x="588" y="858"/>
      <point x="588" y="880" type="qcurve" smooth="yes"/>
      <point x="588" y="927"/>
      <point x="536" y="971" type="qcurve"/>
      <point x="588" y="1023" type="line"/>
      <point x="666" y="957"/>
      <point x="666" y="880" type="qcurve" smooth="yes"/>
      <point x="666" y="827"/>
      <point x="594" y="745"/>
      <point x="544" y="738" type="qcurve"/>
      <point x="544" y="292" type="line" smooth="yes"/>
      <point x="544" y="195"/>
      <point x="475" y="126" type="qcurve" smooth="yes"/>
      <point x="407" y="58"/>
      <point x="310" y="58" type="qcurve" smooth="yes"/>
      <point x="212" y="58"/>
      <point x="76" y="164"/>
      <point x="76" y="240" type="qcurve" smooth="yes"/>
      <point x="76" y="309"/>
      <point x="166" y="408"/>
      <point x="232" y="408" type="qcurve" smooth="yes"/>
      <point x="286" y="408"/>
      <point x="362" y="332"/>
      <point x="362" y="278" type="qcurve" smooth="yes"/>
      <point x="362" y="243"/>
      <point x="316" y="188"/>
      <point x="284" y="188" type="qcurve" smooth="yes"/>
      <point x="261" y="188"/>
      <point x="232" y="217"/>
      <point x="232" y="240" type="qcurve" smooth="yes"/>
      <point x="232" y="256"/>
      <point x="261" y="279"/>
      <point x="279" y="279" type="qcurve" smooth="yes"/>
      <point x="286" y="279"/>
      <point x="290" y="278" type="qcurve"/>
      <point x="290" y="301"/>
      <point x="256" y="330"/>
      <point x="232" y="330" type="qcurve" smooth="yes"/>
      <point x="196" y="330"/>
      <point x="148" y="277"/>
      <point x="148" y="240" type="qcurve" smooth="yes"/>
      <point x="148" y="198"/>
      <point x="241" y="148"/>
      <point x="296" y="148" type="qcurve" smooth="yes"/>
      <point x="363" y="148"/>
      <point x="466" y="231"/>
      <point x="466" y="292" type="qcurve" smooth="yes"/>
      <point x="466" y="448" type="line"/>
      <point x="455" y="435"/>
      <point x="442" y="428" type="qcurve" smooth="yes"/>
      <point x="431" y="422"/>
    </contour>
  </outline>
</glyph>
<glyph name="Z" format="2">
  <advance width="964"/>
  <unicode hex="005A"/>
  <outline>
    <contour>
      <point x="279.551" y="667.537" type="curve"/>
      <point x="260.482" y="667.537"/>
      <point x="244.449" y="662.938"/>
      <point x="231.449" y="653.737" type="curve" smooth="yes"/>
      <point x="218.449" y="644.537"/>
      <point x="211.949" y="633.192"/>
      <point x="211.949" y="619.698" type="curve" smooth="yes"/>
      <point x="211.949" y="606.206"/>
      <point x="218.449" y="594.858"/>
      <point x="231.449" y="585.658" type="curve" smooth="yes"/>
      <point x="244.449" y="576.458"/>
      <point x="260.482" y="571.858"/>
      <point x="279.551" y="571.858" type="curve" smooth="yes"/>
      <point x="298.617" y="571.858"/>
      <point x="314.65" y="576.458"/>
      <point x="327.65" y="585.658" type="curve" smooth="yes"/>
      <point x="340.65" y="594.858"/>
      <point x="347.15" y="606.206"/>
      <point x="347.15" y="619.698" type="curve" smooth="yes"/>
      <point x="347.15" y="633.192"/>
      <point x="340.65" y="644.537"/>
      <point x="327.65" y="653.737" type="curve" smooth="yes"/>
      <point x="314.65" y="662.938"/>
      <point x="298.617" y="667.537"/>
    </contour>
    <contour>
      <point x="709.586" y="59.9072" type="curve"/>
      <point x="702.291" y="70.0459"/>
      <point x="701.272" y="64.4893"/>
      <point x="688.301" y="73.085" type="curve" smooth="yes"/>
      <point x="658.662" y="92.7256"/>
      <point x="622.781" y="102.548"/>
      <point x="580.661" y="102.548" type="curve" smooth="yes"/>
      <point x="458.981" y="102.548" type="line" smooth="yes"/>
      <point x="370.842" y="102.548"/>
      <point x="295.57" y="119.774"/>
      <point x="233.171" y="154.228" type="curve" smooth="yes"/>
      <point x="170.771" y="188.682"/>
      <point x="139.571" y="230.061"/>
      <point x="139.571" y="278.36" type="curve" smooth="yes"/>
      <point x="139.571" y="323.44"/>
      <point x="163.36" y="361.919"/>
      <point x="210.94" y="393.797" type="curve" smooth="yes"/>
      <point x="258.521" y="425.675"/>
      <point x="315.852" y="441.613"/>
      <point x="382.932" y="441.613" type="curve" smooth="yes"/>
      <point x="403.21" y="441.613"/>
      <point x="433.631" y="439.521"/>
      <point x="474.19" y="435.335" type="curve" smooth="yes"/>
      <point x="514.752" y="431.148"/>
      <point x="545.171" y="429.055"/>
      <point x="565.45" y="429.055" type="curve" smooth="yes"/>
      <point x="611.47" y="429.055"/>
      <point x="650.861" y="438.877"/>
      <point x="683.621" y="458.519" type="curve" smooth="yes"/>
      <point x="716.382" y="478.161"/>
      <point x="732.761" y="501.828"/>
      <point x="732.761" y="529.52" type="curve" smooth="yes"/>
      <point x="732.761" y="580.396"/>
      <point x="706.24" y="623.705"/>
      <point x="653.2" y="659.447" type="curve" smooth="yes"/>
      <point x="600.162" y="695.188"/>
      <point x="535.812" y="713.061"/>
      <point x="460.15" y="713.061" type="curve" smooth="yes"/>
      <point x="456.252" y="713.061"/>
      <point x="452.352" y="712.896"/>
      <point x="448.45" y="712.576" type="curve" smooth="yes"/>
      <point x="444.552" y="712.256"/>
      <point x="440.261" y="712.094"/>
      <point x="435.582" y="712.094" type="curve"/>
      <point x="448.062" y="701.789"/>
      <point x="457.614" y="689.554"/>
      <point x="464.246" y="675.385" type="curve" smooth="yes"/>
      <point x="470.877" y="661.218"/>
      <point x="474.19" y="646.084"/>
      <point x="474.19" y="629.983" type="curve" smooth="yes"/>
      <point x="474.19" y="591.986"/>
      <point x="457.81" y="559.465"/>
      <point x="425.051" y="532.418" type="curve" smooth="yes"/>
      <point x="392.29" y="505.369"/>
      <point x="352.901" y="491.845"/>
      <point x="306.882" y="491.845" type="curve" smooth="yes"/>
      <point x="260.862" y="491.845"/>
      <point x="221.473" y="505.371"/>
      <point x="188.711" y="532.418" type="curve" smooth="yes"/>
      <point x="155.95" y="559.464"/>
      <point x="139.571" y="591.986"/>
      <point x="139.571" y="629.983" type="curve" smooth="yes"/>
      <point x="139.571" y="681.502"/>
      <point x="169.211" y="722.72"/>
      <point x="228.49" y="753.631" type="curve" smooth="yes"/>
      <point x="287.771" y="784.543"/>
      <point x="366.94" y="819"/>
      <point x="466" y="819" type="curve" smooth="yes"/>
      <point x="484.617" y="819"/>
      <point x="502.743" y="817.516"/>
      <point x="520.378" y="814.771" type="curve"/>
      <point x="520" y="815" type="line"/>
      <point x="790" y="815" type="line" smooth="yes"/>
      <point x="808" y="815"/>
      <point x="823.333" y="821.333"/>
      <point x="836" y="834" type="curve" smooth="yes"/>
      <point x="848.667" y="846.667"/>
      <point x="855" y="862"/>
      <point x="855" y="880" type="curve" smooth="yes"/>
      <point x="855" y="895.333"/>
      <point x="850.5" y="910.833"/>
      <point x="841.5" y="926.5" type="curve" smooth="yes"/>
      <point x="832.5" y="942.167"/>
      <point x="819.667" y="957"/>
      <point x="803" y="971" type="curve"/>
      <point x="855" y="1023" type="line"/>
      <point x="879.667" y="1002.33"/>
      <point x="898.833" y="979.5"/>
      <point x="912.5" y="954.5" type="curve" smooth="yes"/>
      <point x="926.167" y="929.5"/>
      <point x="933" y="904.667"/>
      <point x="933" y="880" type="curve" smooth="yes"/>
      <point x="933" y="840.667"/>
      <point x="919" y="807"/>
      <point x="891" y="779" type="curve" smooth="yes"/>
      <point x="863" y="751"/>
      <point x="829.333" y="737"/>
      <point x="790" y="737" type="curve" smooth="yes"/>
      <point x="706.568" y="737" type="line"/>
      <point x="714.487" y="731.705"/>
      <point x="722.243" y="726.287"/>
      <point x="729.836" y="720.789" type="curve" smooth="yes"/>
      <point x="802.766" y="667.979"/>
      <point x="839.231" y="604.223"/>
      <point x="839.231" y="529.52" type="curve" smooth="yes"/>
      <point x="839.231" y="477.354"/>
      <point x="812.517" y="432.921"/>
      <point x="759.086" y="396.212" type="curve" smooth="yes"/>
      <point x="705.655" y="359.503"/>
      <point x="641.112" y="341.15"/>
      <point x="565.45" y="341.15" type="curve" smooth="yes"/>
      <point x="545.171" y="341.15"/>
      <point x="514.752" y="343.241"/>
      <point x="474.19" y="347.428" type="curve" smooth="yes"/>
      <point x="433.631" y="351.614"/>
      <point x="403.21" y="353.708"/>
      <point x="382.932" y="353.708" type="curve" smooth="yes"/>
      <point x="345.49" y="353.708"/>
      <point x="313.314" y="346.303"/>
      <point x="286.406" y="331.49" type="curve" smooth="yes"/>
      <point x="259.496" y="316.677"/>
      <point x="246.04" y="298.968"/>
      <point x="246.04" y="278.36" type="curve" smooth="yes"/>
      <point x="246.04" y="253.887"/>
      <point x="266.906" y="233.121"/>
      <point x="308.636" y="216.054" type="curve" smooth="yes"/>
      <point x="350.366" y="198.986"/>
      <point x="400.481" y="190.452"/>
      <point x="458.981" y="190.452" type="curve" smooth="yes"/>
      <point x="580.661" y="190.452" type="line" smooth="yes"/>
      <point x="652.42" y="190.452"/>
      <point x="713.468" y="172.109"/>
      <point x="763.766" y="135.392" type="curve" smooth="yes"/>
      <point x="765.487" y="134.135"/>
      <point x="709.586" y="59.9072"/>
    </contour>
  </outline>
</glyph>
<glyph name="bracketleft" format="2">
  <advance width="392"/>
  <unicode hex="005B"/>
  <outline>
    <contour>
      <point x="100" y="-266" type="line"/>
      <point x="100" y="945" type="line"/>
      <point x="293" y="945" type="line"/>
      <point x="293" y="872" type="line"/>
      <point x="166" y="872" type="line"/>
      <point x="166" y="-193" type="line"/>
      <point x="293" y="-193" type="line"/>
      <point x="293" y="-266" type="line"/>
    </contour>
  </outline>
</glyph>
<glyph name="backslash" format="2">
  <advance width="605"/>
  <unicode hex="005C"/>
  <outline>
    <contour>
      <point x="100" y="812" type="line"/>
      <point x="168" y="812" type="line"/>
      <point x="506" y="-129" type="line"/>
      <point x="438" y="-129" type="line"/>
    </contour>
  </outline>
</glyph>
<glyph name="bracketright" format="2">
  <advance width="392"/>
  <unicode hex="005D"/>
  <outline>
    <contour>
      <point x="100" y="-266" type="line"/>
      <point x="293" y="-266" type="line"/>
      <point x="293" y="945" type="line"/>
      <point x="100" y="945" type="line"/>
      <point x="100" y="872" type="line"/>
      <point x="220" y="872" type="line"/>
      <point x="220" y="-193" type="line"/>
      <point x="100" y="-193" type="line"/>
    </contour>
  </outline>
</glyph>
<glyph name="underscore" format="2">
  <advance width="664"/>
  <unicode hex="005F"/>
  <outline>
    <contour>
      <point x="652" y="885" type="curve" smooth="yes"/>
      <point x="652" y="807"/>
      <point x="587" y="742"/>
      <point x="509" y="742" type="curve" smooth="yes"/>
      <point x="2" y="742" type="line"/>
      <point x="2" y="820" type="line"/>
      <point x="509" y="820" type="line" smooth="yes"/>
      <point x="545" y="820"/>
      <point x="574" y="849"/>
      <point x="574" y="885" type="curve" smooth="yes"/>
      <point x="574" y="924"/>
      <point x="547" y="955"/>
      <point x="522" y="976" type="curve"/>
      <point x="574" y="1028" type="line"/>
      <point x="613" y="995"/>
      <point x="652" y="949"/>
    </contour>
  </outline>
</glyph>
<glyph name="grave" format="2">
  <advance width="486"/>
  <unicode hex="0060"/>
  <outline>
    <contour>
      <point x="337" y="676" type="line" smooth="yes"/>
      <point x="337" y="659"/>
      <point x="314" y="636"/>
      <point x="298" y="636" type="qcurve" smooth="yes"/>
      <point x="283" y="636"/>
      <point x="272" y="647" type="qcurve" smooth="yes"/>
      <point x="159" y="759" type="line" smooth="yes"/>
      <point x="149" y="770"/>
      <point x="149" y="802"/>
      <point x="171" y="826"/>
      <point x="187" y="826" type="qcurve" smooth="yes"/>
      <point x="207" y="826"/>
      <point x="219" y="814" type="qcurve" smooth="yes"/>
      <point x="331" y="701" type="line" smooth="yes"/>
      <point x="337" y="696"/>
      <point x="337" y="683" type="qcurve" smooth="yes"/>
    </contour>
  </outline>
</glyph>
<glyph name="a" format="2">
  <advance width="350"/>
  <unicode hex="0061"/>
  <outline>
    <contour>
      <point x="17" y="62" type="line"/>
      <point x="17" y="285.2" type="line" smooth="yes"/>
      <point x="17" y="321.8"/>
      <point x="22.4004" y="355.899"/>
      <point x="33.2002" y="388.1" type="curve" smooth="yes"/>
      <point x="44" y="420.3"/>
      <point x="59.4004" y="448.4"/>
      <point x="79.4004" y="472.4" type="curve"/>
      <point x="5" y="472.4" type="line"/>
      <point x="5" y="519.2" type="line"/>
      <point x="243.2" y="519.2" type="line" smooth="yes"/>
      <point x="252" y="519.2"/>
      <point x="259.4" y="523"/>
      <point x="265.4" y="530.6" type="curve" smooth="yes"/>
      <point x="271.4" y="538.2"/>
      <point x="274.4" y="547.4"/>
      <point x="274.4" y="558.2" type="curve" smooth="yes"/>
      <point x="274.4" y="569.4"/>
      <point x="272.4" y="579.7"/>
      <point x="268.4" y="589.1" type="curve" smooth="yes"/>
      <point x="264.399" y="598.5"/>
      <point x="258.601" y="606.399"/>
      <point x="251" y="612.8" type="curve"/>
      <point x="282.2" y="644" type="line"/>
      <point x="297" y="631.6"/>
      <point x="308.5" y="617.9"/>
      <point x="316.7" y="602.9" type="curve" smooth="yes"/>
      <point x="324.9" y="587.9"/>
      <point x="329" y="573"/>
      <point x="329" y="558.2" type="curve" smooth="yes"/>
      <point x="329" y="537.8"/>
      <point x="323.2" y="519.601"/>
      <point x="311.6" y="503.6" type="curve" smooth="yes"/>
      <point x="300" y="487.6"/>
      <point x="285" y="477.2"/>
      <point x="266.6" y="472.4" type="curve"/>
      <point x="286.6" y="448.4"/>
      <point x="302" y="420.3"/>
      <point x="312.8" y="388.1" type="curve" smooth="yes"/>
      <point x="323.6" y="355.899"/>
      <point x="329" y="321.601"/>
      <point x="329" y="285.2" type="curve" smooth="yes"/>
      <point x="329" y="65" type="line"/>
      <point x="274.4" y="65" type="line"/>
      <point x="274.4" y="212" type="line"/>
      <point x="71.5996" y="212" type="line"/>
      <point x="71.5996" y="62" type="line"/>
    </contour>
    <contour>
      <point x="71.5996" y="262.4" type="line"/>
      <point x="274.4" y="262.4" type="line"/>
      <point x="274.4" y="285.2" type="line" smooth="yes"/>
      <point x="274.4" y="336.8"/>
      <point x="264.5" y="380.9"/>
      <point x="244.7" y="417.5" type="curve" smooth="yes"/>
      <point x="224.9" y="454.1"/>
      <point x="201" y="472.4"/>
      <point x="173" y="472.4" type="curve" smooth="yes"/>
      <point x="145" y="472.4"/>
      <point x="121.1" y="454.1"/>
      <point x="101.3" y="417.5" type="curve" smooth="yes"/>
      <point x="81.5" y="380.9"/>
      <point x="71.5996" y="336.8"/>
      <point x="71.5996" y="285.2" type="curve" smooth="yes"/>
      <point x="71.5996" y="273.8" type="line"/>
    </contour>
  </outline>
</glyph>
<glyph name="b" format="2">
  <advance width="299"/>
  <unicode hex="0062"/>
  <outline>
    <contour>
      <point x="163" y="129" type="curve" smooth="yes"/>
      <point x="197.607" y="129"/>
      <point x="227" y="153.482"/>
      <point x="227" y="187" type="curve" smooth="yes"/>
      <point x="227" y="222.492"/>
      <point x="198.015" y="254"/>
      <point x="163" y="254" type="curve" smooth="yes"/>
      <point x="158" y="254" type="line"/>
      <point x="158" y="317" type="line"/>
      <point x="163" y="317" type="line" smooth="yes"/>
      <point x="199.207" y="317"/>
      <point x="227" y="347.651"/>
      <point x="227" y="384" type="curve" smooth="yes"/>
      <point x="227" y="418.546"/>
      <point x="192.925" y="442"/>
      <point x="157" y="442" type="curve" smooth="yes"/>
      <point x="83.7096" y="442"/>
      <point x="37" y="361.534"/>
      <point x="37" y="285" type="curve" smooth="yes"/>
      <point x="37" y="207.479"/>
      <point x="88.5875" y="129"/>
    </contour>
    <contour>
      <point x="173.516" y="594.585" type="curve"/>
      <point x="212.629" y="633.699" type="line"/>
      <point x="238.056" y="613.358"/>
      <point x="264" y="581.443"/>
      <point x="264" y="541" type="curve" smooth="yes"/>
      <point x="264" y="512.24"/>
      <point x="251.208" y="491.15"/>
      <point x="233.7" y="472.197" type="curve"/>
      <point x="261.117" y="445.374"/>
      <point x="281" y="411.348"/>
      <point x="281" y="369" type="curve" smooth="yes"/>
      <point x="281" y="331.445"/>
      <point x="264.315" y="296.553"/>
      <point x="242.663" y="277.715" type="curve" smooth="yes"/>
      <point x="233.849" y="270.046" type="line"/>
      <point x="242.785" y="262.518" type="line" smooth="yes"/>
      <point x="264.544" y="244.188"/>
      <point x="281" y="209.281"/>
      <point x="281" y="172" type="curve" smooth="yes"/>
      <point x="281" y="103.783"/>
      <point x="230.225" y="41"/>
      <point x="163" y="41" type="curve" smooth="yes"/>
      <point x="118.432" y="41"/>
      <point x="79.023" y="62.7632"/>
      <point x="54.2295" y="88.707" type="curve" smooth="yes"/>
      <point x="37" y="106.736" type="line"/>
      <point x="37" y="84.8242"/>
      <point x="37" y="62.9121"/>
      <point x="37" y="41" type="curve"/>
      <point x="-10" y="41" type="line"/>
      <point x="-10" y="365.301" type="line"/>
      <point x="0.615234" y="383.111"/>
      <point x="19.5244" y="408.545"/>
      <point x="41.291" y="434.162" type="curve" smooth="yes"/>
      <point x="73.3175" y="471.855"/>
      <point x="98.2213" y="496.809"/>
      <point x="152.097" y="499.971" type="curve"/>
      <point x="159.126" y="502.313"/>
      <point x="166.156" y="504.657"/>
      <point x="173.186" y="507" type="curve"/>
      <point x="174" y="507" type="line" smooth="yes"/>
      <point x="194.097" y="507"/>
      <point x="208" y="523.041"/>
      <point x="208" y="541" type="curve" smooth="yes"/>
      <point x="208" y="564.418"/>
      <point x="189.19" y="582.046"/>
    </contour>
  </outline>
</glyph>
<glyph name="c" format="2">
  <advance width="372"/>
  <unicode hex="0063"/>
  <outline>
    <contour>
      <point x="243.5" y="340" type="curve" smooth="yes"/>
      <point x="243.5" y="323.045"/>
      <point x="252.829" y="313"/>
      <point x="269" y="313" type="curve" smooth="yes"/>
      <point x="284.346" y="313"/>
      <point x="295" y="325.136"/>
      <point x="295" y="340" type="curve" smooth="yes"/>
      <point x="295" y="354.625"/>
      <point x="283.604" y="366"/>
      <point x="269" y="366" type="curve" smooth="yes"/>
      <point x="253.291" y="366"/>
      <point x="243.5" y="356.743"/>
    </contour>
    <contour>
      <point x="68" y="281.798" type="curve" smooth="yes"/>
      <point x="68" y="237.296"/>
      <point x="80.626" y="203.079"/>
      <point x="106.599" y="176.47" type="curve" smooth="yes"/>
      <point x="129.335" y="149.582"/>
      <point x="159.591" y="136"/>
      <point x="198" y="136" type="curve" smooth="yes"/>
      <point x="216.255" y="136"/>
      <point x="233.77" y="142.618"/>
      <point x="251.138" y="156.099" type="curve" smooth="yes"/>
      <point x="272.151" y="170.808"/>
      <point x="286.198" y="190.888"/>
      <point x="297.884" y="216.385" type="curve"/>
      <point x="353.312" y="179.826" type="line"/>
      <point x="327.225" y="122.055"/>
      <point x="270.15" y="72"/>
      <point x="198" y="72" type="curve" smooth="yes"/>
      <point x="143.775" y="72"/>
      <point x="97.4785" y="90.4238"/>
      <point x="59.3916" y="129.54" type="curve" smooth="yes"/>
      <point x="21.3799" y="168.287"/>
      <point x="3" y="219.339"/>
      <point x="3" y="281.798" type="curve" smooth="yes"/>
      <point x="3" y="343.337"/>
      <point x="21.2861" y="392.794"/>
      <point x="59.2607" y="430.415" type="curve" smooth="yes"/>
      <point x="74.0801" y="445.36"/>
      <point x="92.1377" y="456.34"/>
      <point x="109.369" y="468.325" type="curve"/>
      <point x="-13" y="468.325" type="line"/>
      <point x="-13" y="522.602" type="line"/>
      <point x="276" y="522.602" type="line" smooth="yes"/>
      <point x="293.748" y="522.602"/>
      <point x="310" y="535.944"/>
      <point x="310" y="555.753" type="curve" smooth="yes"/>
      <point x="310" y="579.477"/>
      <point x="292.534" y="596.325"/>
      <point x="276.821" y="608.449" type="curve"/>
      <point x="314.504" y="644.799" type="line"/>
      <point x="340.119" y="624.309"/>
      <point x="367" y="596.635"/>
      <point x="367" y="555.526" type="curve" smooth="yes"/>
      <point x="367" y="513.775"/>
      <point x="335.714" y="479.219"/>
      <point x="298.553" y="470.652" type="curve" smooth="yes"/>
      <point x="277.503" y="465.799" type="line"/>
      <point x="286.537" y="458.862"/>
      <point x="296" y="452.565"/>
      <point x="304.449" y="445.006" type="curve" smooth="yes"/>
      <point x="335.363" y="418.141"/>
      <point x="352" y="385.047"/>
      <point x="352" y="346.355" type="curve" smooth="yes"/>
      <point x="352" y="299.455"/>
      <point x="315.709" y="259"/>
      <point x="269" y="259" type="curve" smooth="yes"/>
      <point x="222.299" y="259"/>
      <point x="190.125" y="299.449"/>
      <point x="190.125" y="346.428" type="curve" smooth="yes"/>
      <point x="190.125" y="370.664"/>
      <point x="198.954" y="392.545"/>
      <point x="211.868" y="406.325" type="curve" smooth="yes"/>
      <point x="226.502" y="421.94" type="line"/>
      <point x="217.005" y="422.734"/>
      <point x="207.976" y="423.952"/>
      <point x="198" y="423.952" type="curve" smooth="yes"/>
      <point x="118.227" y="423.952"/>
      <point x="68" y="361.842"/>
    </contour>
  </outline>
</glyph>
<glyph name="d" format="2">
  <advance width="442"/>
  <unicode hex="0064"/>
  <outline>
    <contour>
      <point x="36" y="516.35" type="line"/>
      <point x="340.2" y="516.35" type="line" smooth="yes"/>
      <point x="351" y="516.35"/>
      <point x="360.2" y="520.149"/>
      <point x="367.8" y="527.75" type="curve" smooth="yes"/>
      <point x="375.4" y="535.351"/>
      <point x="379.2" y="544.55"/>
      <point x="379.2" y="555.35" type="curve" smooth="yes"/>
      <point x="379.2" y="564.55"/>
      <point x="376.5" y="573.85"/>
      <point x="371.1" y="583.25" type="curve" smooth="yes"/>
      <point x="365.7" y="592.65"/>
      <point x="358" y="601.55"/>
      <point x="348" y="609.95" type="curve"/>
      <point x="379.2" y="641.15" type="line"/>
      <point x="394" y="628.75"/>
      <point x="405.5" y="615.05"/>
      <point x="413.7" y="600.05" type="curve" smooth="yes"/>
      <point x="421.9" y="585.05"/>
      <point x="426" y="570.15"/>
      <point x="426" y="555.35" type="curve" smooth="yes"/>
      <point x="426" y="531.75"/>
      <point x="417.6" y="511.55"/>
      <point x="400.8" y="494.75" type="curve" smooth="yes"/>
      <point x="384" y="477.95"/>
      <point x="363.8" y="469.55"/>
      <point x="340.2" y="469.55" type="curve" smooth="yes"/>
      <point x="130.8" y="469.55" type="line"/>
      <point x="132" y="108.95" type="line"/>
      <point x="220.56" y="108.74" type="line" smooth="yes"/>
      <point x="253.63" y="108.662"/>
      <point x="281.85" y="123.141"/>
      <point x="305.07" y="151.94" type="curve" smooth="yes"/>
      <point x="328.29" y="180.739"/>
      <point x="339.9" y="215.48"/>
      <point x="339.9" y="256.16" type="curve" smooth="yes"/>
      <point x="339.9" y="296.84"/>
      <point x="332.7" y="331.58"/>
      <point x="318.3" y="360.38" type="curve" smooth="yes"/>
      <point x="303.9" y="389.18"/>
      <point x="286.44" y="403.58"/>
      <point x="265.92" y="403.58" type="curve" smooth="yes"/>
      <point x="255.48" y="403.58"/>
      <point x="246.479" y="398.09"/>
      <point x="238.92" y="387.109" type="curve" smooth="yes"/>
      <point x="231.359" y="376.131"/>
      <point x="227.58" y="362.9"/>
      <point x="227.58" y="347.42" type="curve" smooth="yes"/>
      <point x="227.58" y="337.7"/>
      <point x="230.28" y="329.42"/>
      <point x="235.68" y="322.58" type="curve" smooth="yes"/>
      <point x="241.08" y="315.739"/>
      <point x="247.739" y="312.32"/>
      <point x="255.66" y="312.32" type="curve" smooth="yes"/>
      <point x="258.54" y="312.32"/>
      <point x="261.33" y="314.3"/>
      <point x="264.03" y="318.26" type="curve" smooth="yes"/>
      <point x="266.729" y="322.22"/>
      <point x="268.62" y="327.261"/>
      <point x="269.7" y="333.38" type="curve"/>
      <point x="297.78" y="333.38" type="line"/>
      <point x="297.78" y="316.1"/>
      <point x="293.64" y="301.25"/>
      <point x="285.359" y="288.83" type="curve" smooth="yes"/>
      <point x="277.08" y="276.41"/>
      <point x="267.18" y="270.2"/>
      <point x="255.66" y="270.2" type="curve" smooth="yes"/>
      <point x="236.22" y="270.2"/>
      <point x="219.66" y="277.76"/>
      <point x="205.979" y="292.88" type="curve" smooth="yes"/>
      <point x="192.3" y="308"/>
      <point x="185.46" y="326.181"/>
      <point x="185.46" y="347.42" type="curve" smooth="yes"/>
      <point x="185.46" y="374.42"/>
      <point x="193.021" y="397.55"/>
      <point x="208.141" y="416.81" type="curve" smooth="yes"/>
      <point x="223.26" y="436.07"/>
      <point x="241.44" y="445.7"/>
      <point x="262.68" y="445.7" type="curve" smooth="yes"/>
      <point x="297.6" y="445.7"/>
      <point x="327.39" y="427.16"/>
      <point x="352.05" y="390.08" type="curve" smooth="yes"/>
      <point x="376.71" y="353"/>
      <point x="389.04" y="308.36"/>
      <point x="389.04" y="256.16" type="curve" smooth="yes"/>
      <point x="389.04" y="201.8"/>
      <point x="372.57" y="155.45"/>
      <point x="339.63" y="117.109" type="curve" smooth="yes"/>
      <point x="306.69" y="78.7705"/>
      <point x="267" y="59.5996"/>
      <point x="220.56" y="59.5996" type="curve" smooth="yes"/>
      <point x="80.1602" y="59.5996" type="line"/>
      <point x="80.1602" y="96.8594" type="line"/>
      <point x="80.1602" y="108.74" type="line"/>
      <point x="79.3057" y="469.55" type="line"/>
      <point x="36" y="469.55" type="line"/>
    </contour>
  </outline>
</glyph>
<glyph name="e" format="2">
  <advance width="326"/>
  <unicode hex="0065"/>
  <outline>
    <contour>
      <point x="227.6" y="79.7002" type="curve"/>
      <point x="227.6" y="79.7002"/>
      <point x="227.561" y="50"/>
      <point x="221.3" y="50" type="curve" smooth="yes"/>
      <point x="182.5" y="50"/>
      <point x="149.4" y="61.4004"/>
      <point x="122" y="84.2002" type="curve" smooth="yes"/>
      <point x="94.5996" y="107"/>
      <point x="80.9004" y="134.6"/>
      <point x="80.9004" y="167" type="curve" smooth="yes"/>
      <point x="80.9004" y="187.4"/>
      <point x="87.2998" y="206.2"/>
      <point x="100.1" y="223.4" type="curve" smooth="yes"/>
      <point x="112.899" y="240.601"/>
      <point x="129.9" y="253"/>
      <point x="151.1" y="260.6" type="curve"/>
      <point x="129.9" y="268.2"/>
      <point x="112.899" y="280.6"/>
      <point x="100.1" y="297.8" type="curve" smooth="yes"/>
      <point x="87.2998" y="315"/>
      <point x="80.9004" y="333.8"/>
      <point x="80.9004" y="354.2" type="curve" smooth="yes"/>
      <point x="80.9004" y="382.2"/>
      <point x="91.5996" y="406.1"/>
      <point x="113" y="425.9" type="curve" smooth="yes"/>
      <point x="134.4" y="445.7"/>
      <point x="160.1" y="455.6"/>
      <point x="190.1" y="455.6" type="curve" smooth="yes"/>
      <point x="211.7" y="455.6"/>
      <point x="230.101" y="448"/>
      <point x="245.3" y="432.8" type="curve" smooth="yes"/>
      <point x="260.5" y="417.601"/>
      <point x="268.1" y="399.2"/>
      <point x="268.1" y="377.6" type="curve" smooth="yes"/>
      <point x="268.1" y="361.6"/>
      <point x="261.399" y="347.6"/>
      <point x="248" y="335.6" type="curve" smooth="yes"/>
      <point x="234.601" y="323.6"/>
      <point x="217.899" y="316.8"/>
      <point x="197.9" y="315.2" type="curve"/>
      <point x="197.9" y="354.2" type="line"/>
      <point x="204.3" y="354.2"/>
      <point x="209.8" y="356.5"/>
      <point x="214.4" y="361.1" type="curve" smooth="yes"/>
      <point x="219" y="365.7"/>
      <point x="221.3" y="371.2"/>
      <point x="221.3" y="377.6" type="curve" smooth="yes"/>
      <point x="221.3" y="384"/>
      <point x="217.5" y="389.5"/>
      <point x="209.9" y="394.1" type="curve" smooth="yes"/>
      <point x="202.3" y="398.7"/>
      <point x="193.1" y="401"/>
      <point x="182.3" y="401" type="curve" smooth="yes"/>
      <point x="167.101" y="401"/>
      <point x="154.2" y="396.399"/>
      <point x="143.6" y="387.2" type="curve" smooth="yes"/>
      <point x="133" y="378"/>
      <point x="127.7" y="367"/>
      <point x="127.7" y="354.2" type="curve" smooth="yes"/>
      <point x="127.7" y="335"/>
      <point x="136.8" y="318.5"/>
      <point x="155" y="304.7" type="curve" smooth="yes"/>
      <point x="173.2" y="290.9"/>
      <point x="195.3" y="284"/>
      <point x="221.3" y="284" type="curve"/>
      <point x="221.3" y="237.2" type="line"/>
      <point x="195.3" y="237.2"/>
      <point x="173.2" y="230.3"/>
      <point x="155" y="216.5" type="curve" smooth="yes"/>
      <point x="136.8" y="202.7"/>
      <point x="127.7" y="186.2"/>
      <point x="127.7" y="167" type="curve" smooth="yes"/>
      <point x="127.7" y="149.8"/>
      <point x="136.8" y="135.1"/>
      <point x="155" y="122.9" type="curve" smooth="yes"/>
      <point x="173.2" y="110.7"/>
      <point x="195.3" y="104.6"/>
      <point x="221.3" y="104.6" type="curve" smooth="yes"/>
      <point x="227.082" y="104.6"/>
      <point x="227.6" y="79.7002"/>
    </contour>
    <contour>
      <point x="75.7998" y="502.7" type="line"/>
      <point x="226.4" y="502.7" type="line" smooth="yes"/>
      <point x="237.2" y="502.7"/>
      <point x="246.399" y="506.5"/>
      <point x="254" y="514.1" type="curve" smooth="yes"/>
      <point x="261.601" y="521.7"/>
      <point x="265.4" y="530.9"/>
      <point x="265.4" y="541.7" type="curve" smooth="yes"/>
      <point x="265.4" y="550.899"/>
      <point x="262.7" y="560.2"/>
      <point x="257.3" y="569.6" type="curve" smooth="yes"/>
      <point x="251.9" y="579"/>
      <point x="244.2" y="587.9"/>
      <point x="234.2" y="596.3" type="curve"/>
      <point x="265.4" y="627.5" type="line"/>
      <point x="280.2" y="615.1"/>
      <point x="291.7" y="601.4"/>
      <point x="299.9" y="586.4" type="curve" smooth="yes"/>
      <point x="308.101" y="571.4"/>
      <point x="312.2" y="556.5"/>
      <point x="312.2" y="541.7" type="curve" smooth="yes"/>
      <point x="312.2" y="518.101"/>
      <point x="303.8" y="497.9"/>
      <point x="287" y="481.1" type="curve" smooth="yes"/>
      <point x="270.2" y="464.3"/>
      <point x="250" y="455.9"/>
      <point x="226.4" y="455.9" type="curve" smooth="yes"/>
      <point x="75.7998" y="455.9" type="line"/>
    </contour>
  </outline>
</glyph>
<glyph name="f" format="2">
  <advance width="350"/>
  <unicode hex="0066"/>
  <outline>
    <contour>
      <point x="-23" y="108" type="curve"/>
      <point x="15" y="146" type="line"/>
      <point x="28" y="130"/>
      <point x="46" y="113"/>
      <point x="70" y="113" type="curve" smooth="yes"/>
      <point x="90" y="113"/>
      <point x="103" y="129"/>
      <point x="103" y="147" type="curve" smooth="yes"/>
      <point x="103" y="455" type="line"/>
      <point x="-21" y="455" type="line"/>
      <point x="-21" y="509" type="line"/>
      <point x="268" y="509" type="line" smooth="yes"/>
      <point x="286" y="509"/>
      <point x="302" y="522"/>
      <point x="302" y="542" type="curve" smooth="yes"/>
      <point x="302" y="566"/>
      <point x="284" y="582"/>
      <point x="268" y="594" type="curve"/>
      <point x="306" y="632" type="line"/>
      <point x="331" y="612"/>
      <point x="359" y="583"/>
      <point x="359" y="542" type="curve" smooth="yes"/>
      <point x="359" y="494"/>
      <point x="317" y="457"/>
      <point x="268" y="457" type="curve" smooth="yes"/>
      <point x="153" y="457" type="line"/>
      <point x="153" y="302" type="line"/>
      <point x="194" y="301" type="line"/>
      <point x="211" y="301" type="line"/>
      <point x="257" y="324" type="line"/>
      <point x="266" y="334"/>
      <point x="267" y="329"/>
      <point x="271" y="353" type="curve"/>
      <point x="271" y="355" type="line" smooth="yes"/>
      <point x="271" y="367"/>
      <point x="253" y="388"/>
      <point x="243" y="390" type="curve" smooth="yes"/>
      <point x="231" y="392" type="line"/>
      <point x="227" y="380" type="line"/>
      <point x="227" y="377" type="line" smooth="yes"/>
      <point x="227" y="373"/>
      <point x="230" y="368"/>
      <point x="230" y="364" type="curve" smooth="yes"/>
      <point x="230" y="358"/>
      <point x="229" y="352"/>
      <point x="225" y="348" type="curve" smooth="yes"/>
      <point x="196" y="320" type="line"/>
      <point x="186" y="320" type="line"/>
      <point x="185" y="320" type="line" smooth="yes"/>
      <point x="174" y="320"/>
      <point x="172" y="344"/>
      <point x="172" y="360" type="curve" smooth="yes"/>
      <point x="172" y="398"/>
      <point x="201" y="435"/>
      <point x="238" y="435" type="curve" smooth="yes"/>
      <point x="288" y="435"/>
      <point x="329" y="394"/>
      <point x="329" y="344" type="curve" smooth="yes"/>
      <point x="329" y="290"/>
      <point x="279" y="245"/>
      <point x="225" y="245" type="curve" smooth="yes"/>
      <point x="151" y="245" type="line"/>
      <point x="151" y="147" type="line" smooth="yes"/>
      <point x="151" y="98"/>
      <point x="119" y="55"/>
      <point x="70" y="55" type="curve" smooth="yes"/>
      <point x="28" y="55"/>
      <point x="-2" y="82"/>
    </contour>
  </outline>
</glyph>
<glyph name="g" format="2">
  <advance width="455"/>
  <unicode hex="0067"/>
  <outline>
    <contour>
      <point x="180" y="154" type="curve"/>
      <point x="194" y="146"/>
      <point x="238" y="117"/>
      <point x="268.928" y="118.212" type="curve" smooth="yes"/>
      <point x="283.666" y="118.789"/>
      <point x="298.369" y="121.288"/>
      <point x="313.213" y="127.639" type="curve" smooth="yes"/>
      <point x="339.645" y="138.947"/>
      <point x="349.302" y="148.043"/>
      <point x="349.302" y="165.907" type="curve" smooth="yes"/>
      <point x="349.302" y="183.546"/>
      <point x="336.559" y="203.468"/>
      <point x="315.934" y="203.468" type="curve" smooth="yes"/>
      <point x="291.019" y="203.468"/>
      <point x="280.788" y="185.694"/>
      <point x="272.51" y="155" type="curve"/>
      <point x="223" y="159" type="line"/>
      <point x="217.556" y="302" type="line"/>
      <point x="273" y="301" type="line"/>
      <point x="273.654" y="245.542" type="line"/>
      <point x="287.181" y="254.54"/>
      <point x="304.583" y="267"/>
      <point x="324.494" y="267" type="curve" smooth="yes"/>
      <point x="378.954" y="267"/>
      <point x="415" y="222.288"/>
      <point x="415" y="164" type="curve" smooth="yes"/>
      <point x="415" y="94.2092"/>
      <point x="340.801" y="54"/>
      <point x="267.519" y="54" type="curve" smooth="yes"/>
      <point x="211.302" y="54"/>
      <point x="163.225" y="74.0615"/>
      <point x="124.248" y="115.094" type="curve" smooth="yes"/>
      <point x="85.3994" y="155.99"/>
      <point x="66" y="207.002"/>
      <point x="66" y="267.434" type="curve" smooth="yes"/>
      <point x="66" y="326.84"/>
      <point x="84.3262" y="376.005"/>
      <point x="123.437" y="412.156" type="curve" smooth="yes"/>
      <point x="141.679" y="429.361"/>
      <point x="163.619" y="440.971"/>
      <point x="185.577" y="454.034" type="curve"/>
      <point x="68" y="454.034" type="line"/>
      <point x="68" y="509.162" type="line"/>
      <point x="357" y="509.162" type="line" smooth="yes"/>
      <point x="374.815" y="509.162"/>
      <point x="391" y="522.68"/>
      <point x="391" y="542.579" type="curve" smooth="yes"/>
      <point x="391" y="566.539"/>
      <point x="373.494" y="583.556"/>
      <point x="357.723" y="595.866" type="curve"/>
      <point x="395.543" y="632.768" type="line"/>
      <point x="421.048" y="612.364"/>
      <point x="448" y="584.927"/>
      <point x="448" y="544.03" type="curve" smooth="yes"/>
      <point x="448" y="502.044"/>
      <point x="414.778" y="467.583"/>
      <point x="377.327" y="459.355" type="curve" smooth="yes"/>
      <point x="353.415" y="454.103" type="line"/>
      <point x="374.185" y="441.104" type="line" smooth="yes"/>
      <point x="401.047" y="424.295"/>
      <point x="415" y="401.438"/>
      <point x="415" y="374.329" type="curve" smooth="yes"/>
      <point x="415" y="333.551"/>
      <point x="372.125" y="299"/>
      <point x="324.494" y="299" type="curve" smooth="yes"/>
      <point x="277.355" y="299"/>
      <point x="244.728" y="337.781"/>
      <point x="244.728" y="382" type="curve" smooth="yes"/>
      <point x="244.728" y="391.496"/>
      <point x="247.212" y="403.167"/>
      <point x="248.627" y="412.31" type="curve"/>
      <point x="237.017" y="410.883" type="line" smooth="yes"/>
      <point x="208.015" y="407.318"/>
      <point x="185.714" y="395.001"/>
      <point x="167.739" y="374.683" type="curve" smooth="yes"/>
      <point x="139.874" y="343.221"/>
      <point x="125.624" y="311.45"/>
      <point x="125.624" y="279.272" type="curve" smooth="yes"/>
      <point x="125.624" y="212.726"/>
      <point x="148.722" y="176.254"/>
    </contour>
    <contour>
      <point x="324.494" y="364" type="curve" smooth="yes"/>
      <point x="336.807" y="364"/>
      <point x="354.865" y="369.595"/>
      <point x="354.865" y="382.091" type="curve" smooth="yes"/>
      <point x="354.865" y="397.477"/>
      <point x="339.358" y="404"/>
      <point x="324.494" y="404" type="curve" smooth="yes"/>
      <point x="310.824" y="404"/>
      <point x="298.198" y="397.954"/>
      <point x="298.198" y="382" type="curve" smooth="yes"/>
      <point x="298.198" y="370.048"/>
      <point x="312.552" y="364"/>
    </contour>
  </outline>
</glyph>
